<svg version="1.1" xmlns="http://www.w3.org/2000/svg" xmlns:xlink="http://www.w3.org/1999/xlink" width="37.9069" height="51.3113" viewBox="0,0,37.9069,51.3113"><g transform="translate(-221.04655,-154.34435)"><g data-paper-data="{&quot;isPaintingLayer&quot;:true}" fill="#000000" fill-rule="nonzero" stroke="none" stroke-width="0.26458" stroke-linecap="butt" stroke-linejoin="miter" stroke-miterlimit="10" stroke-dasharray="" stroke-dashoffset="0" style="mix-blend-mode: normal"><path d="M241.94575,175.0274c3.31505,0 6.24575,0.6246 8.7921,1.87375c2.5944,1.24915 4.61225,3.0268 6.0536,5.3329c1.44135,2.2581 2.162,4.9005 2.162,7.9273c0,3.07485 -0.7447,5.78935 -2.23405,8.1435c-1.48935,2.35415 -3.5553,4.17985 -6.1977,5.47705c-2.5944,1.24915 -5.5251,1.87375 -8.7921,1.87375c-6.67815,0 -11.79489,-2.186 -15.35015,-6.55805c-3.5553,-4.4201 -5.3329,-10.6418 -5.3329,-18.6652c0,-5.6212 0.9609,-10.37759 2.88265,-14.26915c1.92175,-3.8916 4.61225,-6.8223 8.07145,-8.7921c3.4592,-2.01785 7.4949,-3.0268 12.10715,-3.0268c4.9966,0 8.9843,0.91285 11.96304,2.73855l-2.0899,4.17985c-2.4022,-1.58545 -5.66925,-2.3782 -9.80105,-2.3782c-5.57315,0 -9.94519,1.77765 -13.1161,5.3329c-3.17095,3.50725 -4.7564,8.62395 -4.7564,15.35015c0,1.2011 0.07205,2.57035 0.2162,4.1078c1.24915,-2.73855 3.243,-4.8525 5.9815,-6.34185c2.73855,-1.5374 5.88545,-2.30615 9.4407,-2.30615zM241.51335,201.2596c3.65135,0 6.6061,-0.9849 8.86419,-2.95475c2.30615,-2.01785 3.4592,-4.6843 3.4592,-7.99939c0,-3.31505 -1.15305,-5.9575 -3.4592,-7.9273c-2.2581,-1.9698 -5.33294,-2.95475 -9.2245,-2.95475c-2.54635,0 -4.80445,0.48045 -6.77425,1.44135c-1.92175,0.9609 -3.43515,2.2821 -4.5402,3.96365c-1.105,1.68155 -1.65755,3.5553 -1.65755,5.6212c0,1.92175 0.50445,3.6994 1.5134,5.3329c1.057,1.6335 2.5944,2.95475 4.61225,3.96365c2.01785,1.00895 4.4201,1.5134 7.20665,1.5134z"/></g></g></svg>