<svg version="1.1" xmlns="http://www.w3.org/2000/svg" xmlns:xlink="http://www.w3.org/1999/xlink" width="28" height="28" viewBox="0,0,28,28"><defs><linearGradient x1="244.11874" y1="184.15987" x2="235.82625" y2="175.86738" gradientUnits="userSpaceOnUse" id="color-1"><stop offset="0" stop-color="#ffffff"/><stop offset="0.242" stop-color="#f2f2f2"/><stop offset="1" stop-color="#cccccc"/></linearGradient><linearGradient x1="236.63283" y1="176.67396" x2="242.53951" y2="182.58064" gradientUnits="userSpaceOnUse" id="color-2"><stop offset="0" stop-color="#0d61a9"/><stop offset="0.363" stop-color="#0e5fa4"/><stop offset="0.78" stop-color="#135796"/><stop offset="1" stop-color="#16528c"/></linearGradient><linearGradient x1="230.40023" y1="170.45061" x2="247.23915" y2="187.28902" gradientUnits="userSpaceOnUse" id="color-3"><stop offset="0" stop-color="#889097"/><stop offset="0.331" stop-color="#848c94"/><stop offset="0.669" stop-color="#78828b"/><stop offset="1" stop-color="#64717c"/></linearGradient></defs><g transform="translate(-226,-166)"><g data-paper-data="{&quot;isPaintingLayer&quot;:true}" fill-rule="nonzero" stroke="none" stroke-width="1" stroke-linecap="butt" stroke-linejoin="miter" stroke-miterlimit="10" stroke-dasharray="" stroke-dashoffset="0" style="mix-blend-mode: normal"><path d="M247.77778,194h-15.55555c-3.43078,0 -6.22223,-2.79145 -6.22223,-6.22223v-15.55555c0,-3.43078 2.79145,-6.22223 6.22223,-6.22223h15.55555c3.43078,0 6.22223,2.79145 6.22223,6.22223v15.55555c0,3.43078 -2.79145,6.22223 -6.22223,6.22223z" fill="#f3f3f3"/><path d="M234.08818,180.04113c0,-3.26501 2.64681,-5.91182 5.91182,-5.91182c3.26501,0 5.91182,2.64681 5.91182,5.91182c0,3.26501 -2.64681,5.91182 -5.91182,5.91182c-3.26501,0 -5.91182,-2.64681 -5.91182,-5.91182z" fill="url(#color-1)"/><path d="M236.4015,180.04113c0,-1.9874 1.6111,-3.5985 3.5985,-3.5985c1.9874,0 3.5985,1.6111 3.5985,3.5985c0,1.9874 -1.6111,3.5985 -3.5985,3.5985c-1.9874,0 -3.5985,-1.6111 -3.5985,-3.5985z" fill="url(#color-2)"/><path d="M250.28143,180.04113c0,0.66007 -0.06837,1.30317 -0.18712,1.92931c-1.26976,-0.02622 -2.51432,0.621 -3.19393,1.79822c-0.70325,1.21835 -0.6102,2.67523 0.1131,3.77585c-1.0703,1.0009 -2.35085,1.77663 -3.77328,2.24906c-0.5809,-1.20653 -1.81159,-2.04138 -3.24019,-2.04138c-1.4286,0 -2.65929,0.83485 -3.24019,2.04086c-1.42244,-0.47243 -2.70299,-1.24817 -3.77328,-2.24906c0.7233,-1.10063 0.81635,-2.55751 0.1131,-3.77585c-0.6796,-1.17722 -1.92468,-1.82444 -3.19393,-1.79822c-0.11875,-0.62562 -0.18712,-1.26873 -0.18712,-1.9288c0,-0.84411 0.1131,-1.66045 0.30536,-2.44544c1.22812,-0.01491 2.41716,-0.65493 3.07569,-1.79565c0.63385,-1.09806 0.621,-2.38992 0.08328,-3.44068c1.0924,-0.97005 2.38632,-1.71648 3.81955,-2.15293c0.64465,0.97005 1.74579,1.60956 2.99755,1.60956c1.25176,0 2.3529,-0.6395 2.99806,-1.60956c1.43323,0.43645 2.72715,1.18288 3.81955,2.15293c-0.53772,1.05076 -0.55057,2.34262 0.08328,3.44068c0.65853,1.14072 1.84757,1.78074 3.07569,1.79565c0.19175,0.78499 0.30484,1.60133 0.30484,2.44544zM245.39775,180.04113c0,-2.9811 -2.41665,-5.39775 -5.39775,-5.39775c-2.9811,0 -5.39775,2.41665 -5.39775,5.39775c0,2.9811 2.41665,5.39775 5.39775,5.39775c2.9811,0 5.39775,-2.41665 5.39775,-5.39775z" fill="url(#color-3)"/></g></g></svg>