<svg version="1.1" xmlns="http://www.w3.org/2000/svg" xmlns:xlink="http://www.w3.org/1999/xlink" width="40" height="40" viewBox="0,0,40,40"><defs><linearGradient x1="225.899" y1="165.98" x2="254.183" y2="194.264" gradientUnits="userSpaceOnUse" id="color-1"><stop offset="0" stop-color="#33bef0"/><stop offset="1" stop-color="#0a85d9"/></linearGradient><radialGradient cx="239.9992" cy="171.4016" r="3.98833" gradientUnits="userSpaceOnUse" id="color-2"><stop offset="0.516" stop-color="#000000"/><stop offset="1" stop-color="#000000" stop-opacity="0"/></radialGradient></defs><g transform="translate(-220.041,-160.122)"><g data-paper-data="{&quot;isPaintingLayer&quot;:true}" fill-rule="nonzero" stroke="none" stroke-width="1" stroke-linecap="butt" stroke-linejoin="miter" stroke-miterlimit="10" stroke-dasharray="" stroke-dashoffset="0" style="mix-blend-mode: normal"><g><path d="M260.041,180.122c0,11.045 -8.955,20 -20,20c-11.045,0 -20,-8.955 -20,-20c0,-11.045 8.955,-20 20,-20c11.045,0 20,8.955 20,20z" fill="url(#color-1)"/><path d="M237,191v-15c0,-0.552 0.448,-1 1,-1h4c0.552,0 1,0.448 1,1v15c0,0.552 -0.448,1 -1,1h-4c-0.552,0 -1,-0.448 -1,-1z" fill="#000000" opacity="0.05"/><path d="M237.5,190.774v-14.547c0,-0.402 0.326,-0.727 0.727,-0.727h3.547c0.402,0 0.727,0.326 0.727,0.727v14.546c0,0.402 -0.326,0.727 -0.727,0.727h-3.547c-0.402,0 -0.727,-0.325 -0.727,-0.726z" fill="#000000" opacity="0.07"/><path d="M236.012,171.402c0,-1.9932 1.78549,-3.609 3.988,-3.609c2.20251,0 3.988,1.6158 3.988,3.609c0,1.9932 -1.78549,3.609 -3.988,3.609c-2.20251,0 -3.988,-1.6158 -3.988,-3.609z" fill="url(#color-2)" opacity="0.15"/><path d="M237.35,171.344c0,-1.32 1.003,-2.344 2.65,-2.344c1.647,0 2.65,1.024 2.65,2.344c0,1.32 -0.95,2.388 -2.65,2.388c-1.7,0 -2.65,-1.068 -2.65,-2.388z" fill="#ffffff"/><path d="M238,191v-15h4v15z" fill="#ffffff"/></g></g></g></svg>