<svg version="1.1" xmlns="http://www.w3.org/2000/svg" xmlns:xlink="http://www.w3.org/1999/xlink" width="40.98402" height="53.83883" viewBox="0,0,40.98402,53.83883"><g transform="translate(-219.50799,-153.08059)"><g data-paper-data="{&quot;isPaintingLayer&quot;:true}" fill="#000000" fill-rule="nonzero" stroke="none" stroke-width="0.26458" stroke-linecap="butt" stroke-linejoin="miter" stroke-miterlimit="10" stroke-dasharray="" stroke-dashoffset="0" style="mix-blend-mode: normal"><path d="M250.13259,178.71455c3.32714,1.10902 5.8729,2.77261 7.63728,4.99068c1.81475,2.21808 2.72215,4.88986 2.72215,8.01533c0,3.07506 -0.83175,5.77207 -2.4953,8.09093c-1.66355,2.2685 -4.0581,4.03287 -7.18358,5.29314c-3.07506,1.20985 -6.70465,1.81479 -10.88873,1.81479c-6.35178,0 -11.34248,-1.3611 -14.97206,-4.08329c-3.62954,-2.7222 -5.44435,-6.42739 -5.44435,-11.11558c0,-3.17589 0.85698,-5.84767 2.57095,-8.01533c1.76438,-2.21808 4.31009,-3.88162 7.63724,-4.99068c-2.7222,-1.05865 -4.78903,-2.57095 -6.20054,-4.53699c-1.41151,-2.01642 -2.11724,-4.38574 -2.11724,-7.10794c0,-4.28491 1.66355,-7.68765 4.99068,-10.20818c3.37752,-2.52053 7.88931,-3.78083 13.53533,-3.78083c3.73038,0 6.98187,0.57971 9.75448,1.7392c2.82303,1.10902 5.01591,2.7222 6.57864,4.83944c1.56271,2.11724 2.3441,4.5874 2.3441,7.41039c0,2.7222 -0.73096,5.09152 -2.19285,7.10794c-1.46193,1.96604 -3.55399,3.47834 -6.27619,4.53699zM226.84278,167.22086c0,2.92381 1.15943,5.24272 3.47834,6.95669c2.31891,1.71396 5.51999,2.57095 9.60328,2.57095c4.08325,0 7.28437,-0.85698 9.60328,-2.57095c2.36928,-1.71396 3.55395,-4.00769 3.55395,-6.88108c0,-2.97423 -1.20985,-5.31837 -3.62959,-7.03233c-2.36928,-1.71396 -5.54517,-2.57095 -9.52763,-2.57095c-4.03287,0 -7.234,0.85698 -9.60328,2.57095c-2.31891,1.71396 -3.47834,4.03287 -3.47834,6.95669zM239.9244,202.30685c4.68819,0 8.34297,-0.95781 10.96438,-2.87344c2.67177,-1.91563 4.00764,-4.51176 4.00764,-7.78849c0,-3.27673 -1.33587,-5.84767 -4.00764,-7.71288c-2.62141,-1.91563 -6.27619,-2.87344 -10.96438,-2.87344c-4.63782,0 -8.29259,0.95781 -10.96438,2.87344c-2.62136,1.86522 -3.93205,4.43615 -3.93205,7.71288c0,3.32714 1.31069,5.9485 3.93205,7.86408c2.62136,1.86522 6.27614,2.79779 10.96438,2.79779z"/></g></g></svg>