<svg version="1.1" xmlns="http://www.w3.org/2000/svg" xmlns:xlink="http://www.w3.org/1999/xlink" width="33.83602" height="47.30345" viewBox="0,0,33.83602,47.30345"><g transform="translate(-222.36669,-155.34827)"><g data-paper-data="{&quot;isPaintingLayer&quot;:true}" fill="#000000" fill-rule="nonzero" stroke="none" stroke-width="0.26458" stroke-linecap="butt" stroke-linejoin="miter" stroke-miterlimit="10" stroke-dasharray="" stroke-dashoffset="0" style="mix-blend-mode: normal"><path d="M236.70511,174.57787c6.78955,0 11.72537,1.22836 14.80746,3.68511c3.12676,2.41208 4.69014,5.80683 4.69014,10.1843c0,2.72475 -0.64769,5.15914 -1.94304,7.30323c-1.25071,2.14408 -3.14912,3.84144 -5.69518,5.09216c-2.5461,1.20604 -5.67285,1.80905 -9.38028,1.80905c-3.35009,0 -6.54387,-0.53603 -9.58129,-1.60805c-2.99274,-1.11669 -5.40482,-2.59073 -7.23624,-4.42215l2.34509,-3.81913c1.56338,1.60805 3.61812,2.92576 6.16418,3.95314c2.5461,0.98272 5.29316,1.47404 8.24127,1.47404c3.88611,0 6.8789,-0.87101 8.97827,-2.61308c2.14408,-1.74207 3.21611,-4.0648 3.21611,-6.96821c0,-3.21611 -1.20604,-5.6505 -3.61812,-7.30323c-2.36741,-1.65273 -6.38754,-2.47907 -12.06035,-2.47907h-9.9833l2.41208,-23.51773h25.66178v4.28813h-21.44068l-1.60805,14.94148z"/></g></g></svg>