<svg version="1.1" xmlns="http://www.w3.org/2000/svg" xmlns:xlink="http://www.w3.org/1999/xlink" width="99.07916" height="32.78331" viewBox="0,0,99.07916,32.78331"><g transform="translate(-190.46042,-163.60834)"><g data-paper-data="{&quot;isPaintingLayer&quot;:true}" fill-rule="nonzero" stroke-linecap="butt" stroke-linejoin="miter" stroke-miterlimit="10" stroke-dasharray="" stroke-dashoffset="0" style="mix-blend-mode: normal"><path d="M191.21042,192.74483c0,-6.51759 0,-22.04391 0,-25.59689c0,-1.41652 1.1802,-2.7896 2.90383,-2.7896c1.18417,0 2.62481,0 4.11548,0c11.52138,0 72.45602,0 87.33946,0c2.10108,0 3.22039,0.98724 3.22039,2.59952c0,6.3687 0,22.49016 0,26.0404c0,1.35163 -1.01226,2.64339 -2.82844,2.64339c-14.88284,0 -83.75052,0 -91.97753,0c-1.57875,0 -2.77317,-1.10977 -2.77317,-2.89683z" fill-opacity="0.29804" fill="#fafafa" stroke="#ffffff" stroke-width="1.5"/><g fill="#ffffff" stroke="none" stroke-width="0.26459"><path d="M216.06484,184.69899c-0.88054,0 -1.7272,-0.14111 -2.54,-0.42333c-0.80151,-0.28222 -1.42239,-0.65476 -1.86266,-1.1176l0.49107,-0.9652c0.42897,0.42898 0.99906,0.77893 1.71026,1.04987c0.7112,0.25964 1.44497,0.38946 2.20133,0.38946c1.06115,0 1.85702,-0.19191 2.3876,-0.57573c0.53057,-0.39511 0.79586,-0.90311 0.79586,-1.52399c0,-0.47413 -0.14675,-0.85232 -0.44027,-1.13454c-0.28222,-0.28222 -0.63217,-0.4967 -1.04986,-0.64346c-0.41769,-0.15804 -0.99906,-0.32738 -1.74413,-0.508c-0.89182,-0.22578 -1.60302,-0.44027 -2.1336,-0.64347c-0.53057,-0.21448 -0.98777,-0.53621 -1.37159,-0.96519c-0.37254,-0.42898 -0.5588,-1.01035 -0.5588,-1.74413c0,-0.59832 0.15805,-1.14018 0.47413,-1.6256c0.31608,-0.49671 0.80151,-0.89183 1.45626,-1.18533c0.65476,-0.29352 1.46756,-0.44027 2.4384,-0.44027c0.67734,0 1.33774,0.09596 1.9812,0.28787c0.65476,0.18062 1.21919,0.43462 1.69333,0.762l-0.42334,0.99906c-0.49671,-0.32737 -1.02729,-0.57009 -1.59173,-0.72813c-0.56444,-0.16933 -1.11759,-0.254 -1.65946,-0.254c-1.03857,0 -1.82315,0.2032 -2.35373,0.6096c-0.51929,0.39512 -0.77893,0.90876 -0.77893,1.54093c0,0.47413 0.14111,0.85796 0.42333,1.15146c0.29352,0.28223 0.65476,0.50236 1.08373,0.6604c0.44027,0.14676 1.02729,0.31045 1.76107,0.49107c0.86924,0.21448 1.56914,0.42898 2.09972,0.64346c0.54186,0.2032 0.99906,0.51929 1.3716,0.94827c0.37254,0.41769 0.5588,0.98777 0.5588,1.71026c0,0.59832 -0.16368,1.14583 -0.49106,1.64253c-0.3161,0.48542 -0.80716,0.87488 -1.4732,1.1684c-0.66604,0.28222 -1.48449,0.42333 -2.45533,0.42333z"/><path d="M222.95669,175.69048h1.20226v8.90691h-1.20226zM223.56629,173.74315c-0.24836,0 -0.4572,-0.08467 -0.62653,-0.254c-0.16933,-0.16933 -0.254,-0.37253 -0.254,-0.6096c0,-0.22578 0.08466,-0.42334 0.254,-0.59267c0.16933,-0.16933 0.37817,-0.254 0.62653,-0.254c0.24836,0 0.4572,0.08467 0.62653,0.254c0.16933,0.15804 0.254,0.34996 0.254,0.57574c0,0.24836 -0.08467,0.4572 -0.254,0.62653c-0.16933,0.16933 -0.37817,0.254 -0.62653,0.254z"/><path d="M235.75825,175.69048v7.82318c0,1.51271 -0.37253,2.6303 -1.1176,3.3528c-0.73377,0.73378 -1.84572,1.10066 -3.33586,1.10066c-0.82409,0 -1.60867,-0.12418 -2.35373,-0.37253c-0.73377,-0.23707 -1.33208,-0.57009 -1.79493,-0.99907l0.6096,-0.9144c0.42898,0.38383 0.94826,0.68299 1.55786,0.89747c0.6209,0.21448 1.27,0.32173 1.94733,0.32173c1.12889,0 1.95862,-0.26529 2.4892,-0.79586c0.53057,-0.51929 0.79586,-1.3321 0.79586,-2.4384v-1.13453c-0.37252,0.56445 -0.86359,0.99343 -1.47319,1.28693c-0.59832,0.29352 -1.26436,0.44027 -1.99813,0.44027c-0.83538,0 -1.59738,-0.18062 -2.286,-0.54187c-0.67734,-0.37253 -1.21355,-0.88618 -1.60866,-1.54093c-0.38382,-0.66604 -0.57573,-1.41675 -0.57573,-2.25213c0,-0.83537 0.19191,-1.58044 0.57573,-2.23519c0.39511,-0.65475 0.93132,-1.16276 1.60866,-1.524c0.67734,-0.36124 1.43934,-0.54187 2.286,-0.54187c0.75635,0 1.43933,0.1524 2.04893,0.4572c0.6096,0.3048 1.10067,0.74506 1.47319,1.3208v-1.71026zM231.20319,183.19193c0.64346,0 1.22484,-0.13546 1.74413,-0.4064c0.51929,-0.28222 0.92005,-0.67169 1.20227,-1.1684c0.2935,-0.4967 0.44026,-1.06115 0.44026,-1.69333c0,-0.63217 -0.14676,-1.19097 -0.44026,-1.67639c-0.28222,-0.49671 -0.68298,-0.88053 -1.20227,-1.15147c-0.508,-0.28222 -1.08937,-0.42333 -1.74413,-0.42333c-0.64346,0 -1.22484,0.13546 -1.74413,0.4064c-0.508,0.27094 -0.90876,0.65476 -1.20226,1.15146c-0.28222,0.49671 -0.42334,1.06116 -0.42334,1.69333c0,0.63218 0.14112,1.19662 0.42334,1.69333c0.2935,0.49671 0.69426,0.88618 1.20226,1.1684c0.51929,0.27094 1.10066,0.4064 1.74413,0.4064z"/><path d="M243.66608,175.62274c1.1176,0 2.00377,0.32738 2.65853,0.98214c0.66604,0.64346 0.99906,1.58608 0.99906,2.82786v5.16465h-1.20226v-5.04612c0,-0.92568 -0.23142,-1.63124 -0.69427,-2.11666c-0.46284,-0.48542 -1.12324,-0.72813 -1.98119,-0.72813c-0.95956,0 -1.72156,0.28786 -2.286,0.86359c-0.55316,0.56445 -0.82973,1.34903 -0.82973,2.35373v4.67359h-1.20226v-8.90691h1.15146v1.64253c0.32738,-0.54187 0.77893,-0.95955 1.35467,-1.25307c0.58702,-0.3048 1.26435,-0.4572 2.03199,-0.4572z"/><path d="M255.28228,172.74408h1.25306v11.85331h-1.25306z"/><path d="M264.68023,175.62274c1.1176,0 2.00378,0.32738 2.65853,0.98214c0.66604,0.64346 0.99906,1.58608 0.99906,2.82786v5.16465h-1.20226v-5.04612c0,-0.92568 -0.23142,-1.63124 -0.69427,-2.11666c-0.46284,-0.48542 -1.12324,-0.72813 -1.98119,-0.72813c-0.95956,0 -1.72156,0.28786 -2.286,0.86359c-0.55315,0.56445 -0.82973,1.34903 -0.82973,2.35373v4.67359h-1.20226v-8.90691h1.15146v1.64253c0.32738,-0.54187 0.77894,-0.95955 1.35466,-1.25307c0.58702,-0.3048 1.26436,-0.4572 2.032,-0.4572z"/></g></g></g></svg>