<svg version="1.1" xmlns="http://www.w3.org/2000/svg" xmlns:xlink="http://www.w3.org/1999/xlink" width="28.00001" height="28.00001" viewBox="0,0,28.00001,28.00001"><defs><linearGradient x1="240" y1="170.33682" x2="240" y2="174.95774" gradientUnits="userSpaceOnUse" id="color-1"><stop offset="0" stop-color="#eba600"/><stop offset="1" stop-color="#c28200"/></linearGradient><linearGradient x1="240" y1="172.65371" x2="240" y2="189.4905" gradientUnits="userSpaceOnUse" id="color-2"><stop offset="0" stop-color="#ffd869"/><stop offset="1" stop-color="#fec52b"/></linearGradient></defs><g transform="translate(-225.99999,-165.99999)"><g data-paper-data="{&quot;isPaintingLayer&quot;:true}" fill-rule="nonzero" stroke="none" stroke-width="1" stroke-linecap="butt" stroke-linejoin="miter" stroke-miterlimit="10" stroke-dasharray="" stroke-dashoffset="0" style="mix-blend-mode: normal"><path d="M247.77778,194.00001h-15.55555c-3.43078,0 -6.22223,-2.79145 -6.22223,-6.22223v-15.55555c0,-3.43078 2.79145,-6.22223 6.22223,-6.22223h15.55555c3.43078,0 6.22223,2.79145 6.22223,6.22223v15.55555c0,3.43078 -2.79145,6.22223 -6.22223,6.22223z" fill="#f3f3f3"/><g><path d="M241.02153,172.73529h9.59612c0.6175,0 1.11765,0.50015 1.11765,1.11765v14.52941c0,0.6175 -0.50015,1.11765 -1.11765,1.11765h-21.23529c-0.6175,0 -1.11765,-0.50015 -1.11765,-1.11765v-16.76471c0,-0.6175 0.50015,-1.11765 1.11765,-1.11765h8.24656c0.44482,0 0.87121,0.17659 1.18526,0.49065l1.41718,1.41718c0.20956,0.20956 0.494,0.32747 0.79018,0.32747z" fill="url(#color-1)"/><path d="M238.651,174.64312l1.82624,-1.82624c0.05197,-0.05197 0.12294,-0.08159 0.19726,-0.08159h9.94315c0.6175,0 1.11765,0.50015 1.11765,1.11765v14.52941c0,0.6175 -0.50015,1.11765 -1.11765,1.11765h-21.23529c-0.6175,0 -1.11765,-0.50015 -1.11765,-1.11765v-13.13235c0,-0.15424 0.12518,-0.27941 0.27941,-0.27941h9.31671c0.29618,0 0.58062,-0.11791 0.79018,-0.32747z" fill="url(#color-2)"/></g></g></g></svg>