<svg version="1.1" xmlns="http://www.w3.org/2000/svg" xmlns:xlink="http://www.w3.org/1999/xlink" width="35.04379" height="48.32206" viewBox="0,0,35.04379,48.32206"><g transform="translate(-222.47812,-155.83897)"><g data-paper-data="{&quot;isPaintingLayer&quot;:true}" fill="#000000" fill-rule="nonzero" stroke="none" stroke-width="0.26458" stroke-linecap="butt" stroke-linejoin="miter" stroke-miterlimit="10" stroke-dasharray="" stroke-dashoffset="0" style="mix-blend-mode: normal"><path d="M257.5219,199.78056v4.38047h-33.60644v-3.4907l19.91746,-19.50679c2.50966,-2.46402 4.19797,-4.58581 5.0649,-6.36539c0.91261,-1.82517 1.36892,-3.65039 1.36892,-5.47558c0,-2.82906 -0.98104,-5.01931 -2.94312,-6.57072c-1.91645,-1.59705 -4.67707,-2.39555 -8.28184,-2.39555c-5.61248,0 -9.97015,1.77958 -13.07297,5.33871l-3.4907,-3.01156c1.87081,-2.19026 4.24357,-3.87853 7.11826,-5.0649c2.92033,-1.18637 6.20568,-1.77958 9.85609,-1.77958c4.88241,0 8.73814,1.16358 11.56719,3.4907c2.87469,2.28148 4.31203,5.42998 4.31203,9.44541c0,2.46402 -0.54757,4.83678 -1.64268,7.11826c-1.09511,2.28148 -3.1713,4.90521 -6.22848,7.87116l-16.28986,16.0161z"/></g></g></svg>