<svg version="1.1" xmlns="http://www.w3.org/2000/svg" xmlns:xlink="http://www.w3.org/1999/xlink" width="199.33334" height="99.33333" viewBox="0,0,199.33334,99.33333"><defs><linearGradient x1="155.10115" y1="165.68222" x2="176.31415" y2="186.89522" gradientUnits="userSpaceOnUse" id="color-1"><stop offset="0" stop-color="#33bef0"/><stop offset="1" stop-color="#0a85d9"/></linearGradient><radialGradient cx="165.6763" cy="169.74842" r="2.99124" gradientUnits="userSpaceOnUse" id="color-2"><stop offset="0.516" stop-color="#000000"/><stop offset="1" stop-color="#000000" stop-opacity="0"/></radialGradient></defs><g transform="translate(-140.33333,-130.33334)"><g data-paper-data="{&quot;isPaintingLayer&quot;:true}" fill-rule="nonzero" stroke-linejoin="miter" stroke-miterlimit="10" stroke-dasharray="" stroke-dashoffset="0" style="mix-blend-mode: normal"><path d="M140.33334,139.24373c0,-3.77141 4.23461,-8.91039 9.32271,-8.91039c19.68945,0 145.22888,0 180.69231,0c5.90995,0 9.31831,4.60491 9.31831,8.48823c0,11.07402 0,60.6756 0,80.32923c0,5.81648 -2.76093,10.51587 -9.70293,10.51587c-19.99619,0 -145.11352,0 -180.38462,0c-5.86505,0 -9.24579,-4.51329 -9.24579,-9.21598c0,0 0.00001,-70.31827 0.00001,-81.20697z" fill="#ffffff" stroke="#000000" stroke-width="0" stroke-linecap="butt"/><path d="M265.09441,218.08149c0,-4.11473 0,-13.91691 0,-16.16c0,-0.89429 0.72266,-1.76115 1.77808,-1.76115c0.72509,0 1.60723,0 2.52,0c7.05481,0 44.36652,0 53.48,0c1.28654,0 1.97192,0.62327 1.97192,1.64115c0,4.02073 0,14.19864 0,16.44c0,0.85332 -0.61983,1.66885 -1.73192,1.66885c-9.11311,0 -51.28241,0 -56.32,0c-0.96671,0 -1.69808,-0.70063 -1.69808,-1.82885z" fill="#fafafa" stroke="#0078d4" stroke-width="0.5" stroke-linecap="butt"/><g fill="#000000" stroke="none" stroke-width="0.26458" stroke-linecap="butt"><path d="M289.65993,215.17611c-1.17404,0 -2.24084,-0.25964 -3.20039,-0.77893c-0.94827,-0.53058 -1.69333,-1.25307 -2.2352,-2.16747c-0.53058,-0.91439 -0.79586,-1.94168 -0.79586,-3.08186c0,-1.14017 0.26529,-2.16746 0.79586,-3.08186c0.54187,-0.91439 1.28693,-1.63124 2.2352,-2.15053c0.95955,-0.53057 2.02635,-0.79586 3.20039,-0.79586c1.17404,0 2.22955,0.25964 3.16653,0.77893c0.94827,0.51929 1.69333,1.24177 2.2352,2.16746c0.54187,0.9144 0.8128,1.94169 0.8128,3.08186c0,1.14018 -0.27093,2.17311 -0.8128,3.0988c-0.54187,0.91439 -1.28693,1.63124 -2.2352,2.15053c-0.93698,0.51929 -1.99248,0.77893 -3.16653,0.77893zM289.65993,214.05851c0.93698,0 1.78364,-0.20884 2.54,-0.62653c0.75635,-0.42898 1.34902,-1.016 1.778,-1.76106c0.42898,-0.75636 0.64347,-1.59738 0.64347,-2.52307c0,-0.92569 -0.21449,-1.76106 -0.64347,-2.50612c-0.42898,-0.75636 -1.02164,-1.34338 -1.778,-1.76107c-0.75635,-0.42897 -1.60302,-0.64346 -2.54,-0.64346c-0.93698,0 -1.78929,0.21449 -2.55693,0.64346c-0.75635,0.41769 -1.35466,1.00471 -1.79493,1.76107c-0.42898,0.74506 -0.64347,1.58043 -0.64347,2.50612c0,0.92569 0.21449,1.76671 0.64347,2.52307c0.44027,0.74506 1.03858,1.33208 1.79493,1.76106c0.76764,0.41769 1.61995,0.62653 2.55693,0.62653z"/><path d="M302.35988,209.50345l-2.42146,2.45533v3.11573h-1.25306v-11.85331h1.25306v7.16278l6.95959,-7.16278h1.43933l-5.13079,5.36785l5.48639,6.48546h-1.49013z"/></g><g fill="#000000" stroke="none" stroke-width="0.26458" stroke-linecap="butt"><path d="M198.29267,183.23588c-1.17404,0 -2.2352,-0.25964 -3.18346,-0.77893c-0.93698,-0.51929 -1.6764,-1.23613 -2.21826,-2.15053c-0.53058,-0.92569 -0.79586,-1.95862 -0.79586,-3.09879c0,-1.14018 0.26529,-2.16747 0.79586,-3.08187c0.54187,-0.92569 1.28693,-1.64817 2.2352,-2.16746c0.94826,-0.51929 2.00942,-0.77893 3.18346,-0.77893c0.88053,0 1.69333,0.14676 2.4384,0.44027c0.74507,0.29351 1.37724,0.72248 1.89653,1.28693l-0.79586,0.79586c-0.92569,-0.93697 -2.09409,-1.40546 -3.50519,-1.40546c-0.93698,0 -1.78929,0.21449 -2.55693,0.64346c-0.76764,0.42898 -1.3716,1.016 -1.81186,1.76107c-0.42898,0.74506 -0.64346,1.58044 -0.64346,2.50613c0,0.92569 0.21449,1.76106 0.64346,2.50612c0.44027,0.74507 1.04422,1.33209 1.81186,1.76107c0.76764,0.42897 1.61995,0.64346 2.55693,0.64346c1.4224,0 2.59079,-0.47413 3.50519,-1.42239l0.79586,0.79586c-0.51929,0.56445 -1.15711,0.99907 -1.91346,1.30386c-0.74507,0.29351 -1.55786,0.44027 -2.43839,0.44027z"/><path d="M208.31717,183.21895c-0.85795,0 -1.63124,-0.19191 -2.31986,-0.57574c-0.68862,-0.39511 -1.23049,-0.93697 -1.6256,-1.62559c-0.39511,-0.68862 -0.59266,-1.46755 -0.59266,-2.3368c0,-0.86924 0.19755,-1.64817 0.59266,-2.33679c0.39511,-0.68862 0.93698,-1.22484 1.6256,-1.60867c0.68862,-0.38382 1.46191,-0.57573 2.31986,-0.57573c0.85795,0 1.63124,0.19191 2.31986,0.57573c0.68862,0.38383 1.22484,0.92005 1.60866,1.60867c0.39511,0.68862 0.59266,1.46755 0.59266,2.33679c0,0.86925 -0.19755,1.64818 -0.59266,2.3368c-0.38382,0.68862 -0.92004,1.23048 -1.60866,1.62559c-0.68862,0.38383 -1.46191,0.57574 -2.31986,0.57574zM208.31717,182.15215c0.63218,0 1.19662,-0.14111 1.69333,-0.42333c0.508,-0.29351 0.90311,-0.70556 1.18533,-1.23613c0.28222,-0.53058 0.42333,-1.13454 0.42333,-1.81187c0,-0.67733 -0.14111,-1.28129 -0.42333,-1.81186c-0.28222,-0.53058 -0.67733,-0.93698 -1.18533,-1.2192c-0.49671,-0.29351 -1.06115,-0.44026 -1.69333,-0.44026c-0.63218,0 -1.20226,0.14675 -1.71026,0.44026c-0.49671,0.28222 -0.89182,0.68862 -1.18533,1.2192c-0.28222,0.53057 -0.42333,1.13453 -0.42333,1.81186c0,0.67733 0.14111,1.28129 0.42333,1.81187c0.29351,0.53057 0.68862,0.94262 1.18533,1.23613c0.508,0.28222 1.07809,0.42333 1.71026,0.42333z"/><path d="M226.40192,174.15963c1.1176,0 1.99249,0.32173 2.62466,0.9652c0.64347,0.64347 0.9652,1.59173 0.9652,2.84479v5.16466h-1.20226v-5.04612c0,-0.92569 -0.22578,-1.63124 -0.67733,-2.11667c-0.44027,-0.48542 -1.0668,-0.72813 -1.8796,-0.72813c-0.92569,0 -1.65382,0.28787 -2.1844,0.8636c-0.53058,0.56445 -0.79587,1.34902 -0.79587,2.35373v4.67359h-1.20226v-5.04612c0,-0.92569 -0.22578,-1.63124 -0.67733,-2.11667c-0.44027,-0.48542 -1.07244,-0.72813 -1.89653,-0.72813c-0.9144,0 -1.64253,0.28787 -2.18439,0.8636c-0.53058,0.56445 -0.79587,1.34902 -0.79587,2.35373v4.67359h-1.20226v-8.90692h1.15146v1.6256c0.31609,-0.54187 0.75635,-0.95955 1.3208,-1.25306c0.56444,-0.29351 1.21355,-0.44027 1.94733,-0.44027c0.74506,0 1.38853,0.15804 1.9304,0.47413c0.55315,0.31609 0.9652,0.78458 1.23613,1.40547c0.32738,-0.58702 0.79586,-1.04422 1.40546,-1.3716c0.62089,-0.33867 1.32644,-0.508 2.11666,-0.508z"/><path d="M233.25988,174.22736h1.20226v8.90692h-1.20226zM233.86948,172.28004c-0.24835,0 -0.4572,-0.08467 -0.62653,-0.254c-0.16933,-0.16933 -0.254,-0.37253 -0.254,-0.6096c0,-0.22578 0.08467,-0.42334 0.254,-0.59267c0.16933,-0.16933 0.37818,-0.254 0.62653,-0.254c0.24836,0 0.4572,0.08467 0.62653,0.254c0.16933,0.15805 0.254,0.34996 0.254,0.57573c0,0.24836 -0.08467,0.45721 -0.254,0.62654c-0.16933,0.16933 -0.37818,0.254 -0.62653,0.254z"/><path d="M242.35305,174.15963c1.1176,0 2.00377,0.32738 2.65853,0.98213c0.66604,0.64347 0.99907,1.58609 0.99907,2.82786v5.16466h-1.20226v-5.04612c0,-0.92569 -0.23142,-1.63124 -0.69427,-2.11667c-0.46284,-0.48542 -1.12324,-0.72813 -1.9812,-0.72813c-0.95955,0 -1.72155,0.28787 -2.28599,0.8636c-0.55315,0.56445 -0.82973,1.34902 -0.82973,2.35373v4.67359h-1.20226v-8.90692h1.15146v1.64253c0.32738,-0.54186 0.77893,-0.95955 1.35466,-1.25306c0.58702,-0.3048 1.26435,-0.4572 2.032,-0.4572z"/><path d="M257.5591,174.22736v7.82319c0,1.51271 -0.37253,2.6303 -1.11759,3.35279c-0.73378,0.73378 -1.84573,1.10067 -3.33586,1.10067c-0.82409,0 -1.60866,-0.12418 -2.35373,-0.37254c-0.73378,-0.23706 -1.33209,-0.57008 -1.79493,-0.99906l0.6096,-0.9144c0.42898,0.38382 0.94826,0.68298 1.55786,0.89747c0.62089,0.21449 1.27,0.32173 1.94733,0.32173c1.12889,0 1.95862,-0.26529 2.4892,-0.79587c0.53057,-0.51929 0.79586,-1.33208 0.79586,-2.43839v-1.13453c-0.37253,0.56444 -0.8636,0.99342 -1.4732,1.28693c-0.59831,0.29351 -1.26435,0.44026 -1.99813,0.44026c-0.83537,0 -1.59737,-0.18062 -2.28599,-0.54186c-0.67733,-0.37253 -1.21356,-0.88618 -1.60867,-1.54093c-0.38382,-0.66605 -0.57573,-1.41676 -0.57573,-2.25213c0,-0.83537 0.19191,-1.58044 0.57573,-2.2352c0.39511,-0.65475 0.93133,-1.16275 1.60867,-1.52399c0.67733,-0.36125 1.43933,-0.54187 2.28599,-0.54187c0.75635,0 1.43933,0.1524 2.04893,0.4572c0.6096,0.3048 1.10067,0.74507 1.4732,1.3208v-1.71027zM253.00405,181.72882c0.64347,0 1.22484,-0.13547 1.74413,-0.4064c0.51929,-0.28223 0.92004,-0.67169 1.20226,-1.1684c0.29351,-0.49671 0.44027,-1.06116 0.44027,-1.69333c0,-0.63218 -0.14676,-1.19098 -0.44027,-1.6764c-0.28222,-0.49671 -0.68297,-0.88053 -1.20226,-1.15146c-0.508,-0.28222 -1.08938,-0.42333 -1.74413,-0.42333c-0.64347,0 -1.22484,0.13547 -1.74413,0.4064c-0.508,0.27093 -0.90876,0.65475 -1.20227,1.15146c-0.28222,0.49671 -0.42333,1.06115 -0.42333,1.69333c0,0.63217 0.14111,1.19662 0.42333,1.69333c0.29351,0.49671 0.69427,0.88617 1.20227,1.1684c0.51929,0.27093 1.10066,0.4064 1.74413,0.4064z"/><path d="M267.75292,183.21895c-0.72249,0 -1.41675,-0.1016 -2.0828,-0.3048c-0.65475,-0.21449 -1.1684,-0.47978 -1.54093,-0.79587l0.54187,-0.94826c0.37253,0.29351 0.84102,0.53622 1.40546,0.72813c0.56445,0.18062 1.15147,0.27093 1.76106,0.27093c0.8128,0 1.41111,-0.12418 1.79493,-0.37253c0.39511,-0.25965 0.59267,-0.62089 0.59267,-1.08373c0,-0.32738 -0.10724,-0.58138 -0.32173,-0.762c-0.21449,-0.19191 -0.48543,-0.33302 -0.8128,-0.42333c-0.32738,-0.1016 -0.762,-0.19756 -1.30387,-0.28787c-0.72249,-0.13547 -1.30386,-0.27093 -1.74413,-0.4064c-0.44026,-0.14675 -0.81844,-0.38946 -1.13453,-0.72813c-0.3048,-0.33867 -0.4572,-0.80715 -0.4572,-1.40546c0,-0.74507 0.31045,-1.35467 0.93134,-1.8288c0.62089,-0.47413 1.48448,-0.7112 2.59079,-0.7112c0.57573,0 1.15147,0.07902 1.7272,0.23707c0.57573,0.14675 1.04986,0.34431 1.42239,0.59266l-0.52493,0.9652c-0.73377,-0.508 -1.60866,-0.762 -2.62466,-0.762c-0.76764,0 -1.34902,0.13547 -1.74413,0.4064c-0.38382,0.27093 -0.57573,0.62653 -0.57573,1.0668c0,0.33867 0.10724,0.6096 0.32173,0.8128c0.22578,0.2032 0.50236,0.3556 0.82973,0.4572c0.32738,0.09031 0.77894,0.18626 1.35467,0.28786c0.71119,0.13547 1.28128,0.27093 1.71026,0.4064c0.42898,0.13547 0.79587,0.36689 1.10066,0.69427c0.3048,0.32737 0.4572,0.77893 0.4572,1.35466c0,0.77893 -0.32738,1.39982 -0.98213,1.86267c-0.64347,0.45155 -1.54093,0.67733 -2.69239,0.67733z"/><path d="M277.28634,183.21895c-0.85795,0 -1.63124,-0.19191 -2.31986,-0.57574c-0.68862,-0.39511 -1.23049,-0.93697 -1.6256,-1.62559c-0.39511,-0.68862 -0.59267,-1.46755 -0.59267,-2.3368c0,-0.86924 0.19756,-1.64817 0.59267,-2.33679c0.39511,-0.68862 0.93698,-1.22484 1.6256,-1.60867c0.68862,-0.38382 1.46191,-0.57573 2.31986,-0.57573c0.85795,0 1.63124,0.19191 2.31986,0.57573c0.68862,0.38383 1.22484,0.92005 1.60866,1.60867c0.39511,0.68862 0.59267,1.46755 0.59267,2.33679c0,0.86925 -0.19756,1.64818 -0.59267,2.3368c-0.38382,0.68862 -0.92004,1.23048 -1.60866,1.62559c-0.68862,0.38383 -1.46191,0.57574 -2.31986,0.57574zM277.28634,182.15215c0.63217,0 1.19662,-0.14111 1.69333,-0.42333c0.508,-0.29351 0.90311,-0.70556 1.18533,-1.23613c0.28222,-0.53058 0.42333,-1.13454 0.42333,-1.81187c0,-0.67733 -0.14111,-1.28129 -0.42333,-1.81186c-0.28222,-0.53058 -0.67733,-0.93698 -1.18533,-1.2192c-0.49671,-0.29351 -1.06116,-0.44026 -1.69333,-0.44026c-0.63218,0 -1.20227,0.14675 -1.71026,0.44026c-0.49671,0.28222 -0.89183,0.68862 -1.18534,1.2192c-0.28222,0.53057 -0.42333,1.13453 -0.42333,1.81186c0,0.67733 0.14111,1.28129 0.42333,1.81187c0.29351,0.53057 0.68863,0.94262 1.18534,1.23613c0.50799,0.28222 1.07808,0.42333 1.71026,0.42333z"/><path d="M287.9035,183.21895c-0.85795,0 -1.63124,-0.19191 -2.31986,-0.57574c-0.68862,-0.39511 -1.23049,-0.93697 -1.6256,-1.62559c-0.39511,-0.68862 -0.59266,-1.46755 -0.59266,-2.3368c0,-0.86924 0.19755,-1.64817 0.59266,-2.33679c0.39511,-0.68862 0.93698,-1.22484 1.6256,-1.60867c0.68862,-0.38382 1.46191,-0.57573 2.31986,-0.57573c0.85795,0 1.63124,0.19191 2.31987,0.57573c0.68862,0.38383 1.22484,0.92005 1.60866,1.60867c0.39511,0.68862 0.59266,1.46755 0.59266,2.33679c0,0.86925 -0.19755,1.64818 -0.59266,2.3368c-0.38382,0.68862 -0.92004,1.23048 -1.60866,1.62559c-0.68863,0.38383 -1.46192,0.57574 -2.31987,0.57574zM287.9035,182.15215c0.63218,0 1.19662,-0.14111 1.69333,-0.42333c0.508,-0.29351 0.90311,-0.70556 1.18533,-1.23613c0.28223,-0.53058 0.42334,-1.13454 0.42334,-1.81187c0,-0.67733 -0.14111,-1.28129 -0.42334,-1.81186c-0.28222,-0.53058 -0.67733,-0.93698 -1.18533,-1.2192c-0.49671,-0.29351 -1.06115,-0.44026 -1.69333,-0.44026c-0.63217,0 -1.20226,0.14675 -1.71026,0.44026c-0.49671,0.28222 -0.89182,0.68862 -1.18533,1.2192c-0.28222,0.53057 -0.42333,1.13453 -0.42333,1.81186c0,0.67733 0.14111,1.28129 0.42333,1.81187c0.29351,0.53057 0.68862,0.94262 1.18533,1.23613c0.508,0.28222 1.07809,0.42333 1.71026,0.42333z"/><path d="M299.41813,174.15963c1.11759,0 2.00377,0.32738 2.65852,0.98213c0.66605,0.64347 0.99907,1.58609 0.99907,2.82786v5.16466h-1.20227v-5.04612c0,-0.92569 -0.23142,-1.63124 -0.69426,-2.11667c-0.46285,-0.48542 -1.12325,-0.72813 -1.9812,-0.72813c-0.95955,0 -1.72155,0.28787 -2.28599,0.8636c-0.55315,0.56445 -0.82973,1.34902 -0.82973,2.35373v4.67359h-1.20227v-8.90692h1.15147v1.64253c0.32737,-0.54186 0.77893,-0.95955 1.35466,-1.25306c0.58702,-0.3048 1.26435,-0.4572 2.032,-0.4572z"/><path d="M306.46235,183.21895c-0.24835,0 -0.46284,-0.09031 -0.64347,-0.27094c-0.16933,-0.18062 -0.254,-0.40075 -0.254,-0.66039c0,-0.25965 0.08467,-0.47414 0.254,-0.64347c0.18063,-0.18062 0.39512,-0.27093 0.64347,-0.27093c0.24835,0 0.46284,0.09031 0.64346,0.27093c0.18063,0.16933 0.27094,0.38382 0.27094,0.64347c0,0.25964 -0.09031,0.47977 -0.27094,0.66039c-0.18062,0.18063 -0.39511,0.27094 -0.64346,0.27094z"/><path d="M310.05221,183.21895c-0.24836,0 -0.46285,-0.09031 -0.64347,-0.27094c-0.16933,-0.18062 -0.254,-0.40075 -0.254,-0.66039c0,-0.25965 0.08467,-0.47414 0.254,-0.64347c0.18062,-0.18062 0.39511,-0.27093 0.64347,-0.27093c0.24835,0 0.46284,0.09031 0.64346,0.27093c0.18062,0.16933 0.27093,0.38382 0.27093,0.64347c0,0.25964 -0.09031,0.47977 -0.27093,0.66039c-0.18062,0.18063 -0.39511,0.27094 -0.64346,0.27094z"/><path d="M313.64207,183.21895c-0.24836,0 -0.46285,-0.09031 -0.64347,-0.27094c-0.16933,-0.18062 -0.254,-0.40075 -0.254,-0.66039c0,-0.25965 0.08467,-0.47414 0.254,-0.64347c0.18062,-0.18062 0.39511,-0.27093 0.64347,-0.27093c0.24835,0 0.46284,0.09031 0.64346,0.27093c0.18062,0.16933 0.27093,0.38382 0.27093,0.64347c0,0.25964 -0.09031,0.47977 -0.27093,0.66039c-0.18062,0.18063 -0.39511,0.27094 -0.64346,0.27094z"/></g><g fill="#000000" stroke="none" stroke-width="0.26459" stroke-linecap="butt"><path d="M151.18993,145.55988c-0.59041,0 -1.15811,-0.09462 -1.70311,-0.28385c-0.53743,-0.18923 -0.95374,-0.43903 -1.24894,-0.74937l0.32926,-0.64718c0.28763,0.28764 0.66989,0.52229 1.14676,0.70395c0.47687,0.17409 0.96888,0.26115 1.47603,0.26115c0.71152,0 1.24516,-0.12868 1.60092,-0.38604c0.35576,-0.26493 0.53365,-0.60555 0.53365,-1.02186c0,-0.31791 -0.0984,-0.57149 -0.29521,-0.76073c-0.18923,-0.18923 -0.42388,-0.33305 -0.70395,-0.43145c-0.28007,-0.10597 -0.66989,-0.21951 -1.16947,-0.34062c-0.59798,-0.15139 -1.07485,-0.29521 -1.43061,-0.43146c-0.35576,-0.14381 -0.66231,-0.35954 -0.91967,-0.64718c-0.24979,-0.28763 -0.37468,-0.67746 -0.37468,-1.16947c0,-0.40117 0.10596,-0.7645 0.31791,-1.08998c0.21194,-0.33306 0.53743,-0.59798 0.97645,-0.79479c0.43902,-0.1968 0.98402,-0.29521 1.63499,-0.29521c0.45416,0 0.89697,0.06434 1.32843,0.19302c0.43902,0.12111 0.81749,0.29143 1.1354,0.51094l-0.28385,0.66989c-0.33305,-0.21952 -0.68881,-0.38225 -1.06728,-0.48822c-0.37847,-0.11354 -0.74937,-0.17031 -1.1127,-0.17031c-0.69638,0 -1.22245,0.13624 -1.57821,0.40874c-0.3482,0.26493 -0.52228,0.60933 -0.52228,1.03322c0,0.31791 0.09462,0.57527 0.28385,0.77208c0.19681,0.18923 0.43902,0.33684 0.72666,0.44281c0.29521,0.0984 0.68881,0.20816 1.18082,0.32926c0.58284,0.14382 1.05214,0.28764 1.4079,0.43145c0.36333,0.13625 0.66989,0.34819 0.91968,0.63583c0.24979,0.28007 0.37468,0.66232 0.37468,1.14676c0,0.40117 -0.10976,0.76829 -0.32927,1.10135c-0.21194,0.32548 -0.5412,0.58662 -0.9878,0.78343c-0.4466,0.18923 -0.99537,0.28385 -1.64634,0.28385z"/><path d="M160.71598,139.51952l-2.98612,6.68755c-0.24222,0.56014 -0.52229,0.95752 -0.8402,1.19217c-0.31791,0.23465 -0.70016,0.35198 -1.14676,0.35198c-0.28763,0 -0.55635,-0.04541 -0.80614,-0.13625c-0.24979,-0.09083 -0.46551,-0.22708 -0.64718,-0.40875l0.37468,-0.60177c0.30277,0.30277 0.6661,0.45416 1.08999,0.45416c0.2725,0 0.50336,-0.07569 0.6926,-0.22708c0.19681,-0.15139 0.37847,-0.40875 0.545,-0.77208l0.26114,-0.57906l-2.66821,-5.96088h0.8402l2.24811,5.07527l2.24811,-5.07527z"/><path d="M163.38418,145.54852c-0.48444,0 -0.94995,-0.06812 -1.39655,-0.20436c-0.43902,-0.14382 -0.78343,-0.3217 -1.03322,-0.53364l0.36333,-0.63583c0.24979,0.1968 0.56392,0.35954 0.94239,0.48822c0.37847,0.12111 0.77208,0.18167 1.18082,0.18167c0.545,0 0.94617,-0.08327 1.20353,-0.24979c0.26493,-0.17409 0.39739,-0.41632 0.39739,-0.72666c0,-0.21952 -0.0719,-0.38983 -0.21572,-0.51094c-0.14382,-0.12868 -0.32548,-0.2233 -0.545,-0.28385c-0.21951,-0.06813 -0.51094,-0.13246 -0.87427,-0.19302c-0.48444,-0.09083 -0.87426,-0.18166 -1.16947,-0.27249c-0.29521,-0.0984 -0.54878,-0.26114 -0.76073,-0.48822c-0.20437,-0.22708 -0.30656,-0.54121 -0.30656,-0.94239c0,-0.49957 0.20816,-0.90832 0.62447,-1.22624c0.41631,-0.31791 0.99537,-0.47687 1.73718,-0.47687c0.38603,0 0.77208,0.05299 1.15811,0.15896c0.38604,0.0984 0.70395,0.23086 0.95374,0.39739l-0.35197,0.64719c-0.49201,-0.34062 -1.07864,-0.51093 -1.75988,-0.51093c-0.51472,0 -0.90454,0.09083 -1.16947,0.27249c-0.25736,0.18167 -0.38604,0.4201 -0.38604,0.71531c0,0.22708 0.07191,0.40875 0.21573,0.545c0.15139,0.13625 0.33683,0.23844 0.55634,0.30656c0.21951,0.06055 0.5223,0.12489 0.90833,0.19302c0.47687,0.09083 0.85912,0.18167 1.14675,0.2725c0.28763,0.09083 0.53364,0.246 0.73802,0.46552c0.20437,0.21951 0.30656,0.52228 0.30656,0.90832c0,0.52229 -0.21951,0.9386 -0.65854,1.24894c-0.43145,0.30277 -1.03322,0.45416 -1.8053,0.45416z"/><path d="M170.48045,145.12841c-0.15139,0.13625 -0.34062,0.24221 -0.5677,0.31791c-0.21951,0.06812 -0.45038,0.10218 -0.6926,0.10218c-0.56014,0 -0.99159,-0.15139 -1.29436,-0.45416c-0.30277,-0.30277 -0.45416,-0.73044 -0.45416,-1.283v-3.6106h-1.06728v-0.68124h1.06728v-1.30571h0.80614v1.30571h1.81664v0.68124h-1.81664v3.56518c0,0.35576 0.08705,0.62825 0.26114,0.81749c0.18167,0.18167 0.43903,0.2725 0.77208,0.2725c0.16653,0 0.32549,-0.02649 0.47687,-0.07948c0.15895,-0.05299 0.2952,-0.12868 0.40874,-0.22709z"/><path d="M176.92953,142.75543h-4.99579c0.04541,0.62069 0.28385,1.12405 0.71531,1.51009c0.43145,0.37847 0.97645,0.5677 1.63499,0.5677c0.3709,0 0.71152,-0.06434 1.02187,-0.19302c0.31034,-0.13625 0.57906,-0.33305 0.80614,-0.59041l0.45416,0.52229c-0.26493,0.31791 -0.59797,0.56014 -0.99916,0.72666c-0.39361,0.16653 -0.82885,0.24978 -1.30571,0.24978c-0.61312,0 -1.15812,-0.12867 -1.63499,-0.38603c-0.4693,-0.26493 -0.83642,-0.62825 -1.10135,-1.08998c-0.26493,-0.46174 -0.39739,-0.98403 -0.39739,-1.56687c0,-0.58284 0.12489,-1.10513 0.37468,-1.56687c0.25736,-0.46173 0.60555,-0.82127 1.04457,-1.07863c0.4466,-0.25736 0.94617,-0.38604 1.49874,-0.38604c0.55256,0 1.04836,0.12868 1.48738,0.38604c0.43902,0.25736 0.78343,0.6169 1.03322,1.07863c0.24979,0.45416 0.37468,0.97645 0.37468,1.56687zM174.0456,140.1667c-0.57528,0 -1.05971,0.18544 -1.45332,0.55634c-0.38603,0.36333 -0.60555,0.8402 -0.65854,1.43061h4.23506c-0.05299,-0.59042 -0.27629,-1.06728 -0.66989,-1.43061c-0.38603,-0.3709 -0.87047,-0.55634 -1.45332,-0.55634z"/><path d="M186.03546,139.4741c0.74937,0 1.33599,0.21573 1.75988,0.64718c0.43145,0.43145 0.64719,1.06728 0.64719,1.90748v3.46299h-0.80614v-3.38352c0,-0.62069 -0.15139,-1.09377 -0.45416,-1.41925c-0.29521,-0.32548 -0.71531,-0.48822 -1.2603,-0.48822c-0.62069,0 -1.10891,0.19302 -1.46468,0.57906c-0.35576,0.37847 -0.53364,0.90454 -0.53364,1.57822v3.13372h-0.80615v-3.38352c0,-0.62069 -0.15139,-1.09377 -0.45416,-1.41925c-0.29521,-0.32548 -0.71909,-0.48822 -1.27165,-0.48822c-0.61311,0 -1.10134,0.19302 -1.46467,0.57906c-0.35576,0.37847 -0.53365,0.90454 -0.53365,1.57822v3.13372h-0.80613v-5.97224h0.77208v1.08999c0.21194,-0.36333 0.50715,-0.6434 0.88562,-0.8402c0.37847,-0.19681 0.81371,-0.29521 1.30572,-0.29521c0.49958,0 0.93104,0.10598 1.29436,0.31791c0.3709,0.21194 0.64718,0.52607 0.82885,0.94239c0.21951,-0.39361 0.53364,-0.70017 0.94239,-0.91968c0.41631,-0.22708 0.8894,-0.34062 1.41926,-0.34062z"/></g><g stroke="none" stroke-width="1" stroke-linecap="butt"><path d="M180.70765,176.28872c0,8.28375 -6.71625,15 -15,15c-8.28375,0 -15,-6.71625 -15,-15c0,-8.28375 6.71625,-15 15,-15c8.28375,0 15,6.71625 15,15z" fill="url(#color-1)"/><path d="M163.4269,184.44722v-11.25c0,-0.414 0.336,-0.75 0.75,-0.75h3c0.414,0 0.75,0.336 0.75,0.75v11.25c0,0.414 -0.336,0.75 -0.75,0.75h-3c-0.414,0 -0.75,-0.336 -0.75,-0.75z" fill="#000000" opacity="0.05"/><path d="M163.8019,184.27772v-10.91025c0,-0.3015 0.2445,-0.54525 0.54525,-0.54525h2.66025c0.3015,0 0.54525,0.2445 0.54525,0.54525v10.9095c0,0.3015 -0.2445,0.54525 -0.54525,0.54525h-2.66025c-0.3015,0 -0.54525,-0.24375 -0.54525,-0.5445z" fill="#000000" opacity="0.07"/><path d="M162.6859,169.74872c0,-1.4949 1.33912,-2.70675 2.991,-2.70675c1.65188,0 2.991,1.21185 2.991,2.70675c0,1.4949 -1.33912,2.70675 -2.991,2.70675c-1.65188,0 -2.991,-1.21185 -2.991,-2.70675z" fill="url(#color-2)" opacity="0.15"/><path d="M163.6894,169.70522c0,-0.99 0.75225,-1.758 1.9875,-1.758c1.23525,0 1.9875,0.768 1.9875,1.758c0,0.99 -0.7125,1.791 -1.9875,1.791c-1.275,0 -1.9875,-0.801 -1.9875,-1.791z" fill="#ffffff"/><path d="M164.1769,184.44722v-11.25h3v11.25z" fill="#ffffff"/></g><g fill="none" stroke="#2c2c2c" stroke-width="1" stroke-linecap="round"><path d="M323.69443,136.63892l7.94445,7.94445"/><path d="M331.63888,136.63893l-7.94445,7.94445"/></g></g></g></svg>