<svg version="1.1" xmlns="http://www.w3.org/2000/svg" xmlns:xlink="http://www.w3.org/1999/xlink" width="357.82252" height="60.22387" viewBox="0,0,357.82252,60.22387"><g transform="translate(-118.51963,-155.76134)"><g data-paper-data="{&quot;isPaintingLayer&quot;:true}" fill="#000000" fill-rule="nonzero" stroke="none" stroke-width="0.26459" stroke-linecap="butt" stroke-linejoin="miter" stroke-miterlimit="10" stroke-dasharray="" stroke-dashoffset="0" style="mix-blend-mode: normal"><g><path d="M149.11158,203.24924l-10.23998,-14.39997c-1.15199,0.128 -2.34667,0.192 -3.584,0.192h-12.03197v14.20797h-4.73599v-44.79991h16.76797c5.71733,0 10.19732,1.36533 13.43998,4.096c3.24266,2.73066 4.86399,6.48532 4.86399,11.26398c0,3.49866 -0.896,6.46399 -2.688,8.89598c-1.74933,2.38933 -4.26666,4.11732 -7.55199,5.18399l10.94398,15.35997zM135.1596,185.00928c4.43732,0 7.82932,-0.98133 10.17598,-2.94399c2.34666,-1.96267 3.51999,-4.71466 3.51999,-8.25599c0,-3.62666 -1.17333,-6.39999 -3.51999,-8.31999c-2.34666,-1.96266 -5.73865,-2.94399 -10.17598,-2.94399h-11.90398v22.46396z"/><path d="M193.14346,187.82527h-28.15994c0.256,3.49866 1.6,6.33599 4.03199,8.51198c2.43199,2.13333 5.50399,3.19999 9.21598,3.19999c2.09067,0 4.01066,-0.36266 5.75999,-1.08799c1.74933,-0.768 3.264,-1.87733 4.54399,-3.32799l2.56,2.94399c-1.49333,1.79199 -3.37065,3.15733 -5.63198,4.09599c-2.21866,0.93867 -4.672,1.408 -7.35999,1.408c-3.45599,0 -6.52799,-0.72533 -9.21598,-2.176c-2.64533,-1.49333 -4.71466,-3.54133 -6.20799,-6.14399c-1.49333,-2.60266 -2.23999,-5.54665 -2.23999,-8.83198c0,-3.28532 0.704,-6.22932 2.11199,-8.83198c1.45067,-2.60266 3.41332,-4.62932 5.88799,-6.07998c2.51733,-1.45067 5.33333,-2.176 8.44799,-2.176c3.11466,0 5.90933,0.72533 8.38398,2.176c2.47466,1.45067 4.41599,3.47732 5.82398,6.07998c1.408,2.56 2.11199,5.50399 2.11199,8.83198zM176.88749,173.2333c-3.24266,0 -5.97332,1.04533 -8.19198,3.13599c-2.176,2.048 -3.41332,4.736 -3.71199,8.06399h23.87195c-0.29867,-3.32799 -1.55732,-6.01599 -3.77599,-8.06399c-2.176,-2.09066 -4.90666,-3.13599 -8.19198,-3.13599z"/><path d="M216.4393,203.56925c-3.32799,0 -6.31466,-0.72533 -8.95999,-2.176c-2.60266,-1.45067 -4.65066,-3.47733 -6.14399,-6.07999c-1.49333,-2.64533 -2.23999,-5.61066 -2.23999,-8.89598c0,-3.28532 0.74666,-6.22932 2.23999,-8.83198c1.49333,-2.60266 3.54133,-4.62932 6.14399,-6.07998c2.64533,-1.45067 5.632,-2.176 8.95999,-2.176c2.90132,0 5.48265,0.576 7.74398,1.72799c2.30399,1.10933 4.11733,2.752 5.43999,4.928l-3.39199,2.30399c-1.10933,-1.66399 -2.51733,-2.90133 -4.224,-3.71199c-1.70666,-0.85333 -3.56266,-1.27999 -5.56799,-1.27999c-2.43199,0 -4.62932,0.55467 -6.59199,1.664c-1.91999,1.06667 -3.43466,2.60266 -4.54399,4.60799c-1.06667,2.00533 -1.6,4.28799 -1.6,6.84798c0,2.60267 0.53333,4.90666 1.6,6.91199c1.10933,1.96267 2.624,3.49865 4.54399,4.60798c1.96267,1.06667 4.16,1.6 6.59199,1.6c2.00533,0 3.86132,-0.40533 5.56799,-1.216c1.70666,-0.81066 3.11467,-2.048 4.224,-3.71199l3.39199,2.30399c-1.32266,2.176 -3.136,3.83999 -5.43999,4.99199c-2.30399,1.10933 -4.88532,1.664 -7.74398,1.664z"/><path d="M266.29509,169.58531l-16.83197,37.69592c-1.36533,3.15733 -2.944,5.39732 -4.73599,6.71999c-1.79199,1.32266 -3.94665,1.98399 -6.46398,1.98399c-1.62133,0 -3.13599,-0.256 -4.54399,-0.768c-1.408,-0.512 -2.624,-1.27999 -3.648,-2.30399l2.112,-3.392c1.70666,1.70666 3.75466,2.56 6.14398,2.56c1.536,0 2.83733,-0.42667 3.904,-1.28c1.10933,-0.85333 2.13333,-2.304 3.072,-4.35199l1.47199,-3.26399l-15.03997,-33.59994h4.73599l12.67197,28.60795l12.67197,-28.60795z"/><path d="M285.68696,203.56925c-3.32799,0 -6.31466,-0.72533 -8.95999,-2.176c-2.60266,-1.45067 -4.65065,-3.47733 -6.14398,-6.07999c-1.49333,-2.64533 -2.24,-5.61066 -2.24,-8.89598c0,-3.28532 0.74667,-6.22932 2.24,-8.83198c1.49333,-2.60266 3.54132,-4.62932 6.14398,-6.07998c2.64533,-1.45067 5.632,-2.176 8.95999,-2.176c2.90133,0 5.48266,0.576 7.74399,1.72799c2.30399,1.10933 4.11732,2.752 5.43999,4.928l-3.39199,2.30399c-1.10933,-1.66399 -2.51733,-2.90133 -4.22399,-3.71199c-1.70666,-0.85333 -3.56266,-1.27999 -5.56799,-1.27999c-2.43199,0 -4.62932,0.55467 -6.59199,1.664c-1.91999,1.06667 -3.43466,2.60266 -4.54399,4.60799c-1.06667,2.00533 -1.59999,4.28799 -1.59999,6.84798c0,2.60267 0.53333,4.90666 1.59999,6.91199c1.10933,1.96267 2.624,3.49865 4.54399,4.60798c1.96267,1.06667 4.16,1.6 6.59199,1.6c2.00533,0 3.86133,-0.40533 5.56799,-1.216c1.70666,-0.81066 3.11466,-2.048 4.22399,-3.71199l3.39199,2.30399c-1.32266,2.176 -3.13599,3.83999 -5.43999,4.99199c-2.30399,1.10933 -4.88533,1.664 -7.74399,1.664z"/><path d="M307.25481,155.76134h4.54399v47.4879h-4.54399z"/><path d="M353.78266,187.82527h-28.15994c0.25599,3.49866 1.6,6.33599 4.03199,8.51198c2.43199,2.13333 5.50399,3.19999 9.21598,3.19999c2.09066,0 4.01066,-0.36266 5.75999,-1.08799c1.74933,-0.768 3.264,-1.87733 4.54399,-3.32799l2.56,2.94399c-1.49333,1.79199 -3.37066,3.15733 -5.63199,4.09599c-2.21866,0.93867 -4.67199,1.408 -7.35998,1.408c-3.45599,0 -6.52799,-0.72533 -9.21598,-2.176c-2.64533,-1.49333 -4.71466,-3.54133 -6.20799,-6.14399c-1.49333,-2.60266 -2.23999,-5.54665 -2.23999,-8.83198c0,-3.28532 0.704,-6.22932 2.11199,-8.83198c1.45067,-2.60266 3.41332,-4.62932 5.88799,-6.07998c2.51733,-1.45067 5.33332,-2.176 8.44798,-2.176c3.11466,0 5.90932,0.72533 8.38399,2.176c2.47466,1.45067 4.41599,3.47732 5.82399,6.07998c1.408,2.56 2.11199,5.50399 2.11199,8.83198zM337.52669,173.2333c-3.24266,0 -5.97332,1.04533 -8.19198,3.13599c-2.176,2.048 -3.41333,4.736 -3.71199,8.06399h23.87195c-0.29867,-3.32799 -1.55733,-6.01599 -3.77599,-8.06399c-2.176,-2.09066 -4.90666,-3.13599 -8.19199,-3.13599z"/><path d="M409.07838,180.14529c2.94399,0.64 5.20532,1.92 6.78398,3.83999c1.62133,1.87733 2.432,4.30933 2.432,7.29599c0,3.83999 -1.42933,6.80532 -4.28799,8.89598c-2.81599,2.048 -6.99732,3.07199 -12.54397,3.07199h-20.60796v-44.79991h19.32797c4.99199,0 8.85332,1.00267 11.58398,3.008c2.77333,2.00533 4.15999,4.84266 4.15999,8.51198c0,2.47467 -0.61866,4.58666 -1.856,6.33598c-1.19466,1.70666 -2.85866,2.98666 -4.99199,3.83999zM385.59043,162.35332v16.25597h14.27197c3.62666,0 6.42133,-0.68267 8.38399,-2.048c1.96267,-1.408 2.94399,-3.43466 2.94399,-6.07998c0,-2.64533 -0.98133,-4.65066 -2.94399,-6.01599c-1.96266,-1.408 -4.75733,-2.112 -8.38399,-2.112zM401.3984,199.34525c4.01066,0 7.03998,-0.68267 9.08798,-2.048c2.048,-1.36533 3.072,-3.49866 3.072,-6.39999c0,-5.58932 -4.05332,-8.38398 -12.15997,-8.38398h-15.80797v16.83197z"/><path d="M428.15035,169.58531h4.54397v33.66393h-4.54397zM430.45435,162.22532c-0.93866,0 -1.72799,-0.32 -2.36799,-0.95999c-0.64,-0.64 -0.96,-1.408 -0.96,-2.30399c0,-0.85333 0.32,-1.6 0.96,-2.24c0.64,-0.63999 1.42933,-0.95999 2.36799,-0.95999c0.93866,0 1.72798,0.32 2.36798,0.95999c0.64,0.59733 0.96,1.32266 0.96,2.176c0,0.93867 -0.32,1.728 -0.96,2.368c-0.64,0.63999 -1.42932,0.95999 -2.36798,0.95999z"/><path d="M462.51819,169.32931c4.224,0 7.57333,1.23733 10.04799,3.712c2.51732,2.43199 3.77598,5.99465 3.77598,10.68798v19.51995h-4.54398v-19.07196c0,-3.49866 -0.87466,-6.16532 -2.62397,-7.99998c-1.74934,-1.83466 -4.24534,-2.75199 -7.488,-2.75199c-3.62666,0 -6.50666,1.088 -8.64,3.26399c-2.09066,2.13333 -3.13599,5.09866 -3.13599,8.89598v17.66396h-4.54397v-33.66393h4.35197v6.20799c1.23734,-2.048 2.94401,-3.62667 5.12001,-4.736c2.21866,-1.15199 4.77865,-1.72799 7.67996,-1.72799z"/></g></g></g></svg>