<svg version="1.1" xmlns="http://www.w3.org/2000/svg" xmlns:xlink="http://www.w3.org/1999/xlink" width="39.12321" height="52.95768" viewBox="0,0,39.12321,52.95768"><g transform="translate(-220.43839,-153.52116)"><g data-paper-data="{&quot;isPaintingLayer&quot;:true}" fill="#000000" fill-rule="nonzero" stroke="none" stroke-width="0.26458" stroke-linecap="butt" stroke-linejoin="miter" stroke-miterlimit="10" stroke-dasharray="" stroke-dashoffset="0" style="mix-blend-mode: normal"><path d="M238.21491,153.52121c6.89241,0 12.17333,2.28096 15.84265,6.84282c3.66937,4.51232 5.50405,10.90887 5.50405,19.1897c0,5.80155 -0.99173,10.71055 -2.97518,14.72697c-1.98341,4.01646 -4.76023,7.06596 -8.33037,9.1486c-3.57018,2.033 -7.73541,3.04955 -12.49565,3.04955c-5.15691,0 -9.27255,-0.94214 -12.34687,-2.82641l2.157,-4.31396c2.47928,1.63632 5.8511,2.4545 10.11551,2.4545c5.75196,0 10.26424,-1.80987 13.53692,-5.42964c3.27268,-3.66937 4.909,-8.97501 4.909,-15.91706c0,-1.28923 -0.07436,-2.70241 -0.22314,-4.23959c-1.28923,2.82641 -3.34705,5.03296 -6.17346,6.61969c-2.82641,1.53714 -6.07428,2.30573 -9.7436,2.30573c-3.42141,0 -6.47096,-0.64459 -9.1486,-1.93382c-2.62805,-1.28923 -4.68582,-3.09909 -6.17341,-5.42964c-1.48759,-2.38014 -2.23137,-5.13214 -2.23137,-8.25605c0,-3.1735 0.76859,-5.9751 2.30573,-8.40478c1.53718,-2.42968 3.64459,-4.28918 6.32219,-5.57841c2.72723,-1.33882 5.77678,-2.00823 9.1486,-2.00823zM238.80995,180.59509c2.62805,0 4.93378,-0.49586 6.91719,-1.48759c2.03305,-0.99173 3.61978,-2.35532 4.76023,-4.09082c1.1405,-1.7355 1.71073,-3.66937 1.71073,-5.80155c0,-1.98341 -0.54545,-3.81809 -1.63632,-5.504c-1.04132,-1.68591 -2.60327,-3.04955 -4.68587,-4.09082c-2.08259,-1.04132 -4.56191,-1.56196 -7.43787,-1.56196c-3.7685,0 -6.84282,1.04132 -9.22296,3.12391c-2.3305,2.033 -3.49578,4.76023 -3.49578,8.18164c0,3.42141 1.16527,6.14864 3.49578,8.18164c2.38014,2.033 5.57841,3.04955 9.59487,3.04955z"/></g></g></svg>