<svg version="1.1" xmlns="http://www.w3.org/2000/svg" xmlns:xlink="http://www.w3.org/1999/xlink" width="36.5" height="36.5" viewBox="0,0,36.5,36.5"><defs><linearGradient x1="230.98268" y1="178.3721" x2="234.65366" y2="199.19261" gradientUnits="userSpaceOnUse" id="color-1"><stop offset="0" stop-color="#0176d3"/><stop offset="0.998" stop-color="#185899"/></linearGradient><linearGradient x1="245.34634" y1="160.80739" x2="249.01733" y2="181.6279" gradientUnits="userSpaceOnUse" id="color-2"><stop offset="0" stop-color="#4fe2ff"/><stop offset="0.998" stop-color="#27aded"/></linearGradient><linearGradient x1="229.54093" y1="163.30946" x2="232.71095" y2="181.28571" gradientUnits="userSpaceOnUse" id="color-3"><stop offset="0" stop-color="#20a3e7"/><stop offset="0.998" stop-color="#1287d9"/></linearGradient><linearGradient x1="247.28905" y1="178.71429" x2="250.45908" y2="196.69054" gradientUnits="userSpaceOnUse" id="color-4"><stop offset="0" stop-color="#1795e0"/><stop offset="0.998" stop-color="#218cd0"/></linearGradient><linearGradient x1="238.27811" y1="170.2326" x2="241.72189" y2="189.7674" gradientUnits="userSpaceOnUse" id="color-5"><stop offset="0.002" stop-color="#cdeffd"/><stop offset="1" stop-color="#c1d8ef"/></linearGradient><linearGradient x1="237.6494" y1="166.66655" x2="242.3506" y2="193.33345" gradientUnits="userSpaceOnUse" id="color-6"><stop offset="0" stop-color="#ffffff"/><stop offset="0.998" stop-color="#dedcdd"/></linearGradient><linearGradient x1="239.52459" y1="177.30356" x2="240.47541" y2="182.69644" gradientUnits="userSpaceOnUse" id="color-7"><stop offset="0" stop-color="#28a7e1"/><stop offset="0.998" stop-color="#156fbb"/></linearGradient></defs><g transform="translate(-221.75,-161.75)"><g data-paper-data="{&quot;isPaintingLayer&quot;:true}" fill-rule="nonzero" stroke="none" stroke-width="1" stroke-linecap="butt" stroke-linejoin="miter" stroke-miterlimit="10" stroke-dasharray="" stroke-dashoffset="0" style="mix-blend-mode: normal"><g><path d="M240,198.25c-10.07856,0 -18.25,-8.17144 -18.25,-18.25l19.1625,-0.9125z" fill="url(#color-1)"/><path d="M240,161.75c10.07856,0 18.25,8.17144 18.25,18.25l-19.1625,0.9125z" fill="url(#color-2)"/><path d="M240,180h-18.25c0,-10.07856 8.17144,-18.25 18.25,-18.25z" fill="url(#color-3)"/><path d="M240,180h18.25c0,10.07856 -8.17144,18.25 -18.25,18.25z" fill="url(#color-4)"/><g><path d="M252.09884,167.90025c0.73456,0.73548 0.90976,1.8104 0.44439,2.74024l-6.25245,12.5049c-0.67616,1.35232 -1.79306,2.46922 -3.14539,3.14539l-12.5049,6.25245c-0.93075,0.46537 -2.00568,0.28926 -2.74024,-0.44439c-0.73456,-0.73548 -0.90976,-1.8104 -0.44439,-2.74024l6.25245,-12.5049c0.67616,-1.35232 1.79306,-2.47014 3.14539,-3.14539l12.5049,-6.25245c0.34584,-0.17246 0.71175,-0.25733 1.0731,-0.25733c0.61046,0 1.20541,0.2409 1.66714,0.70171z" fill="#000000" opacity="0.05"/><path d="M251.77673,168.22327c0.59313,0.59404 0.73456,1.46274 0.35953,2.21373l-6.25245,12.5049c-0.63236,1.26472 -1.67718,2.30954 -2.9419,2.9419l-12.5049,6.25154c-0.75099,0.37595 -1.61969,0.2336 -2.21373,-0.35952c-0.59312,-0.59404 -0.73456,-1.46274 -0.35952,-2.21373l6.25245,-12.5049c0.63236,-1.26472 1.67717,-2.30954 2.9419,-2.9419l12.5049,-6.25154c0.27923,-0.13961 0.57487,-0.20805 0.86687,-0.20805c0.49275,0.00091 0.97364,0.19527 1.34685,0.56757z" fill="#000000" opacity="0.05"/><path d="M242.7375,185.475l-12.5049,6.25245c-1.2556,0.6278 -2.58785,-0.70445 -1.96005,-1.96005l6.25245,-12.5049c0.59221,-1.18442 1.55307,-2.14529 2.7375,-2.7375l12.5049,-6.25245c1.2556,-0.6278 2.58785,0.70445 1.96005,1.96005l-6.25245,12.5049c-0.59221,1.18443 -1.55307,2.14529 -2.7375,2.7375z" fill="url(#color-5)"/></g><g><path d="M250.4317,192.80055c-0.36135,0 -0.72635,-0.08395 -1.0731,-0.25733l-12.5049,-6.25245c-1.35232,-0.67616 -2.47014,-1.79306 -3.14539,-3.14539l-6.25245,-12.5049c-0.46446,-0.92984 -0.29017,-2.00476 0.44439,-2.74024c0.73456,-0.73365 1.80949,-0.91068 2.74024,-0.44439l12.5049,6.25245c1.35233,0.67616 2.47014,1.79306 3.14539,3.14539l6.25245,12.5049c0.46446,0.92984 0.29018,2.00476 -0.44439,2.74024c-0.46173,0.46173 -1.05668,0.70171 -1.66714,0.70171z" fill="#000000" opacity="0.05"/><path d="M250.42987,192.34339c-0.29109,0 -0.58765,-0.06844 -0.86687,-0.20805l-12.5049,-6.25245c-1.26473,-0.63236 -2.30954,-1.67718 -2.9419,-2.9419l-6.25154,-12.50399c-0.37504,-0.75099 -0.23451,-1.61969 0.35952,-2.21373c0.59404,-0.59312 1.46274,-0.73456 2.21372,-0.35952l12.5049,6.25245c1.26473,0.63236 2.30954,1.67718 2.9419,2.9419l6.25245,12.5049c0.37504,0.75099 0.23451,1.61969 -0.35952,2.21372c-0.37412,0.3723 -0.85501,0.56666 -1.34776,0.56666z" fill="#000000" opacity="0.05"/><path d="M245.475,177.2625l6.25245,12.5049c0.6278,1.2556 -0.70445,2.58785 -1.96005,1.96005l-12.5049,-6.25245c-1.18443,-0.59221 -2.14529,-1.55307 -2.7375,-2.7375l-6.25245,-12.5049c-0.6278,-1.2556 0.70445,-2.58785 1.96005,-1.96005l12.5049,6.25245c1.18442,0.59221 2.14529,1.55307 2.7375,2.7375z" fill="url(#color-6)"/></g><path d="M237.2625,180c0,-1.51188 1.22562,-2.7375 2.7375,-2.7375c1.51188,0 2.7375,1.22562 2.7375,2.7375c0,1.51188 -1.22562,2.7375 -2.7375,2.7375c-1.51188,0 -2.7375,-1.22562 -2.7375,-2.7375z" fill="url(#color-7)"/></g></g></g></svg>