<?xml version="1.0" encoding="UTF-8" standalone="no"?>
<!-- Created with Inkscape (http://www.inkscape.org/) -->

<svg
   width="210mm"
   height="297mm"
   viewBox="0 0 210 297"
   version="1.1"
   id="svg17654"
   inkscape:version="1.1 (c68e22c387, 2021-05-23)"
   sodipodi:docname="drawing-7.svg"
   xmlns:inkscape="http://www.inkscape.org/namespaces/inkscape"
   xmlns:sodipodi="http://sodipodi.sourceforge.net/DTD/sodipodi-0.dtd"
   xmlns="http://www.w3.org/2000/svg"
   xmlns:svg="http://www.w3.org/2000/svg">
  <sodipodi:namedview
     id="namedview17656"
     pagecolor="#ffffff"
     bordercolor="#666666"
     borderopacity="1.0"
     inkscape:pageshadow="2"
     inkscape:pageopacity="0.0"
     inkscape:pagecheckerboard="0"
     inkscape:document-units="mm"
     showgrid="false"
     inkscape:zoom="0.72880595"
     inkscape:cx="396.53902"
     inkscape:cy="561.1919"
     inkscape:window-width="1600"
     inkscape:window-height="796"
     inkscape:window-x="-8"
     inkscape:window-y="-8"
     inkscape:window-maximized="1"
     inkscape:current-layer="layer1" />
  <defs
     id="defs17651" />
  <g
     inkscape:label="Layer 1"
     inkscape:groupmode="layer"
     id="layer1">
    <g
       id="text19674"
       style="font-size:16.9333px;line-height:1.25;font-family:Montserrat;-inkscape-font-specification:Montserrat;stroke-width:0.264583" />
    <g
       aria-label="Coming soon..."
       id="text22586"
       style="font-size:16.9333px;line-height:1.25;font-family:Montserrat;-inkscape-font-specification:Montserrat;stroke-width:0.264583">
      <path
         d="m 48.464312,157.2965 q -1.761063,0 -3.183461,-0.77893 -1.405464,-0.77893 -2.218262,-2.15053 -0.795865,-1.38853 -0.795865,-3.09879 0,-1.71027 0.795865,-3.08187 0.812798,-1.38853 2.235196,-2.16746 1.422397,-0.77893 3.18346,-0.77893 1.320797,0 2.438395,0.44027 1.117598,0.44026 1.89653,1.28693 l -0.795865,0.79586 q -1.388531,-1.40546 -3.505193,-1.40546 -1.405464,0 -2.556929,0.64346 -1.151464,0.64347 -1.811863,1.76107 -0.643465,1.11759 -0.643465,2.50613 0,1.38853 0.643465,2.50612 0.660399,1.1176 1.811863,1.76107 1.151465,0.64346 2.556929,0.64346 2.133595,0 3.505193,-1.42239 l 0.795865,0.79586 q -0.778932,0.84667 -1.913463,1.30386 -1.117598,0.44027 -2.438395,0.44027 z"
         id="path22866" />
      <path
         d="m 58.488811,157.27957 q -1.286931,0 -2.319862,-0.57574 -1.032931,-0.59266 -1.625597,-1.62559 -0.592665,-1.03293 -0.592665,-2.3368 0,-1.30386 0.592665,-2.33679 0.592666,-1.03293 1.625597,-1.60867 1.032931,-0.57573 2.319862,-0.57573 1.286931,0 2.319862,0.57573 1.032931,0.57574 1.608664,1.60867 0.592665,1.03293 0.592665,2.33679 0,1.30387 -0.592665,2.3368 -0.575733,1.03293 -1.608664,1.62559 -1.032931,0.57574 -2.319862,0.57574 z m 0,-1.0668 q 0.948265,0 1.69333,-0.42333 0.761999,-0.44027 1.185331,-1.23613 0.423333,-0.79587 0.423333,-1.81187 0,-1.016 -0.423333,-1.81186 -0.423332,-0.79587 -1.185331,-1.2192 -0.745065,-0.44026 -1.69333,-0.44026 -0.948265,0 -1.710263,0.44026 -0.745065,0.42333 -1.185331,1.2192 -0.423333,0.79586 -0.423333,1.81186 0,1.016 0.423333,1.81187 0.440266,0.79586 1.185331,1.23613 0.761998,0.42333 1.710263,0.42333 z"
         id="path22868" />
      <path
         d="m 76.573557,148.22025 q 1.676397,0 2.624662,0.9652 0.965198,0.9652 0.965198,2.84479 v 5.16466 h -1.202265 v -5.04612 q 0,-1.38853 -0.677332,-2.11667 -0.660398,-0.72813 -1.879596,-0.72813 -1.38853,0 -2.184396,0.8636 -0.795865,0.84667 -0.795865,2.35373 v 4.67359 h -1.202264 v -5.04612 q 0,-1.38853 -0.677332,-2.11667 -0.660399,-0.72813 -1.89653,-0.72813 -1.371597,0 -2.184395,0.8636 -0.795865,0.84667 -0.795865,2.35373 v 4.67359 h -1.202265 v -8.90692 h 1.151465 v 1.6256 q 0.474132,-0.8128 1.320797,-1.25306 0.846665,-0.44027 1.94733,-0.44027 1.117597,0 1.930396,0.47413 0.829732,0.47414 1.236131,1.40547 0.491065,-0.88053 1.405464,-1.3716 0.931331,-0.508 2.116662,-0.508 z"
         id="path22870" />
      <path
         d="m 83.431524,148.28798 h 1.202264 v 8.90692 h -1.202264 z m 0.609598,-1.94732 q -0.372532,0 -0.626532,-0.254 -0.253999,-0.254 -0.253999,-0.6096 0,-0.33867 0.253999,-0.59267 0.254,-0.254 0.626532,-0.254 0.372533,0 0.626533,0.254 0.253999,0.23707 0.253999,0.57573 0,0.37254 -0.253999,0.62654 -0.254,0.254 -0.626533,0.254 z"
         id="path22872" />
      <path
         d="m 92.524694,148.22025 q 1.676397,0 2.658528,0.98213 0.999065,0.9652 0.999065,2.82786 v 5.16466 h -1.202264 v -5.04612 q 0,-1.38853 -0.694266,-2.11667 -0.694265,-0.72813 -1.981196,-0.72813 -1.43933,0 -2.285995,0.8636 -0.829732,0.84667 -0.829732,2.35373 v 4.67359 H 87.98657 v -8.90692 h 1.151464 v 1.64253 q 0.491066,-0.81279 1.354664,-1.25306 0.880532,-0.4572 2.031996,-0.4572 z"
         id="path22874" />
      <path
         d="m 107.73074,148.28798 v 7.82319 q 0,2.26906 -1.11759,3.35279 -1.10067,1.10067 -3.33586,1.10067 -1.23613,0 -2.35373,-0.37254 -1.100666,-0.35559 -1.794932,-0.99906 l 0.609599,-0.9144 q 0.643463,0.57573 1.557863,0.89747 0.93133,0.32173 1.94733,0.32173 1.69333,0 2.4892,-0.79587 0.79586,-0.77893 0.79586,-2.43839 v -1.13453 q -0.5588,0.84666 -1.4732,1.28693 -0.89746,0.44026 -1.99813,0.44026 -1.25306,0 -2.28599,-0.54186 -1.016,-0.5588 -1.608665,-1.54093 -0.575732,-0.99907 -0.575732,-2.25213 0,-1.25306 0.575732,-2.2352 0.592665,-0.98213 1.608665,-1.52399 1.016,-0.54187 2.28599,-0.54187 1.13453,0 2.04893,0.4572 0.9144,0.4572 1.4732,1.3208 v -1.71027 z m -4.55505,7.50146 q 0.9652,0 1.74413,-0.4064 0.77893,-0.42334 1.20226,-1.1684 0.44027,-0.74507 0.44027,-1.69333 0,-0.94827 -0.44027,-1.6764 -0.42333,-0.74506 -1.20226,-1.15146 -0.762,-0.42333 -1.74413,-0.42333 -0.9652,0 -1.74413,0.4064 -0.762,0.40639 -1.20227,1.15146 -0.42333,0.74506 -0.42333,1.69333 0,0.94826 0.42333,1.69333 0.44027,0.74506 1.20227,1.1684 0.77893,0.4064 1.74413,0.4064 z"
         id="path22876" />
      <path
         d="m 117.92456,157.27957 q -1.08373,0 -2.0828,-0.3048 -0.98213,-0.32174 -1.54093,-0.79587 l 0.54187,-0.94826 q 0.5588,0.44026 1.40546,0.72813 0.84667,0.27093 1.76106,0.27093 1.2192,0 1.79493,-0.37253 0.59267,-0.38947 0.59267,-1.08373 0,-0.49107 -0.32173,-0.762 -0.32174,-0.28787 -0.8128,-0.42333 -0.49107,-0.1524 -1.30387,-0.28787 -1.08373,-0.2032 -1.74413,-0.4064 -0.66039,-0.22013 -1.13453,-0.72813 -0.4572,-0.508 -0.4572,-1.40546 0,-1.1176 0.93134,-1.8288 0.93133,-0.7112 2.59079,-0.7112 0.8636,0 1.7272,0.23707 0.86359,0.22013 1.42239,0.59266 l -0.52493,0.9652 q -1.10066,-0.762 -2.62466,-0.762 -1.15146,0 -1.74413,0.4064 -0.57573,0.4064 -0.57573,1.0668 0,0.508 0.32173,0.8128 0.33867,0.3048 0.82973,0.4572 0.49107,0.13546 1.35467,0.28786 1.06679,0.2032 1.71026,0.4064 0.64347,0.2032 1.10066,0.69427 0.4572,0.49106 0.4572,1.35466 0,1.1684 -0.98213,1.86267 -0.9652,0.67733 -2.69239,0.67733 z"
         id="path22878" />
      <path
         d="m 127.45798,157.27957 q -1.28693,0 -2.31986,-0.57574 -1.03293,-0.59266 -1.6256,-1.62559 -0.59267,-1.03293 -0.59267,-2.3368 0,-1.30386 0.59267,-2.33679 0.59267,-1.03293 1.6256,-1.60867 1.03293,-0.57573 2.31986,-0.57573 1.28693,0 2.31986,0.57573 1.03293,0.57574 1.60866,1.60867 0.59267,1.03293 0.59267,2.33679 0,1.30387 -0.59267,2.3368 -0.57573,1.03293 -1.60866,1.62559 -1.03293,0.57574 -2.31986,0.57574 z m 0,-1.0668 q 0.94826,0 1.69333,-0.42333 0.762,-0.44027 1.18533,-1.23613 0.42333,-0.79587 0.42333,-1.81187 0,-1.016 -0.42333,-1.81186 -0.42333,-0.79587 -1.18533,-1.2192 -0.74507,-0.44026 -1.69333,-0.44026 -0.94827,0 -1.71026,0.44026 -0.74507,0.42333 -1.18534,1.2192 -0.42333,0.79586 -0.42333,1.81186 0,1.016 0.42333,1.81187 0.44027,0.79586 1.18534,1.23613 0.76199,0.42333 1.71026,0.42333 z"
         id="path22880" />
      <path
         d="m 138.07514,157.27957 q -1.28693,0 -2.31986,-0.57574 -1.03293,-0.59266 -1.6256,-1.62559 -0.59266,-1.03293 -0.59266,-2.3368 0,-1.30386 0.59266,-2.33679 0.59267,-1.03293 1.6256,-1.60867 1.03293,-0.57573 2.31986,-0.57573 1.28693,0 2.31987,0.57573 1.03293,0.57574 1.60866,1.60867 0.59266,1.03293 0.59266,2.33679 0,1.30387 -0.59266,2.3368 -0.57573,1.03293 -1.60866,1.62559 -1.03294,0.57574 -2.31987,0.57574 z m 0,-1.0668 q 0.94827,0 1.69333,-0.42333 0.762,-0.44027 1.18533,-1.23613 0.42334,-0.79587 0.42334,-1.81187 0,-1.016 -0.42334,-1.81186 -0.42333,-0.79587 -1.18533,-1.2192 -0.74506,-0.44026 -1.69333,-0.44026 -0.94826,0 -1.71026,0.44026 -0.74507,0.42333 -1.18533,1.2192 -0.42333,0.79586 -0.42333,1.81186 0,1.016 0.42333,1.81187 0.44026,0.79586 1.18533,1.23613 0.762,0.42333 1.71026,0.42333 z"
         id="path22882" />
      <path
         d="m 149.58977,148.22025 q 1.67639,0 2.65852,0.98213 0.99907,0.9652 0.99907,2.82786 v 5.16466 h -1.20227 v -5.04612 q 0,-1.38853 -0.69426,-2.11667 -0.69427,-0.72813 -1.9812,-0.72813 -1.43933,0 -2.28599,0.8636 -0.82973,0.84667 -0.82973,2.35373 v 4.67359 h -1.20227 v -8.90692 h 1.15147 v 1.64253 q 0.49106,-0.81279 1.35466,-1.25306 0.88053,-0.4572 2.032,-0.4572 z"
         id="path22884" />
      <path
         d="m 156.63399,157.27957 q -0.37253,0 -0.64347,-0.27094 -0.254,-0.27093 -0.254,-0.66039 0,-0.38947 0.254,-0.64347 0.27094,-0.27093 0.64347,-0.27093 0.37253,0 0.64346,0.27093 0.27094,0.254 0.27094,0.64347 0,0.38946 -0.27094,0.66039 -0.27093,0.27094 -0.64346,0.27094 z"
         id="path22886" />
      <path
         d="m 160.22385,157.27957 q -0.37254,0 -0.64347,-0.27094 -0.254,-0.27093 -0.254,-0.66039 0,-0.38947 0.254,-0.64347 0.27093,-0.27093 0.64347,-0.27093 0.37253,0 0.64346,0.27093 0.27093,0.254 0.27093,0.64347 0,0.38946 -0.27093,0.66039 -0.27093,0.27094 -0.64346,0.27094 z"
         id="path22888" />
      <path
         d="m 163.81371,157.27957 q -0.37254,0 -0.64347,-0.27094 -0.254,-0.27093 -0.254,-0.66039 0,-0.38947 0.254,-0.64347 0.27093,-0.27093 0.64347,-0.27093 0.37253,0 0.64346,0.27093 0.27093,0.254 0.27093,0.64347 0,0.38946 -0.27093,0.66039 -0.27093,0.27094 -0.64346,0.27094 z"
         id="path22890" />
    </g>
    <g
       aria-label="OK"
       id="text23199"
       style="font-size:16.9333px;line-height:1.25;font-family:Montserrat;-inkscape-font-specification:Montserrat;stroke-width:0.264583">
      <path
         d="m 78.993257,202.67611 q -1.761063,0 -3.200393,-0.77893 -1.422398,-0.79587 -2.235196,-2.16747 -0.795865,-1.37159 -0.795865,-3.08186 0,-1.71026 0.795865,-3.08186 0.812798,-1.37159 2.235196,-2.15053 1.43933,-0.79586 3.200393,-0.79586 1.761064,0 3.166527,0.77893 1.422398,0.77893 2.235196,2.16746 0.812798,1.3716 0.812798,3.08186 0,1.71027 -0.812798,3.0988 -0.812798,1.37159 -2.235196,2.15053 -1.405463,0.77893 -3.166527,0.77893 z m 0,-1.1176 q 1.405464,0 2.539995,-0.62653 1.134531,-0.64347 1.777997,-1.76106 0.643465,-1.13454 0.643465,-2.52307 0,-1.38853 -0.643465,-2.50612 -0.643466,-1.13454 -1.777997,-1.76107 -1.134531,-0.64346 -2.539995,-0.64346 -1.405464,0 -2.556928,0.64346 -1.134531,0.62653 -1.79493,1.76107 -0.643465,1.11759 -0.643465,2.50612 0,1.38853 0.643465,2.52307 0.660399,1.11759 1.79493,1.76106 1.151464,0.62653 2.556928,0.62653 z"
         id="path26384" />
      <path
         d="m 91.693212,197.00345 -2.421462,2.45533 v 3.11573 H 88.018685 V 190.7212 h 1.253065 v 7.16278 l 6.959586,-7.16278 h 1.43933 l -5.130789,5.36785 5.486389,6.48546 h -1.490131 z"
         id="path26386" />
    </g>
    <g
       aria-label="Sign In"
       id="text23335"
       style="font-size:16.9333px;line-height:1.25;font-family:Montserrat;-inkscape-font-specification:Montserrat;stroke-width:0.264583">
      <path
         d="m 131.5353,212.11504 q -1.3208,0 -2.54,-0.42333 -1.20226,-0.42333 -1.86266,-1.1176 l 0.49107,-0.9652 q 0.64346,0.64347 1.71026,1.04987 1.0668,0.38946 2.20133,0.38946 1.59173,0 2.3876,-0.57573 0.79586,-0.59266 0.79586,-1.52399 0,-0.7112 -0.44027,-1.13454 -0.42333,-0.42333 -1.04986,-0.64346 -0.62653,-0.23707 -1.74413,-0.508 -1.33773,-0.33867 -2.1336,-0.64347 -0.79586,-0.32173 -1.37159,-0.96519 -0.5588,-0.64347 -0.5588,-1.74413 0,-0.89747 0.47413,-1.6256 0.47413,-0.74507 1.45626,-1.18533 0.98214,-0.44027 2.4384,-0.44027 1.016,0 1.9812,0.28787 0.98213,0.27093 1.69333,0.762 l -0.42334,0.99906 q -0.74506,-0.49106 -1.59173,-0.72813 -0.84666,-0.254 -1.65946,-0.254 -1.55786,0 -2.35373,0.6096 -0.77893,0.59267 -0.77893,1.54093 0,0.7112 0.42333,1.15146 0.44027,0.42334 1.08373,0.6604 0.6604,0.22014 1.76107,0.49107 1.30386,0.32173 2.09972,0.64346 0.8128,0.3048 1.3716,0.94827 0.5588,0.62653 0.5588,1.71026 0,0.89747 -0.49106,1.64253 -0.47414,0.72813 -1.4732,1.1684 -0.99907,0.42333 -2.45533,0.42333 z"
         id="path26371" />
      <path
         d="m 138.42715,203.10653 h 1.20226 v 8.90691 h -1.20226 z m 0.6096,-1.94733 q -0.37253,0 -0.62653,-0.254 -0.254,-0.254 -0.254,-0.6096 0,-0.33867 0.254,-0.59267 0.254,-0.254 0.62653,-0.254 0.37253,0 0.62653,0.254 0.254,0.23707 0.254,0.57574 0,0.37253 -0.254,0.62653 -0.254,0.254 -0.62653,0.254 z"
         id="path26373" />
      <path
         d="m 151.22871,203.10653 v 7.82318 q 0,2.26906 -1.1176,3.3528 -1.10066,1.10066 -3.33586,1.10066 -1.23613,0 -2.35373,-0.37253 -1.10066,-0.3556 -1.79493,-0.99907 l 0.6096,-0.9144 q 0.64347,0.57574 1.55786,0.89747 0.93134,0.32173 1.94733,0.32173 1.69333,0 2.4892,-0.79586 0.79586,-0.77894 0.79586,-2.4384 v -1.13453 q -0.55879,0.84667 -1.47319,1.28693 -0.89747,0.44027 -1.99813,0.44027 -1.25307,0 -2.286,-0.54187 -1.016,-0.5588 -1.60866,-1.54093 -0.57573,-0.99906 -0.57573,-2.25213 0,-1.25306 0.57573,-2.23519 0.59266,-0.98213 1.60866,-1.524 1.016,-0.54187 2.286,-0.54187 1.13453,0 2.04893,0.4572 0.9144,0.4572 1.47319,1.3208 v -1.71026 z m -4.55506,7.50145 q 0.9652,0 1.74413,-0.4064 0.77893,-0.42333 1.20227,-1.1684 0.44026,-0.74506 0.44026,-1.69333 0,-0.94826 -0.44026,-1.67639 -0.42334,-0.74507 -1.20227,-1.15147 -0.762,-0.42333 -1.74413,-0.42333 -0.9652,0 -1.74413,0.4064 -0.762,0.4064 -1.20226,1.15146 -0.42334,0.74507 -0.42334,1.69333 0,0.94827 0.42334,1.69333 0.44026,0.74507 1.20226,1.1684 0.77893,0.4064 1.74413,0.4064 z"
         id="path26375" />
      <path
         d="m 159.13654,203.03879 q 1.6764,0 2.65853,0.98214 0.99906,0.96519 0.99906,2.82786 v 5.16465 h -1.20226 v -5.04612 q 0,-1.38853 -0.69427,-2.11666 -0.69426,-0.72813 -1.98119,-0.72813 -1.43933,0 -2.286,0.86359 -0.82973,0.84667 -0.82973,2.35373 v 4.67359 h -1.20226 v -8.90691 h 1.15146 v 1.64253 q 0.49107,-0.8128 1.35467,-1.25307 0.88053,-0.4572 2.03199,-0.4572 z"
         id="path26377" />
      <path
         d="m 170.75274,200.16013 h 1.25306 v 11.85331 h -1.25306 z"
         id="path26379" />
      <path
         d="m 180.15069,203.03879 q 1.6764,0 2.65853,0.98214 0.99906,0.96519 0.99906,2.82786 v 5.16465 h -1.20226 v -5.04612 q 0,-1.38853 -0.69427,-2.11666 -0.69426,-0.72813 -1.98119,-0.72813 -1.43933,0 -2.286,0.86359 -0.82973,0.84667 -0.82973,2.35373 v 4.67359 h -1.20226 v -8.90691 h 1.15146 v 1.64253 q 0.49107,-0.8128 1.35466,-1.25307 0.88054,-0.4572 2.032,-0.4572 z"
         id="path26381" />
    </g>
    <g
       aria-label="1234567890"
       id="text24893"
       style="font-size:16.9333px;line-height:1.25;font-family:Montserrat;-inkscape-font-specification:Montserrat;stroke-width:0.264583">
      <path
         d="m 43.736595,80.721054 v 11.85331 H 42.517397 V 81.804785 h -2.793994 v -1.083731 z"
         id="path26350" />
      <path
         d="m 54.658542,91.490633 v 1.083731 h -8.31425 v -0.863599 l 4.92759,-4.82599 q 0.931332,-0.914398 1.253064,-1.574797 0.338666,-0.677332 0.338666,-1.354664 0,-1.049865 -0.728131,-1.625597 -0.711199,-0.592665 -2.04893,-0.592665 -2.082796,0 -3.23426,1.320797 l -0.863598,-0.745065 q 0.694265,-0.812799 1.761063,-1.253064 1.083731,-0.440266 2.438395,-0.440266 1.811863,0 2.861728,0.863598 1.066798,0.846665 1.066798,2.336796 0,0.914398 -0.4064,1.761063 -0.406399,0.846665 -1.54093,1.947329 l -4.030125,3.962393 z"
         id="path26352" />
      <path
         d="m 60.212646,85.801044 q 1.862663,0.1016 2.827861,1.015998 0.982131,0.897465 0.982131,2.353728 0,1.015998 -0.491066,1.811864 -0.491065,0.778931 -1.456263,1.23613 -0.965198,0.4572 -2.353729,0.4572 -1.286931,0 -2.438395,-0.4064 -1.134531,-0.423332 -1.828797,-1.117597 l 0.592666,-0.965199 q 0.592665,0.609599 1.574797,0.999065 0.982131,0.372533 2.099729,0.372533 1.456264,0 2.252129,-0.626532 0.795865,-0.643466 0.795865,-1.761064 0,-1.100664 -0.795865,-1.727196 -0.795865,-0.626532 -2.404529,-0.626532 h -0.846665 v -0.897465 l 3.28506,-4.114792 h -6.062121 v -1.083731 h 7.619985 v 0.863598 z"
         id="path26354" />
      <path
         d="m 75.808201,89.458637 h -2.370662 v 3.115727 h -1.219198 v -3.115727 h -6.688653 v -0.880532 l 6.282254,-7.857051 h 1.354664 l -6.062121,7.653851 h 5.147723 v -2.743194 h 1.185331 v 2.743194 h 2.370662 z"
         id="path26356" />
      <path
         d="m 79.973756,85.580911 q 2.573862,0 3.742259,0.931331 1.185331,0.914399 1.185331,2.573862 0,1.032931 -0.491065,1.84573 -0.474133,0.812798 -1.439331,1.28693 -0.965198,0.4572 -2.370662,0.4572 -1.269997,0 -2.421462,-0.4064 -1.134531,-0.423332 -1.828796,-1.117597 l 0.592665,-0.965199 q 0.592666,0.609599 1.557864,0.999065 0.965198,0.372533 2.082796,0.372533 1.473197,0 2.269062,-0.660399 0.812798,-0.660399 0.812798,-1.761063 0,-1.219198 -0.914398,-1.84573 -0.897465,-0.626532 -3.047994,-0.626532 h -2.523062 l 0.609599,-5.943588 h 6.485454 v 1.083731 h -5.418656 l -0.406399,3.776126 z"
         id="path26358" />
      <path
         d="m 91.352929,85.479311 q 1.168398,0 2.065863,0.440266 0.914398,0.440266 1.422397,1.253064 0.507999,0.795865 0.507999,1.862663 0,1.083731 -0.524932,1.913463 -0.524932,0.829732 -1.456264,1.286931 -0.914398,0.440266 -2.065862,0.440266 -2.353729,0 -3.606793,-1.540931 -1.253065,-1.557863 -1.253065,-4.385724 0,-1.981197 0.677332,-3.352794 0.677332,-1.371597 1.89653,-2.065863 1.219198,-0.711198 2.844794,-0.711198 1.761064,0 2.810928,0.643465 l -0.491065,0.982132 q -0.846665,-0.558799 -2.302929,-0.558799 -1.964263,0 -3.081861,1.253064 -1.117598,1.236131 -1.117598,3.606793 0,0.423332 0.0508,0.965198 0.440266,-0.965198 1.405464,-1.49013 0.965198,-0.541866 2.218262,-0.541866 z m -0.101599,6.163721 q 1.28693,0 2.082796,-0.694265 0.812798,-0.711199 0.812798,-1.879596 0,-1.168398 -0.812798,-1.862663 -0.795866,-0.694266 -2.167463,-0.694266 -0.897465,0 -1.59173,0.338666 -0.677332,0.338666 -1.066798,0.931332 -0.389466,0.592665 -0.389466,1.320797 0,0.677332 0.355599,1.253064 0.372533,0.575733 1.083732,0.931332 0.711198,0.355599 1.69333,0.355599 z"
         id="path26360" />
      <path
         d="m 104.9842,80.721054 v 0.863598 l -4.96145,10.989712 h -1.320802 l 4.876792,-10.769579 h -6.095989 v 2.218262 h -1.202265 v -3.301993 z"
         id="path26362" />
      <path
         d="m 113.06135,86.359843 q 1.1176,0.372532 1.71027,1.117597 0.60959,0.745066 0.60959,1.79493 0,1.032932 -0.55879,1.811863 -0.5588,0.761999 -1.60867,1.185331 -1.03293,0.4064 -2.43839,0.4064 -2.1336,0 -3.3528,-0.914399 -1.21919,-0.914398 -1.21919,-2.489195 0,-1.066798 0.57573,-1.79493 0.59266,-0.745065 1.71026,-1.117597 -0.9144,-0.3556 -1.38853,-1.015998 -0.47413,-0.677332 -0.47413,-1.591731 0,-1.43933 1.1176,-2.285995 1.13453,-0.846665 3.03106,-0.846665 1.25306,0 2.18439,0.389466 0.94827,0.372532 1.4732,1.083731 0.52493,0.711199 0.52493,1.659463 0,0.914399 -0.49106,1.591731 -0.49107,0.660398 -1.40547,1.015998 z m -5.21545,-2.573862 q 0,0.982131 0.77893,1.557864 0.77893,0.575732 2.15053,0.575732 1.37159,0 2.15053,-0.575732 0.79586,-0.575733 0.79586,-1.540931 0,-0.999064 -0.8128,-1.574797 -0.79586,-0.575732 -2.13359,-0.575732 -1.35467,0 -2.15053,0.575732 -0.77893,0.575733 -0.77893,1.557864 z m 2.92946,7.857051 q 1.57479,0 2.45533,-0.643465 0.89746,-0.643466 0.89746,-1.74413 0,-1.100665 -0.89746,-1.727197 -0.88054,-0.643465 -2.45533,-0.643465 -1.55787,0 -2.45533,0.643465 -0.88053,0.626532 -0.88053,1.727197 0,1.117598 0.88053,1.761063 0.88053,0.626532 2.45533,0.626532 z"
         id="path26364" />
      <path
         d="m 120.76598,80.619454 q 2.35373,0 3.60679,1.557863 1.25307,1.540931 1.25307,4.368792 0,1.981196 -0.67734,3.352793 -0.67733,1.371598 -1.89652,2.082796 -1.2192,0.694266 -2.8448,0.694266 -1.76106,0 -2.81093,-0.643466 l 0.49107,-0.982131 q 0.84666,0.558799 2.30293,0.558799 1.96426,0 3.08186,-1.236131 1.1176,-1.253064 1.1176,-3.623726 0,-0.440266 -0.0508,-0.965199 -0.44027,0.965199 -1.40547,1.507064 -0.9652,0.524932 -2.21826,0.524932 -1.1684,0 -2.0828,-0.440265 -0.89746,-0.440266 -1.40546,-1.236131 -0.508,-0.812799 -0.508,-1.879597 0,-1.083731 0.52493,-1.913463 0.52494,-0.829731 1.43933,-1.269997 0.93134,-0.457199 2.0828,-0.457199 z m 0.13547,6.163721 q 0.89746,0 1.57479,-0.338666 0.69427,-0.338666 1.08373,-0.931331 0.38947,-0.592666 0.38947,-1.320798 0,-0.677332 -0.37253,-1.253064 -0.3556,-0.575732 -1.0668,-0.931332 -0.7112,-0.355599 -1.69333,-0.355599 -1.28693,0 -2.09973,0.711199 -0.79586,0.694265 -0.79586,1.862663 0,1.168398 0.79586,1.862663 0.8128,0.694265 2.1844,0.694265 z"
         id="path26366" />
      <path
         d="m 132.11127,92.675964 q -1.37159,0 -2.45532,-0.728132 -1.0668,-0.728132 -1.6764,-2.082796 -0.59267,-1.371598 -0.59267,-3.217327 0,-1.84573 0.59267,-3.200394 0.6096,-1.371597 1.6764,-2.099729 1.08373,-0.728132 2.45532,-0.728132 1.3716,0 2.4384,0.728132 1.08373,0.728132 1.69333,2.099729 0.6096,1.354664 0.6096,3.200394 0,1.845729 -0.6096,3.217327 -0.6096,1.354664 -1.69333,2.082796 -1.0668,0.728132 -2.4384,0.728132 z m 0,-1.117598 q 1.03294,0 1.81187,-0.575732 0.79586,-0.575733 1.23613,-1.676397 0.44026,-1.100665 0.44026,-2.658528 0,-1.557864 -0.44026,-2.658528 -0.44027,-1.100665 -1.23613,-1.676397 -0.77893,-0.575732 -1.81187,-0.575732 -1.03293,0 -1.82879,0.575732 -0.77893,0.575732 -1.2192,1.676397 -0.44027,1.100664 -0.44027,2.658528 0,1.557863 0.44027,2.658528 0.44027,1.100664 1.2192,1.676397 0.79586,0.575732 1.82879,0.575732 z"
         id="path26368" />
    </g>
    <g
       aria-label="am pm"
       id="text25227"
       style="font-size:16.9333px;line-height:1.25;font-family:Montserrat;-inkscape-font-specification:Montserrat;stroke-width:0.264583">
      <path
         d="m 49.082605,110.46443 q 1.74413,0 2.675462,0.88053 0.931331,0.8636 0.931331,2.57386 v 5.52026 h -1.151464 v -1.38853 q -0.406399,0.69426 -1.202264,1.08373 -0.778932,0.38947 -1.862663,0.38947 -1.490131,0 -2.370662,-0.7112 -0.880532,-0.7112 -0.880532,-1.8796 0,-1.13453 0.812798,-1.8288 0.829732,-0.69426 2.624662,-0.69426 h 2.827861 v -0.54187 q 0,-1.15146 -0.643465,-1.74413 -0.643466,-0.6096 -1.879597,-0.6096 -0.846665,0 -1.625596,0.28787 -0.778932,0.27093 -1.337731,0.762 l -0.541866,-0.89747 q 0.677332,-0.57573 1.625597,-0.88053 0.948265,-0.32173 1.998129,-0.32173 z m -0.423332,8.11105 q 1.015998,0 1.74413,-0.4572 0.728132,-0.47413 1.083731,-1.35466 v -1.45627 H 48.69314 q -2.285996,0 -2.285996,1.59173 0,0.77894 0.592666,1.23614 0.592665,0.44026 1.659463,0.44026 z"
         id="path26341" />
      <path
         d="m 67.065741,110.46443 q 1.676397,0 2.624661,0.9652 0.965198,0.9652 0.965198,2.84479 v 5.16466 h -1.202264 v -5.04612 q 0,-1.38853 -0.677332,-2.11667 -0.660399,-0.72813 -1.879596,-0.72813 -1.388531,0 -2.184396,0.8636 -0.795865,0.84666 -0.795865,2.35373 v 4.67359 h -1.202264 v -5.04612 q 0,-1.38853 -0.677332,-2.11667 -0.660399,-0.72813 -1.89653,-0.72813 -1.371597,0 -2.184396,0.8636 -0.795865,0.84666 -0.795865,2.35373 v 4.67359 h -1.202264 v -8.90692 h 1.151464 v 1.6256 q 0.474133,-0.8128 1.320798,-1.25306 0.846665,-0.44027 1.947329,-0.44027 1.117598,0 1.930397,0.47413 0.829731,0.47414 1.23613,1.40547 0.491066,-0.88054 1.405464,-1.3716 0.931332,-0.508 2.116663,-0.508 z"
         id="path26343" />
      <path
         d="m 82.949144,110.46443 q 1.253064,0 2.269062,0.57573 1.015998,0.5588 1.59173,1.59173 0.575732,1.03293 0.575732,2.35373 0,1.33773 -0.575732,2.37066 -0.575732,1.03293 -1.59173,1.60867 -0.999065,0.5588 -2.269062,0.5588 -1.083732,0 -1.964263,-0.44027 -0.863598,-0.4572 -1.422397,-1.3208 v 4.96146 h -1.202265 v -12.19198 h 1.151465 v 1.76107 q 0.541865,-0.88053 1.422397,-1.35467 0.897465,-0.47413 2.015063,-0.47413 z m -0.08467,7.99252 q 0.931332,0 1.69333,-0.42333 0.761999,-0.44027 1.185331,-1.23614 0.440266,-0.79586 0.440266,-1.81186 0,-1.016 -0.440266,-1.79493 -0.423332,-0.79586 -1.185331,-1.23613 -0.761998,-0.44027 -1.69333,-0.44027 -0.948265,0 -1.710263,0.44027 -0.745065,0.44027 -1.185331,1.23613 -0.423333,0.77893 -0.423333,1.79493 0,1.016 0.423333,1.81186 0.440266,0.79587 1.185331,1.23614 0.761998,0.42333 1.710263,0.42333 z"
         id="path26345" />
      <path
         d="m 100.94923,110.46443 q 1.6764,0 2.62467,0.9652 0.96519,0.9652 0.96519,2.84479 v 5.16466 h -1.20226 v -5.04612 q 0,-1.38853 -0.67733,-2.11667 -0.6604,-0.72813 -1.8796,-0.72813 -1.388529,0 -2.184394,0.8636 -0.795866,0.84666 -0.795866,2.35373 v 4.67359 h -1.202264 v -5.04612 q 0,-1.38853 -0.677332,-2.11667 -0.660399,-0.72813 -1.896529,-0.72813 -1.371598,0 -2.184396,0.8636 -0.795865,0.84666 -0.795865,2.35373 v 4.67359 h -1.202265 v -8.90692 h 1.151465 v 1.6256 q 0.474132,-0.8128 1.320797,-1.25306 0.846665,-0.44027 1.94733,-0.44027 1.117598,0 1.930396,0.47413 0.829732,0.47414 1.236131,1.40547 0.491066,-0.88054 1.405464,-1.3716 0.931331,-0.508 2.116658,-0.508 z"
         id="path26347" />
    </g>
    <g
       aria-label=":"
       id="text26693"
       style="font-size:16.9333px;line-height:1.25;font-family:Montserrat;-inkscape-font-specification:Montserrat;stroke-width:0.264583">
      <path
         d="m 121.96009,97.788698 q -0.37253,0 -0.64346,-0.270932 -0.254,-0.270933 -0.254,-0.660399 0,-0.389466 0.254,-0.643465 0.27093,-0.270933 0.64346,-0.270933 0.37253,0 0.64347,0.270933 0.27093,0.253999 0.27093,0.643465 0,0.389466 -0.27093,0.660399 -0.27094,0.270932 -0.64347,0.270932 z m 0,7.213582 q -0.37253,0 -0.64346,-0.27093 -0.254,-0.27093 -0.254,-0.6604 0,-0.38946 0.254,-0.64346 0.27093,-0.27094 0.64346,-0.27094 0.37253,0 0.64347,0.27094 0.27093,0.254 0.27093,0.64346 0,0.38947 -0.27093,0.6604 -0.27094,0.27093 -0.64347,0.27093 z"
         id="path27812" />
    </g>
    <g
       aria-label="63%"
       id="text27374"
       style="font-size:16.9333px;line-height:1.25;font-family:Montserrat;-inkscape-font-specification:Montserrat;stroke-width:0.264583">
      <path
         d="m 16.68229,184.58834 q 1.168398,0 2.065863,0.44027 0.914398,0.44026 1.422397,1.25306 0.507999,0.79587 0.507999,1.86267 0,1.08373 -0.524932,1.91346 -0.524932,0.82973 -1.456264,1.28693 -0.914398,0.44027 -2.065862,0.44027 -2.353729,0 -3.606793,-1.54094 -1.253065,-1.55786 -1.253065,-4.38572 0,-1.9812 0.677332,-3.35279 0.677332,-1.3716 1.89653,-2.06587 1.219198,-0.71119 2.844794,-0.71119 1.761064,0 2.810928,0.64346 l -0.491065,0.98213 q -0.846665,-0.5588 -2.302929,-0.5588 -1.964263,0 -3.081861,1.25307 -1.117598,1.23613 -1.117598,3.60679 0,0.42333 0.0508,0.9652 0.440266,-0.9652 1.405464,-1.49013 0.965198,-0.54187 2.218262,-0.54187 z m -0.101599,6.16372 q 1.28693,0 2.082796,-0.69426 0.812798,-0.7112 0.812798,-1.8796 0,-1.1684 -0.812798,-1.86266 -0.795866,-0.69427 -2.167463,-0.69427 -0.897465,0 -1.59173,0.33867 -0.677332,0.33867 -1.066798,0.93133 -0.389466,0.59267 -0.389466,1.3208 0,0.67733 0.355599,1.25306 0.372533,0.57574 1.083732,0.93133 0.711198,0.3556 1.69333,0.3556 z"
         id="path27805" />
      <path
         d="m 26.114126,184.91008 q 1.862663,0.1016 2.827861,1.01599 0.982132,0.89747 0.982132,2.35373 0,1.016 -0.491066,1.81187 -0.491066,0.77893 -1.456264,1.23613 -0.965198,0.4572 -2.353728,0.4572 -1.286931,0 -2.438396,-0.4064 -1.134531,-0.42334 -1.828796,-1.1176 l 0.592665,-0.9652 q 0.592666,0.6096 1.574797,0.99906 0.982132,0.37254 2.09973,0.37254 1.456263,0 2.252128,-0.62653 0.795866,-0.64347 0.795866,-1.76107 0,-1.10066 -0.795866,-1.72719 -0.795865,-0.62654 -2.404528,-0.62654 h -0.846665 v -0.89746 l 3.28506,-4.11479 h -6.062121 v -1.08373 h 7.619985 v 0.86359 z"
         id="path27807" />
      <path
         d="m 33.971159,186.18007 q -1.202264,0 -1.947329,-0.88053 -0.728132,-0.89746 -0.728132,-2.33679 0,-1.43933 0.728132,-2.31987 0.745065,-0.89746 1.947329,-0.89746 1.185331,0 1.930397,0.88053 0.745065,0.88053 0.745065,2.3368 0,1.45626 -0.745065,2.33679 -0.745066,0.88053 -1.930397,0.88053 z m 7.17972,-6.34998 h 0.999064 l -8.094117,11.85331 h -0.999065 z m -7.17972,5.58798 q 0.829732,0 1.320798,-0.64346 0.507999,-0.6604 0.507999,-1.81186 0,-1.15147 -0.507999,-1.79493 -0.491066,-0.6604 -1.320798,-0.6604 -0.846665,0 -1.33773,0.6604 -0.491066,0.66039 -0.491066,1.79493 0,1.13453 0.491066,1.79493 0.491065,0.66039 1.33773,0.66039 z m 7.264386,6.34999 q -1.185331,0 -1.930396,-0.88053 -0.745065,-0.89746 -0.745065,-2.3368 0,-1.43933 0.745065,-2.31986 0.745065,-0.89746 1.930396,-0.89746 1.202264,0 1.930396,0.89746 0.745065,0.88053 0.745065,2.31986 0,1.43934 -0.745065,2.3368 -0.728132,0.88053 -1.930396,0.88053 z m 0,-0.762 q 0.846665,0 1.337731,-0.6604 0.491065,-0.66039 0.491065,-1.79493 0,-1.13453 -0.491065,-1.79492 -0.491066,-0.6604 -1.337731,-0.6604 -0.829732,0 -1.337731,0.6604 -0.491065,0.64346 -0.491065,1.79492 0,1.15147 0.491065,1.81187 0.507999,0.64346 1.337731,0.64346 z"
         id="path27809" />
    </g>
  </g>
</svg>
