<svg version="1.1" xmlns="http://www.w3.org/2000/svg" xmlns:xlink="http://www.w3.org/1999/xlink" width="424.12862" height="246.5137" viewBox="0,0,424.12862,246.5137"><g transform="translate(-27.93569,-56.74315)"><g data-paper-data="{&quot;isPaintingLayer&quot;:true}" fill="#000000" fill-rule="nonzero" stroke="none" stroke-linecap="butt" stroke-linejoin="miter" stroke-miterlimit="10" stroke-dasharray="" stroke-dashoffset="0" style="mix-blend-mode: normal"><g><g stroke-width="0.13813"><path d="M32.69162,91.04917h-4.05304v-1.05445h9.32528v1.05445h-4.05304v10.47858h-1.21921z"/><path d="M46.38297,92.8615l-4.33313,9.70422c-0.35148,0.8128 -0.75788,1.38946 -1.21921,1.72995c-0.46132,0.3405 -1.01601,0.51075 -1.66405,0.51075c-0.41739,0 -0.80731,-0.0659 -1.16978,-0.19771c-0.36247,-0.13181 -0.67551,-0.32952 -0.93912,-0.59313l0.5437,-0.87322c0.43935,0.43935 0.96658,0.65903 1.58167,0.65903c0.39542,0 0.73043,-0.10984 1.00502,-0.32952c0.28558,-0.21968 0.54919,-0.59313 0.79084,-1.12035l0.37894,-0.84026l-3.87181,-8.64978h1.21921l3.2622,7.36467l3.2622,-7.36467z"/><path d="M52.49547,92.7956c0.8128,0 1.54872,0.18673 2.20775,0.56018c0.65903,0.36247 1.17527,0.87871 1.54872,1.54872c0.37345,0.67001 0.56018,1.43339 0.56018,2.29013c0,0.86772 -0.18673,1.63659 -0.56018,2.30661c-0.37345,0.67001 -0.88969,1.19175 -1.54872,1.5652c-0.64805,0.36247 -1.38396,0.5437 -2.20775,0.5437c-0.70297,0 -1.34003,-0.14279 -1.91119,-0.42837c-0.56018,-0.29656 -1.0215,-0.72493 -1.38396,-1.28511v4.8274h-1.16978v-11.86255h1.12035v1.71348c0.35148,-0.57116 0.8128,-1.01051 1.38396,-1.31806c0.58214,-0.30755 1.23568,-0.46132 1.96062,-0.46132zM52.4131,100.57216c0.60411,0 1.1533,-0.1373 1.64758,-0.41189c0.49427,-0.28558 0.87871,-0.68649 1.1533,-1.20273c0.28558,-0.51624 0.42837,-1.10388 0.42837,-1.76291c0,-0.65903 -0.14279,-1.24118 -0.42837,-1.74643c-0.2746,-0.51624 -0.65903,-0.91715 -1.1533,-1.20273c-0.49427,-0.28558 -1.04347,-0.42837 -1.64758,-0.42837c-0.6151,0 -1.16978,0.14279 -1.66405,0.42837c-0.48329,0.28558 -0.86772,0.68649 -1.1533,1.20273c-0.2746,0.50526 -0.41189,1.0874 -0.41189,1.74643c0,0.65903 0.1373,1.24667 0.41189,1.76291c0.28558,0.51624 0.67001,0.91715 1.1533,1.20273c0.49427,0.2746 1.04896,0.41189 1.66405,0.41189z"/><path d="M66.747,97.5571h-7.24934c0.0659,0.90067 0.41189,1.6311 1.03797,2.19128c0.62608,0.54919 1.41692,0.82379 2.37251,0.82379c0.53821,0 1.03248,-0.09336 1.48282,-0.28009c0.45034,-0.19771 0.84026,-0.48329 1.16978,-0.85674l0.65903,0.75789c-0.38444,0.46132 -0.86772,0.8128 -1.44987,1.05445c-0.57116,0.24164 -1.20273,0.36247 -1.89471,0.36247c-0.88969,0 -1.68053,-0.18673 -2.37251,-0.56018c-0.681,-0.38444 -1.21371,-0.91166 -1.59815,-1.58167c-0.38443,-0.67001 -0.57665,-1.4279 -0.57665,-2.27365c0,-0.84576 0.18123,-1.60364 0.5437,-2.27366c0.37345,-0.67001 0.87871,-1.19175 1.51577,-1.5652c0.64805,-0.37345 1.37298,-0.56018 2.1748,-0.56018c0.80182,0 1.52126,0.18673 2.15833,0.56018c0.63706,0.37345 1.13683,0.89518 1.49929,1.5652c0.36247,0.65903 0.5437,1.41692 0.5437,2.27366zM62.56216,93.80062c-0.83477,0 -1.53774,0.2691 -2.1089,0.80731c-0.56018,0.52722 -0.87871,1.21921 -0.9556,2.07595h6.14546c-0.07688,-0.85674 -0.40091,-1.54872 -0.97207,-2.07595c-0.56018,-0.53821 -1.26314,-0.80731 -2.1089,-0.80731z"/><path d="M77.88457,92.7956c1.0874,0 1.94963,0.31853 2.58669,0.9556c0.64805,0.62608 0.97207,1.54323 0.97207,2.75145v5.02511h-1.16978v-4.90978c0,-0.90067 -0.22517,-1.58717 -0.67551,-2.05947c-0.45034,-0.47231 -1.09289,-0.70846 -1.92767,-0.70846c-0.93363,0 -1.67504,0.28009 -2.22423,0.84027c-0.53821,0.54919 -0.80731,1.31257 -0.80731,2.29013v4.54731h-1.16978v-12.22502h1.16978v5.07453c0.31853,-0.50526 0.75789,-0.89518 1.31806,-1.16978c0.56018,-0.2746 1.20273,-0.41189 1.92766,-0.41189z"/><path d="M92.20196,97.5571h-7.24934c0.0659,0.90067 0.41189,1.6311 1.03797,2.19128c0.62608,0.54919 1.41692,0.82379 2.37251,0.82379c0.53821,0 1.03248,-0.09336 1.48282,-0.28009c0.45034,-0.19771 0.84026,-0.48329 1.16978,-0.85674l0.65903,0.75789c-0.38444,0.46132 -0.86772,0.8128 -1.44987,1.05445c-0.57116,0.24164 -1.20273,0.36247 -1.89471,0.36247c-0.88969,0 -1.68053,-0.18673 -2.37251,-0.56018c-0.681,-0.38444 -1.21371,-0.91166 -1.59815,-1.58167c-0.38443,-0.67001 -0.57665,-1.4279 -0.57665,-2.27365c0,-0.84576 0.18123,-1.60364 0.5437,-2.27366c0.37345,-0.67001 0.87871,-1.19175 1.51577,-1.5652c0.64805,-0.37345 1.37298,-0.56018 2.1748,-0.56018c0.80182,0 1.52126,0.18673 2.15833,0.56018c0.63706,0.37345 1.13683,0.89518 1.49929,1.5652c0.36247,0.65903 0.5437,1.41692 0.5437,2.27366zM88.01712,93.80062c-0.83477,0 -1.53774,0.2691 -2.1089,0.80731c-0.56018,0.52722 -0.87871,1.21921 -0.9556,2.07595h6.14546c-0.07688,-0.85674 -0.40091,-1.54872 -0.97207,-2.07595c-0.56018,-0.53821 -1.26314,-0.80731 -2.1089,-0.80731z"/><path d="M95.72775,94.55851c0.2746,-0.58214 0.681,-1.0215 1.21921,-1.31806c0.54919,-0.29656 1.2247,-0.44485 2.02652,-0.44485v1.13683l-0.28009,-0.0164c-0.91166,0 -1.62561,0.28009 -2.14185,0.84027c-0.51624,0.56018 -0.77436,1.34552 -0.77436,2.35603v4.4155h-1.16978v-8.66625h1.12035z"/><path d="M108.54587,97.5571h-7.24934c0.0659,0.90067 0.41189,1.6311 1.03797,2.19128c0.62608,0.54919 1.41692,0.82379 2.37251,0.82379c0.53821,0 1.03248,-0.09336 1.48282,-0.28009c0.45034,-0.19771 0.84027,-0.48329 1.16978,-0.85674l0.65903,0.75789c-0.38443,0.46132 -0.86772,0.8128 -1.44987,1.05445c-0.57116,0.24164 -1.20273,0.36247 -1.89471,0.36247c-0.88969,0 -1.68053,-0.18673 -2.37251,-0.56018c-0.681,-0.38444 -1.21372,-0.91166 -1.59815,-1.58167c-0.38443,-0.67001 -0.57665,-1.4279 -0.57665,-2.27365c0,-0.84576 0.18123,-1.60364 0.5437,-2.27366c0.37345,-0.67001 0.87871,-1.19175 1.51577,-1.5652c0.64805,-0.37345 1.37298,-0.56018 2.1748,-0.56018c0.80182,0 1.52126,0.18673 2.15832,0.56018c0.63706,0.37345 1.13683,0.89518 1.49929,1.5652c0.36247,0.65903 0.5437,1.41692 0.5437,2.27366zM104.36103,93.80062c-0.83477,0 -1.53774,0.2691 -2.1089,0.80731c-0.56018,0.52722 -0.87871,1.21921 -0.95559,2.07595h6.14546c-0.07688,-0.85674 -0.40091,-1.54872 -0.97207,-2.07595c-0.56018,-0.53821 -1.26314,-0.80731 -2.1089,-0.80731z"/><path d="M119.83172,101.00053c-0.21968,0.19771 -0.49427,0.35148 -0.82379,0.46132c-0.31853,0.09885 -0.65354,0.14827 -1.00502,0.14827c-0.8128,0 -1.43888,-0.21968 -1.87824,-0.65903c-0.43935,-0.43935 -0.65903,-1.05994 -0.65903,-1.86176v-5.23929h-1.54872v-0.98855h1.54872v-1.89471h1.16978v1.89471h2.63612v0.98855h-2.63612v5.17339c0,0.51624 0.12631,0.91166 0.37894,1.18626c0.26361,0.26361 0.63706,0.39542 1.12035,0.39542c0.24164,0 0.4723,-0.03844 0.69198,-0.11532c0.23066,-0.07688 0.42837,-0.18672 0.59313,-0.32952z"/><path d="M125.1863,101.61013c-0.83477,0 -1.58716,-0.18673 -2.25718,-0.56018c-0.67001,-0.38444 -1.19724,-0.91166 -1.58167,-1.58167c-0.38444,-0.67001 -0.57665,-1.4279 -0.57665,-2.27365c0,-0.84576 0.19222,-1.60364 0.57665,-2.27366c0.38443,-0.67001 0.91166,-1.19175 1.58167,-1.5652c0.67001,-0.37345 1.42241,-0.56018 2.25718,-0.56018c0.83477,0 1.58716,0.18673 2.25718,0.56018c0.67001,0.37345 1.19175,0.89518 1.5652,1.5652c0.38443,0.67001 0.57665,1.4279 0.57665,2.27366c0,0.84576 -0.19222,1.60364 -0.57665,2.27365c-0.37345,0.67001 -0.89518,1.19724 -1.5652,1.58167c-0.67001,0.37345 -1.42241,0.56018 -2.25718,0.56018zM125.1863,100.57216c0.6151,0 1.16429,-0.1373 1.64758,-0.41189c0.49427,-0.28558 0.87871,-0.68649 1.1533,-1.20273c0.2746,-0.51624 0.41189,-1.10388 0.41189,-1.76291c0,-0.65903 -0.1373,-1.24667 -0.41189,-1.76291c-0.2746,-0.51624 -0.65903,-0.91166 -1.1533,-1.18626c-0.48329,-0.28558 -1.03248,-0.42837 -1.64758,-0.42837c-0.6151,0 -1.16978,0.14279 -1.66405,0.42837c-0.48329,0.2746 -0.86772,0.67001 -1.1533,1.18626c-0.2746,0.51624 -0.41189,1.10388 -0.41189,1.76291c0,0.65903 0.1373,1.24667 0.41189,1.76291c0.28558,0.51624 0.67001,0.91715 1.1533,1.20273c0.49427,0.2746 1.04896,0.41189 1.66405,0.41189z"/><path d="M138.61401,101.61013c-0.70297,0 -1.37847,-0.09885 -2.02652,-0.29656c-0.63706,-0.20869 -1.13683,-0.46681 -1.49929,-0.77436l0.52722,-0.92264c0.36247,0.28558 0.8183,0.52173 1.36749,0.70846c0.54919,0.17574 1.12035,0.26361 1.71348,0.26361c0.79084,0 1.37298,-0.12082 1.74643,-0.36247c0.38444,-0.25263 0.57665,-0.60411 0.57665,-1.05445c0,-0.31853 -0.10435,-0.56567 -0.31304,-0.74141c-0.20869,-0.18673 -0.4723,-0.32402 -0.79084,-0.41189c-0.31853,-0.09885 -0.74141,-0.19221 -1.26863,-0.28009c-0.70297,-0.13181 -1.26863,-0.26361 -1.697,-0.39542c-0.42837,-0.14279 -0.79633,-0.37894 -1.10388,-0.70846c-0.29656,-0.32952 -0.44484,-0.78534 -0.44484,-1.36749c0,-0.72493 0.30206,-1.31806 0.90617,-1.77938c0.60411,-0.46132 1.44437,-0.69198 2.52079,-0.69198c0.56018,0 1.12035,0.07689 1.68053,0.23066c0.56018,0.14279 1.0215,0.33501 1.38396,0.57665l-0.51075,0.93912c-0.71395,-0.49427 -1.5652,-0.74141 -2.55374,-0.74141c-0.7469,0 -1.31257,0.13181 -1.697,0.39542c-0.37345,0.26361 -0.56018,0.6096 -0.56018,1.03797c0,0.32952 0.10435,0.59313 0.31304,0.79084c0.21968,0.19771 0.48878,0.34599 0.80731,0.44485c0.31853,0.08787 0.75788,0.18123 1.31806,0.28009c0.69198,0.13181 1.24667,0.26361 1.66405,0.39542c0.41739,0.13181 0.77436,0.35698 1.07093,0.67551c0.29656,0.31853 0.44485,0.75789 0.44485,1.31806c0,0.75788 -0.31853,1.362 -0.9556,1.81233c-0.62608,0.43935 -1.49929,0.65903 -2.61965,0.65903z"/><path d="M151.89346,97.5571h-7.24934c0.0659,0.90067 0.41189,1.6311 1.03797,2.19128c0.62608,0.54919 1.41692,0.82379 2.37251,0.82379c0.53821,0 1.03248,-0.09336 1.48282,-0.28009c0.45034,-0.19771 0.84026,-0.48329 1.16978,-0.85674l0.65903,0.75789c-0.38443,0.46132 -0.86772,0.8128 -1.44987,1.05445c-0.57116,0.24164 -1.20273,0.36247 -1.89471,0.36247c-0.88969,0 -1.68053,-0.18673 -2.37251,-0.56018c-0.681,-0.38444 -1.21371,-0.91166 -1.59815,-1.58167c-0.38443,-0.67001 -0.57665,-1.4279 -0.57665,-2.27365c0,-0.84576 0.18123,-1.60364 0.5437,-2.27366c0.37345,-0.67001 0.87871,-1.19175 1.51577,-1.5652c0.64805,-0.37345 1.37298,-0.56018 2.1748,-0.56018c0.80182,0 1.52126,0.18673 2.15832,0.56018c0.63706,0.37345 1.13683,0.89518 1.49929,1.5652c0.36247,0.65903 0.5437,1.41692 0.5437,2.27366zM147.70861,93.80062c-0.83477,0 -1.53774,0.2691 -2.1089,0.80731c-0.56018,0.52722 -0.87871,1.21921 -0.9556,2.07595h6.14546c-0.07688,-0.85674 -0.40091,-1.54872 -0.97207,-2.07595c-0.56018,-0.53821 -1.26314,-0.80731 -2.1089,-0.80731z"/><path d="M157.08327,92.7956c1.13134,0 1.99906,0.28558 2.60317,0.85674c0.60411,0.56018 0.90617,1.39495 0.90617,2.50432v5.3711h-1.12035v-1.35101c-0.26361,0.45034 -0.65354,0.80182 -1.16978,1.05445c-0.50526,0.25263 -1.10937,0.37894 -1.81234,0.37894c-0.96658,0 -1.73545,-0.23066 -2.30661,-0.69198c-0.57116,-0.46132 -0.85674,-1.07092 -0.85674,-1.82881c0,-0.73592 0.26361,-1.32904 0.79084,-1.77938c0.53821,-0.45034 1.38946,-0.67551 2.55374,-0.67551h2.75145v-0.52722c0,-0.7469 -0.20869,-1.31257 -0.62608,-1.697c-0.41739,-0.39542 -1.02699,-0.59313 -1.82881,-0.59313c-0.54919,0 -1.07642,0.09336 -1.58167,0.28009c-0.50526,0.17574 -0.93912,0.42288 -1.30159,0.74141l-0.52722,-0.87322c0.43935,-0.37345 0.96658,-0.65903 1.58167,-0.85674c0.6151,-0.20869 1.26314,-0.31304 1.94414,-0.31304zM156.67137,100.68749c0.65903,0 1.2247,-0.14828 1.69701,-0.44485c0.47231,-0.30755 0.82379,-0.7469 1.05445,-1.31806v-1.41692h-2.7185c-1.48282,0 -2.22423,0.51624 -2.22423,1.54872c0,0.50526 0.19222,0.90617 0.57665,1.20273c0.38444,0.28558 0.92264,0.42837 1.61462,0.42837z"/><path d="M164.89275,94.55851c0.2746,-0.58214 0.681,-1.0215 1.21921,-1.31806c0.54919,-0.29656 1.2247,-0.44485 2.02652,-0.44485v1.13683l-0.28009,-0.0164c-0.91166,0 -1.62561,0.28009 -2.14185,0.84027c-0.51624,0.56018 -0.77436,1.34552 -0.77436,2.35603v4.4155h-1.16978v-8.66625h1.12035z"/><path d="M173.75668,101.61013c-0.85674,0 -1.62561,-0.18673 -2.30661,-0.56018c-0.67001,-0.37345 -1.19724,-0.89518 -1.58167,-1.5652c-0.38443,-0.681 -0.57665,-1.44437 -0.57665,-2.29013c0,-0.84576 0.19222,-1.60364 0.57665,-2.27366c0.38444,-0.67001 0.91166,-1.19175 1.58167,-1.5652c0.681,-0.37345 1.44987,-0.56018 2.30661,-0.56018c0.7469,0 1.41142,0.14828 1.99357,0.44485c0.59313,0.28558 1.05994,0.70846 1.40044,1.26863l-0.87322,0.59313c-0.28558,-0.42837 -0.64805,-0.7469 -1.0874,-0.9556c-0.43935,-0.21968 -0.91715,-0.32952 -1.43339,-0.32952c-0.62608,0 -1.19175,0.14279 -1.697,0.42837c-0.49427,0.2746 -0.8842,0.67001 -1.16978,1.18626c-0.2746,0.51624 -0.41189,1.10388 -0.41189,1.76291c0,0.67001 0.1373,1.26314 0.41189,1.77938c0.28558,0.50526 0.67551,0.90067 1.16978,1.18626c0.50526,0.2746 1.07092,0.41189 1.697,0.41189c0.51624,0 0.99404,-0.10435 1.43339,-0.31304c0.43935,-0.20869 0.80182,-0.52722 1.0874,-0.95559l0.87322,0.59313c-0.3405,0.56018 -0.80731,0.98855 -1.40044,1.28511c-0.59313,0.28558 -1.25765,0.42837 -1.99357,0.42837z"/><path d="M183.7245,92.7956c1.0874,0 1.94963,0.31853 2.58669,0.9556c0.64805,0.62608 0.97207,1.54323 0.97207,2.75145v5.02511h-1.16978v-4.90978c0,-0.90067 -0.22517,-1.58717 -0.67551,-2.05947c-0.45034,-0.47231 -1.09289,-0.70846 -1.92767,-0.70846c-0.93363,0 -1.67504,0.28009 -2.22423,0.84027c-0.53821,0.54919 -0.80731,1.31257 -0.80731,2.29013v4.54731h-1.16978v-12.22502h1.16978v5.07453c0.31853,-0.50526 0.75789,-0.89518 1.31806,-1.16978c0.56018,-0.2746 1.20273,-0.41189 1.92766,-0.41189z"/></g><path d="M27.93569,228.72465h2.08285v29.53855h-2.08285z" stroke-width="0.26458"/><g stroke-width="0.26458"><path d="M49.64211,236.72901h2.33531v22.09079h-2.33531z"/><path d="M67.1569,242.09392c2.08285,0 3.7344,0.61013 4.95465,1.83038c1.24129,1.19922 1.86194,2.95596 1.86194,5.27023v9.62528h-2.24064v-9.40436c0,-1.72519 -0.4313,-3.04011 -1.29389,-3.94478c-0.86259,-0.90468 -2.09337,-1.35702 -3.69232,-1.35702c-1.7883,0 -3.20843,0.53649 -4.26037,1.60948c-1.0309,1.05195 -1.54635,2.51415 -1.54635,4.3866v8.71008h-2.24064v-16.59964h2.14596v3.06115c0.61013,-1.00987 1.45168,-1.78831 2.52466,-2.33532c1.09402,-0.56805 2.35635,-0.85208 3.78699,-0.85208z"/><path d="M88.80582,257.80995c-0.42078,0.3787 -0.94675,0.67324 -1.57791,0.88363c-0.61013,0.18935 -1.25181,0.28403 -1.92506,0.28403c-1.55687,0 -2.75609,-0.42078 -3.59764,-1.26233c-0.84155,-0.84156 -1.26233,-2.03026 -1.26233,-3.5661v-10.03553h-2.96648v-1.89348h2.96648v-3.6292h2.24064v3.6292h5.04932v1.89348h-5.04932v9.90931c0,0.98882 0.24195,1.74622 0.72584,2.2722c0.50493,0.50493 1.22025,0.7574 2.14596,0.7574c0.46285,0 0.90467,-0.07364 1.32545,-0.22092c0.44182,-0.14727 0.82052,-0.35765 1.1361,-0.63115z"/><path d="M106.73084,251.21427h-13.88564c0.12623,1.72519 0.78896,3.12426 1.98817,4.19723c1.19921,1.05195 2.71401,1.57792 4.54439,1.57792c1.0309,0 1.97765,-0.17883 2.84025,-0.5365c0.86259,-0.3787 1.60947,-0.92571 2.24064,-1.64103l1.26233,1.45168c-0.73636,0.88363 -1.66207,1.55688 -2.77713,2.01975c-1.09402,0.46285 -2.30376,0.69428 -3.6292,0.69428c-1.70415,0 -3.21894,-0.35766 -4.54439,-1.07298c-1.30441,-0.73637 -2.32479,-1.74623 -3.06115,-3.0296c-0.73636,-1.28337 -1.10454,-2.73505 -1.10454,-4.35505c0,-1.61999 0.34714,-3.07166 1.04142,-4.35503c0.71532,-1.28337 1.68311,-2.28272 2.90336,-2.99805c1.24129,-0.71532 2.62986,-1.07298 4.16569,-1.07298c1.53584,0 2.91388,0.35766 4.13413,1.07298c1.22025,0.71533 2.17752,1.71468 2.8718,2.99805c0.69428,1.26233 1.04142,2.71401 1.04142,4.35503zM98.71503,244.01897c-1.59895,0 -2.94544,0.51546 -4.03946,1.54637c-1.07298,1.00985 -1.68311,2.3353 -1.83038,3.97633h11.77124c-0.14727,-1.64103 -0.76792,-2.96648 -1.86194,-3.97633c-1.07298,-1.03091 -2.41947,-1.54637 -4.03946,-1.54637z"/><path d="M113.48425,245.47067c0.52597,-1.11507 1.30441,-1.95662 2.33531,-2.52467c1.05194,-0.56805 2.34583,-0.85208 3.88167,-0.85208v2.17753l-0.53649,-0.0315c-1.74622,0 -3.11375,0.53649 -4.10258,1.60946c-0.98883,1.07298 -1.48324,2.57727 -1.48324,4.51285v8.45761h-2.24064v-16.59964h2.14596z"/><path d="M132.19824,242.09392c2.08285,0 3.7344,0.61013 4.95465,1.83038c1.24129,1.19922 1.86194,2.95596 1.86194,5.27023v9.62528h-2.24064v-9.40436c0,-1.72519 -0.4313,-3.04011 -1.29389,-3.94478c-0.86259,-0.90468 -2.09337,-1.35702 -3.69232,-1.35702c-1.7883,0 -3.20843,0.53649 -4.26037,1.60948c-1.0309,1.05195 -1.54635,2.51415 -1.54635,4.3866v8.71008h-2.24064v-16.59964h2.14596v3.06115c0.61013,-1.00987 1.45168,-1.78831 2.52466,-2.33532c1.09402,-0.56805 2.35635,-0.85208 3.78699,-0.85208z"/><path d="M159.62228,251.21427h-13.88564c0.12623,1.72519 0.78896,3.12426 1.98817,4.19723c1.19922,1.05195 2.71401,1.57792 4.54439,1.57792c1.0309,0 1.97765,-0.17883 2.84025,-0.5365c0.86259,-0.3787 1.60947,-0.92571 2.24064,-1.64103l1.26233,1.45168c-0.73636,0.88363 -1.66207,1.55688 -2.77713,2.01975c-1.09402,0.46285 -2.30376,0.69428 -3.6292,0.69428c-1.70415,0 -3.21894,-0.35766 -4.54439,-1.07298c-1.30441,-0.73637 -2.32479,-1.74623 -3.06115,-3.0296c-0.73636,-1.28337 -1.10454,-2.73505 -1.10454,-4.35505c0,-1.61999 0.34714,-3.07166 1.04142,-4.35503c0.71532,-1.28337 1.68311,-2.28272 2.90336,-2.99805c1.24129,-0.71532 2.62986,-1.07298 4.16569,-1.07298c1.53584,0 2.91388,0.35766 4.13414,1.07298c1.22025,0.71533 2.17752,1.71468 2.8718,2.99805c0.69428,1.26233 1.04142,2.71401 1.04142,4.35503zM151.60648,244.01897c-1.59895,0 -2.94544,0.51546 -4.03946,1.54637c-1.07298,1.00985 -1.68311,2.3353 -1.83038,3.97633h11.77124c-0.14727,-1.64103 -0.76792,-2.96648 -1.86194,-3.97633c-1.07298,-1.03091 -2.41947,-1.54637 -4.03946,-1.54637z"/><path d="M172.97138,257.80995c-0.42078,0.3787 -0.94675,0.67324 -1.57791,0.88363c-0.61013,0.18935 -1.25181,0.28403 -1.92505,0.28403c-1.55687,0 -2.75609,-0.42078 -3.59764,-1.26233c-0.84155,-0.84156 -1.26233,-2.03026 -1.26233,-3.5661v-10.03553h-2.96648v-1.89348h2.96648v-3.6292h2.24064v3.6292h5.04932v1.89348h-5.04932v9.90931c0,0.98882 0.24195,1.74622 0.72584,2.2722c0.50493,0.50493 1.22025,0.7574 2.14596,0.7574c0.46286,0 0.90467,-0.07364 1.32545,-0.22092c0.44182,-0.14727 0.82051,-0.35765 1.1361,-0.63115z"/></g><g stroke-width="0.26458"><path d="M227.74014,98.14193l-7.44776,22.09079h-2.46155l-6.46943,-18.84029l-6.50101,18.84029h-2.43l-7.44775,-22.09079h2.39843l6.37477,18.99808l6.59568,-18.99808h2.17753l6.50101,19.09276l6.46945,-19.09276z"/><path d="M233.04182,106.88357c0.52598,-1.11506 1.30442,-1.95661 2.33532,-2.52466c1.05194,-0.56805 2.34582,-0.85207 3.88166,-0.85207v2.17752l-0.53648,-0.03155c-1.74623,0 -3.11376,0.53649 -4.10258,1.60947c-0.98883,1.07298 -1.48325,2.57726 -1.48325,4.51283v8.45762h-2.24063v-16.59965h2.14595z"/><path d="M243.2982,103.63307h2.24063v16.59965h-2.24063zM244.4343,100.00387c-0.46286,0 -0.85209,-0.15779 -1.16767,-0.47338c-0.31558,-0.31558 -0.47338,-0.69428 -0.47338,-1.1361c0,-0.42078 0.15779,-0.78896 0.47338,-1.10454c0.31558,-0.31558 0.70481,-0.47338 1.16767,-0.47338c0.46285,0 0.85207,0.15779 1.16765,0.47338c0.31558,0.29454 0.47338,0.6522 0.47338,1.07298c0,0.46286 -0.15779,0.85207 -0.47338,1.16766c-0.31558,0.31558 -0.7048,0.47338 -1.16765,0.47338z"/><path d="M260.52897,119.22286c-0.42077,0.3787 -0.94674,0.67324 -1.5779,0.88363c-0.61013,0.18935 -1.25182,0.28402 -1.92505,0.28402c-1.55688,0 -2.7561,-0.42078 -3.59765,-1.26233c-0.84155,-0.84155 -1.26233,-2.03025 -1.26233,-3.56608v-10.03553h-2.96648v-1.8935h2.96648v-3.6292h2.24063v3.6292h5.04933v1.8935h-5.04933v9.9093c0,0.98883 0.24195,1.74622 0.72585,2.2722c0.50493,0.50493 1.22025,0.7574 2.14595,0.7574c0.46286,0 0.90468,-0.07364 1.32545,-0.22091c0.44182,-0.14727 0.82052,-0.35766 1.1361,-0.63117z"/><path d="M278.45399,112.62718h-13.88564c0.12623,1.72519 0.78896,3.12427 1.98818,4.19725c1.19922,1.05194 2.71401,1.57791 4.54438,1.57791c1.0309,0 1.97765,-0.17883 2.84025,-0.53649c0.8626,-0.3787 1.60948,-0.92571 2.24063,-1.64103l1.26235,1.45168c-0.73637,0.88363 -1.66207,1.55687 -2.77713,2.01973c-1.09403,0.46285 -2.30377,0.69428 -3.6292,0.69428c-1.70415,0 -3.21895,-0.35766 -4.5444,-1.07298c-1.3044,-0.73636 -2.32479,-1.74622 -3.06115,-3.02959c-0.73635,-1.28337 -1.10453,-2.73505 -1.10453,-4.35504c0,-1.61999 0.34714,-3.07167 1.04141,-4.35504c0.71533,-1.28337 1.68312,-2.28272 2.90337,-2.99804c1.24129,-0.71532 2.62985,-1.07298 4.16568,-1.07298c1.53584,0 2.91388,0.35766 4.13415,1.07298c1.22025,0.71532 2.17752,1.71467 2.8718,2.99804c0.69427,1.26233 1.04141,2.71401 1.04141,4.35504zM270.43819,105.43189c-1.59895,0 -2.94544,0.51545 -4.03946,1.54636c-1.07298,1.00986 -1.68311,2.33531 -1.83038,3.97634h11.77124c-0.14727,-1.64103 -0.76791,-2.96648 -1.86193,-3.97634c-1.07298,-1.0309 -2.41947,-1.54636 -4.03947,-1.54636z"/><path d="M285.2074,106.88357c0.52598,-1.11506 1.30442,-1.95661 2.33532,-2.52466c1.05194,-0.56805 2.34582,-0.85207 3.88166,-0.85207v2.17752l-0.53648,-0.03155c-1.74623,0 -3.11376,0.53649 -4.10258,1.60947c-0.98883,1.07298 -1.48325,2.57726 -1.48325,4.51283v8.45762h-2.24063v-16.59965h2.14595z"/></g><g stroke-width="0.26458"><path d="M46.54937,217.26608c-1.64103,0 -3.21894,-0.26299 -4.73374,-0.78896c-1.49376,-0.52597 -2.65089,-1.22025 -3.47141,-2.08285l0.91519,-1.79882c0.79948,0.79948 1.86194,1.45168 3.18739,1.95661c1.32545,0.48389 2.69297,0.72584 4.10258,0.72584c1.97765,0 3.46089,-0.35766 4.44972,-1.07298c0.98883,-0.73636 1.48324,-1.68311 1.48324,-2.84024c0,-0.88363 -0.2735,-1.58843 -0.82051,-2.1144c-0.52597,-0.52597 -1.17818,-0.92571 -1.95661,-1.19921c-0.77844,-0.29454 -1.86194,-0.61013 -3.2505,-0.94675c-1.66207,-0.42078 -2.98752,-0.82052 -3.97634,-1.19922c-0.98883,-0.39974 -1.8409,-0.99934 -2.55622,-1.79882c-0.69428,-0.79948 -1.04142,-1.88298 -1.04142,-3.2505c0,-1.11506 0.29454,-2.12492 0.88363,-3.02959c0.58909,-0.92571 1.49376,-1.66207 2.71401,-2.20908c1.22025,-0.54701 2.73505,-0.82051 4.54439,-0.82051c1.26233,0 2.4931,0.17883 3.69232,0.53649c1.22025,0.33662 2.2722,0.81 3.15583,1.42012l-0.78896,1.86194c-0.92571,-0.61013 -1.91454,-1.06246 -2.96648,-1.35701c-1.05194,-0.31558 -2.08285,-0.47337 -3.09271,-0.47337c-1.93557,0 -3.39777,0.3787 -4.3866,1.1361c-0.96779,0.73636 -1.45168,1.69363 -1.45168,2.8718c0,0.88363 0.26299,1.59895 0.78896,2.14596c0.54701,0.52597 1.22025,0.93623 2.01973,1.23077c0.82051,0.27351 1.91453,0.57857 3.28206,0.91519c1.61999,0.39974 2.9244,0.79948 3.91323,1.19921c1.00986,0.3787 1.86194,0.96779 2.55622,1.76726c0.69428,0.77844 1.04142,1.8409 1.04142,3.18739c0,1.11506 -0.30506,2.13544 -0.91519,3.06115c-0.58909,0.90467 -1.50428,1.63051 -2.74557,2.17752c-1.24129,0.52597 -2.76661,0.78896 -4.57595,0.78896z"/><path d="M67.94588,200.35084c1.55687,0 2.96648,0.35766 4.22881,1.07298c1.26233,0.69428 2.25116,1.68311 2.96648,2.96648c0.71532,1.28337 1.07298,2.74557 1.07298,4.3866c0,1.66207 -0.35766,3.13479 -1.07298,4.41816c-0.71532,1.28337 -1.70415,2.28271 -2.96648,2.99804c-1.24129,0.69428 -2.6509,1.04142 -4.22881,1.04142c-1.34649,0 -2.56674,-0.27351 -3.66076,-0.82052c-1.07298,-0.56805 -1.95661,-1.38856 -2.65089,-2.46154v9.24658h-2.24064v-22.72196h2.14596v3.28206c0.67324,-1.09402 1.55687,-1.93557 2.65089,-2.52466c1.11506,-0.58909 2.36687,-0.88363 3.75544,-0.88363zM67.78808,215.24635c1.15714,0 2.20908,-0.26299 3.15583,-0.78896c0.94675,-0.54701 1.68311,-1.31493 2.20908,-2.30375c0.54701,-0.98883 0.82052,-2.1144 0.82052,-3.37674c0,-1.26233 -0.27351,-2.37739 -0.82052,-3.34518c-0.52597,-0.98883 -1.26233,-1.75674 -2.20908,-2.30375c-0.94675,-0.54701 -1.99869,-0.82052 -3.15583,-0.82052c-1.17818,0 -2.24064,0.27351 -3.18739,0.82052c-0.92571,0.54701 -1.66207,1.31493 -2.20908,2.30375c-0.52597,0.96779 -0.78896,2.08285 -0.78896,3.34518c0,1.26233 0.26299,2.38791 0.78896,3.37674c0.54701,0.98883 1.28337,1.75674 2.20908,2.30375c0.94675,0.52597 2.00921,0.78896 3.18739,0.78896z"/><path d="M82.93604,203.72758c0.52597,-1.11506 1.30441,-1.95661 2.33531,-2.52466c1.05194,-0.56805 2.34583,-0.85208 3.88167,-0.85208v2.17752l-0.53649,-0.03155c-1.74622,0 -3.11375,0.53649 -4.10258,1.60947c-0.98883,1.07298 -1.48324,2.57726 -1.48324,4.51283v8.45762h-2.24064v-16.59966h2.14596z"/><path d="M107.48834,209.47118h-13.88564c0.12623,1.72519 0.78896,3.12427 1.98817,4.19725c1.19921,1.05194 2.71401,1.57791 4.54439,1.57791c1.0309,0 1.97765,-0.17883 2.84025,-0.53649c0.86259,-0.3787 1.60947,-0.92571 2.24064,-1.64103l1.26233,1.45168c-0.73636,0.88363 -1.66207,1.55688 -2.77713,2.01973c-1.09402,0.46286 -2.30376,0.69428 -3.6292,0.69428c-1.70415,0 -3.21894,-0.35766 -4.54439,-1.07298c-1.30441,-0.73636 -2.32479,-1.74623 -3.06115,-3.02959c-0.73636,-1.28337 -1.10454,-2.73505 -1.10454,-4.35504c0,-1.61999 0.34714,-3.07167 1.04142,-4.35504c0.71532,-1.28337 1.68311,-2.28271 2.90336,-2.99804c1.24129,-0.71532 2.62986,-1.07298 4.16569,-1.07298c1.53584,0 2.91388,0.35766 4.13413,1.07298c1.22025,0.71532 2.17752,1.71467 2.8718,2.99804c0.69428,1.26233 1.04142,2.71401 1.04142,4.35504zM99.47254,202.27589c-1.59895,0 -2.94544,0.51545 -4.03946,1.54636c-1.07298,1.00986 -1.68311,2.33531 -1.83038,3.97634h11.77124c-0.14727,-1.64103 -0.76792,-2.96648 -1.86194,-3.97634c-1.07298,-1.0309 -2.41947,-1.54636 -4.03946,-1.54636z"/><path d="M117.4291,200.35084c2.167,0 3.82907,0.54701 4.98621,1.64103c1.15714,1.07298 1.73571,2.67193 1.73571,4.79686v10.288h-2.14596v-2.58778c-0.50493,0.86259 -1.25181,1.53584 -2.24064,2.01973c-0.96779,0.48389 -2.12492,0.72584 -3.47141,0.72584c-1.85142,0 -3.32414,-0.44182 -4.41816,-1.32545c-1.09402,-0.88363 -1.64103,-2.05129 -1.64103,-3.50297c0,-1.4096 0.50493,-2.5457 1.5148,-3.40829c1.0309,-0.86259 2.66141,-1.29389 4.89153,-1.29389h5.27023v-1.00986c0,-1.43064 -0.39974,-2.51414 -1.19922,-3.2505c-0.79948,-0.7574 -1.96713,-1.1361 -3.50297,-1.1361c-1.05194,0 -2.06181,0.17883 -3.0296,0.53649c-0.96779,0.33662 -1.79882,0.81 -2.4931,1.42012l-1.00986,-1.67259c0.84155,-0.71532 1.85142,-1.26233 3.0296,-1.64103c1.17817,-0.39974 2.41947,-0.59961 3.72388,-0.59961zM116.64014,215.46725c1.26233,0 2.34583,-0.28402 3.2505,-0.85207c0.90467,-0.58909 1.57791,-1.43064 2.01973,-2.52466v-2.71401h-5.20712c-2.84024,0 -4.26037,0.98883 -4.26037,2.96648c0,0.96779 0.36818,1.7357 1.10454,2.30375c0.73636,0.54701 1.76726,0.82052 3.09271,0.82052z"/><path d="M145.45276,193.66048v23.41624h-2.14596v-3.28206c-0.67324,1.11506 -1.56739,1.96713 -2.68245,2.55622c-1.09402,0.58909 -2.33531,0.88363 -3.72388,0.88363c-1.55687,0 -2.96648,-0.35766 -4.22881,-1.07298c-1.26233,-0.71532 -2.25116,-1.71467 -2.96648,-2.99804c-0.71532,-1.28337 -1.07298,-2.74557 -1.07298,-4.3866c0,-1.64103 0.35766,-3.10323 1.07298,-4.3866c0.71532,-1.28337 1.70415,-2.2722 2.96648,-2.96648c1.26233,-0.71532 2.67193,-1.07298 4.22881,-1.07298c1.34649,0 2.55622,0.28403 3.6292,0.85208c1.09402,0.54701 1.98817,1.357 2.68245,2.42999v-9.97242zM137.08981,215.24635c1.15714,0 2.19856,-0.26299 3.12427,-0.78896c0.94675,-0.54701 1.68311,-1.31493 2.20908,-2.30375c0.54701,-0.98883 0.82051,-2.1144 0.82051,-3.37674c0,-1.26233 -0.2735,-2.38791 -0.82051,-3.37674c-0.52597,-0.98883 -1.26233,-1.74623 -2.20908,-2.2722c-0.92571,-0.54701 -1.96713,-0.82052 -3.12427,-0.82052c-1.17818,0 -2.24064,0.27351 -3.18739,0.82052c-0.92571,0.52597 -1.66207,1.28337 -2.20908,2.2722c-0.52597,0.98883 -0.78896,2.1144 -0.78896,3.37674c0,1.26233 0.26299,2.38791 0.78896,3.37674c0.54701,0.98883 1.28337,1.75674 2.20908,2.30375c0.94675,0.52597 2.00921,0.78896 3.18739,0.78896z"/><path d="M156.151,217.23452c-1.34649,0 -2.64038,-0.18935 -3.88167,-0.56805c-1.22025,-0.39974 -2.17752,-0.89415 -2.8718,-1.48324l1.00986,-1.76726c0.69428,0.54701 1.56739,0.99935 2.61934,1.35701c1.05194,0.33662 2.14596,0.50493 3.28206,0.50493c1.5148,0 2.62986,-0.23143 3.34518,-0.69428c0.73636,-0.48389 1.10454,-1.15714 1.10454,-2.01973c0,-0.61013 -0.19987,-1.0835 -0.59961,-1.42012c-0.39974,-0.35766 -0.90467,-0.62065 -1.5148,-0.78896c-0.61013,-0.18935 -1.42012,-0.36818 -2.42999,-0.53649c-1.34649,-0.25247 -2.42999,-0.50493 -3.2505,-0.7574c-0.82052,-0.27351 -1.52532,-0.72584 -2.11441,-1.35701c-0.56805,-0.63117 -0.85207,-1.50428 -0.85207,-2.61934c0,-1.38856 0.57857,-2.52466 1.73571,-3.4083c1.15714,-0.88363 2.76661,-1.32545 4.82842,-1.32545c1.07298,0 2.14596,0.14727 3.21894,0.44182c1.07298,0.27351 1.95661,0.64168 2.6509,1.10454l-0.97831,1.79882c-1.36752,-0.94675 -2.99804,-1.42012 -4.89153,-1.42012c-1.43064,0 -2.51414,0.25247 -3.2505,0.7574c-0.71532,0.50493 -1.07298,1.16766 -1.07298,1.98817c0,0.63117 0.19987,1.1361 0.59961,1.5148c0.42078,0.3787 0.93623,0.66272 1.54636,0.85207c0.61013,0.16831 1.45168,0.34714 2.52466,0.53649c1.32545,0.25247 2.38791,0.50493 3.18739,0.7574c0.79948,0.25247 1.48324,0.68376 2.05129,1.29389c0.56805,0.61013 0.85207,1.45168 0.85207,2.52466c0,1.45168 -0.61013,2.60882 -1.83038,3.47141c-1.19922,0.84155 -2.8718,1.26233 -5.01777,1.26233z"/><path d="M175.59084,200.35084c2.08285,0 3.7344,0.61013 4.95465,1.83038c1.24129,1.19921 1.86194,2.95596 1.86194,5.27023v9.62528h-2.24064v-9.40437c0,-1.72519 -0.4313,-3.04011 -1.29389,-3.94478c-0.86259,-0.90467 -2.09337,-1.35701 -3.69232,-1.35701c-1.7883,0 -3.20843,0.53649 -4.26037,1.60947c-1.0309,1.05194 -1.54636,2.51414 -1.54636,4.3866v8.71008h-2.24064v-23.41624h2.24064v9.71995c0.61013,-0.96779 1.45168,-1.71467 2.52466,-2.24064c1.07298,-0.52597 2.30376,-0.78896 3.69232,-0.78896z"/><path d="M203.01491,209.47118h-13.88565c0.12623,1.72519 0.78896,3.12427 1.98817,4.19725c1.19921,1.05194 2.71401,1.57791 4.54439,1.57791c1.0309,0 1.97765,-0.17883 2.84025,-0.53649c0.86259,-0.3787 1.60947,-0.92571 2.24064,-1.64103l1.26233,1.45168c-0.73636,0.88363 -1.66207,1.55688 -2.77713,2.01973c-1.09402,0.46286 -2.30376,0.69428 -3.6292,0.69428c-1.70415,0 -3.21894,-0.35766 -4.54439,-1.07298c-1.30441,-0.73636 -2.32479,-1.74623 -3.06115,-3.02959c-0.73636,-1.28337 -1.10454,-2.73505 -1.10454,-4.35504c0,-1.61999 0.34714,-3.07167 1.04142,-4.35504c0.71532,-1.28337 1.68311,-2.28271 2.90336,-2.99804c1.24129,-0.71532 2.62986,-1.07298 4.16569,-1.07298c1.53584,0 2.91388,0.35766 4.13413,1.07298c1.22025,0.71532 2.17752,1.71467 2.8718,2.99804c0.69428,1.26233 1.04142,2.71401 1.04142,4.35504zM194.9991,202.27589c-1.59895,0 -2.94544,0.51545 -4.03946,1.54636c-1.07298,1.00986 -1.68311,2.33531 -1.83038,3.97634h11.77124c-0.14727,-1.64103 -0.76792,-2.96648 -1.86194,-3.97634c-1.07298,-1.0309 -2.41947,-1.54636 -4.03946,-1.54636z"/><path d="M222.07604,209.47118h-13.88564c0.12623,1.72519 0.78896,3.12427 1.98818,4.19725c1.19922,1.05194 2.71401,1.57791 4.54438,1.57791c1.0309,0 1.97765,-0.17883 2.84025,-0.53649c0.8626,-0.3787 1.60948,-0.92571 2.24063,-1.64103l1.26235,1.45168c-0.73637,0.88363 -1.66207,1.55688 -2.77713,2.01973c-1.09403,0.46286 -2.30377,0.69428 -3.6292,0.69428c-1.70415,0 -3.21895,-0.35766 -4.5444,-1.07298c-1.3044,-0.73636 -2.32479,-1.74623 -3.06115,-3.02959c-0.73635,-1.28337 -1.10453,-2.73505 -1.10453,-4.35504c0,-1.61999 0.34714,-3.07167 1.04141,-4.35504c0.71533,-1.28337 1.68312,-2.28271 2.90337,-2.99804c1.24129,-0.71532 2.62985,-1.07298 4.16568,-1.07298c1.53584,0 2.91388,0.35766 4.13415,1.07298c1.22025,0.71532 2.17752,1.71467 2.8718,2.99804c0.69428,1.26233 1.04143,2.71401 1.04143,4.35504zM214.06024,202.27589c-1.59895,0 -2.94544,0.51545 -4.03946,1.54636c-1.07298,1.00986 -1.68311,2.33531 -1.83038,3.97634h11.77124c-0.14727,-1.64103 -0.76791,-2.96648 -1.86193,-3.97634c-1.07298,-1.0309 -2.41947,-1.54636 -4.03947,-1.54636z"/><path d="M235.42513,216.06686c-0.42077,0.3787 -0.94674,0.67324 -1.5779,0.88363c-0.61013,0.18935 -1.25182,0.28403 -1.92507,0.28403c-1.55687,0 -2.75608,-0.42078 -3.59763,-1.26233c-0.84155,-0.84155 -1.26233,-2.03025 -1.26233,-3.56609v-10.03553h-2.96648v-1.8935h2.96648v-3.6292h2.24063v3.6292h5.04933v1.8935h-5.04933v9.9093c0,0.98883 0.24195,1.74622 0.72585,2.2722c0.50493,0.50493 1.22025,0.7574 2.14595,0.7574c0.46285,0 0.90467,-0.07364 1.32545,-0.22091c0.44182,-0.14727 0.82052,-0.35766 1.1361,-0.63117z"/><path d="M243.94582,217.23452c-1.3465,0 -2.64039,-0.18935 -3.88168,-0.56805c-1.22025,-0.39974 -2.17752,-0.89415 -2.8718,-1.48324l1.00985,-1.76726c0.69428,0.54701 1.5674,0.99935 2.61935,1.35701c1.05194,0.33662 2.14595,0.50493 3.28205,0.50493c1.5148,0 2.62986,-0.23143 3.34518,-0.69428c0.73637,-0.48389 1.10455,-1.15714 1.10455,-2.01973c0,-0.61013 -0.19987,-1.0835 -0.59962,-1.42012c-0.39973,-0.35766 -0.90466,-0.62065 -1.51478,-0.78896c-0.61013,-0.18935 -1.42013,-0.36818 -2.43,-0.53649c-1.34649,-0.25247 -2.42999,-0.50493 -3.2505,-0.7574c-0.82052,-0.27351 -1.52532,-0.72584 -2.1144,-1.35701c-0.56805,-0.63117 -0.85208,-1.50428 -0.85208,-2.61934c0,-1.38856 0.57857,-2.52466 1.7357,-3.4083c1.15713,-0.88363 2.76661,-1.32545 4.82843,-1.32545c1.07298,0 2.14596,0.14727 3.21893,0.44182c1.07298,0.27351 1.95662,0.64168 2.6509,1.10454l-0.9783,1.79882c-1.36752,-0.94675 -2.99803,-1.42012 -4.89153,-1.42012c-1.43065,0 -2.51415,0.25247 -3.2505,0.7574c-0.71532,0.50493 -1.07298,1.16766 -1.07298,1.98817c0,0.63117 0.19987,1.1361 0.5996,1.5148c0.42077,0.3787 0.93622,0.66272 1.54635,0.85207c0.61013,0.16831 1.45168,0.34714 2.52465,0.53649c1.32545,0.25247 2.38792,0.50493 3.1874,0.7574c0.79947,0.25247 1.48323,0.68376 2.05128,1.29389c0.56805,0.61013 0.85208,1.45168 0.85208,2.52466c0,1.45168 -0.61013,2.60882 -1.83038,3.47141c-1.19922,0.84155 -2.8718,1.26233 -5.01776,1.26233z"/></g><g stroke-width="0.26458"><path d="M268.62263,208.08259c-1.64103,0 -3.21894,-0.26299 -4.73373,-0.78896c-1.49377,-0.52597 -2.65091,-1.22025 -3.47142,-2.08285l0.9152,-1.79882c0.79947,0.79948 1.86193,1.45168 3.18738,1.95661c1.32545,0.48389 2.69298,0.72584 4.10258,0.72584c1.97765,0 3.46089,-0.35766 4.44973,-1.07298c0.98882,-0.73636 1.48323,-1.68311 1.48323,-2.84024c0,-0.88363 -0.2735,-1.58843 -0.8205,-2.11441c-0.52598,-0.52597 -1.17819,-0.92571 -1.95662,-1.19921c-0.77843,-0.29454 -1.86194,-0.61013 -3.2505,-0.94675c-1.66207,-0.42078 -2.98751,-0.82051 -3.97633,-1.19921c-0.98883,-0.39974 -1.84091,-0.99935 -2.55623,-1.79882c-0.69428,-0.79948 -1.04143,-1.88298 -1.04143,-3.2505c0,-1.11506 0.29454,-2.12492 0.88363,-3.02959c0.58908,-0.92571 1.49376,-1.66207 2.71402,-2.20908c1.22025,-0.54701 2.73505,-0.82052 4.54438,-0.82052c1.26233,0 2.49311,0.17883 3.69233,0.53649c1.22025,0.33662 2.27219,0.81 3.15583,1.42012l-0.78897,1.86194c-0.9257,-0.61013 -1.91453,-1.06246 -2.96648,-1.35701c-1.05194,-0.31558 -2.08284,-0.47337 -3.0927,-0.47337c-1.93557,0 -3.39777,0.3787 -4.3866,1.1361c-0.96778,0.73636 -1.45168,1.69363 -1.45168,2.8718c0,0.88363 0.26298,1.59895 0.78895,2.14596c0.54702,0.52597 1.22026,0.93623 2.01973,1.23077c0.82052,0.27351 1.91454,0.57857 3.28207,0.91519c1.61999,0.39974 2.9244,0.79948 3.91323,1.19921c1.00985,0.3787 1.86192,0.96779 2.55621,1.76726c0.69428,0.77844 1.04143,1.8409 1.04143,3.18739c0,1.11506 -0.30506,2.13544 -0.91518,3.06115c-0.5891,0.90467 -1.50429,1.63051 -2.74558,2.17752c-1.2413,0.52597 -2.76662,0.78896 -4.57595,0.78896z"/><path d="M281.46684,184.477h2.24063v23.41624h-2.24063z"/><path d="M289.95598,191.29359h2.24065v16.59965h-2.24065zM291.09208,187.66439c-0.46285,0 -0.85207,-0.15779 -1.16765,-0.47338c-0.31558,-0.31558 -0.47338,-0.69428 -0.47338,-1.1361c0,-0.42078 0.15779,-0.78896 0.47338,-1.10454c0.31558,-0.31558 0.7048,-0.47338 1.16765,-0.47338c0.46285,0 0.85207,0.15779 1.16765,0.47338c0.31558,0.29454 0.47338,0.6522 0.47338,1.07298c0,0.46286 -0.15779,0.85207 -0.47338,1.16766c-0.31558,0.31558 -0.7048,0.47338 -1.16765,0.47338z"/><path d="M313.59311,184.477v23.41624h-2.14597v-3.28206c-0.67324,1.11506 -1.56739,1.96713 -2.68245,2.55622c-1.09402,0.58909 -2.33531,0.88363 -3.72388,0.88363c-1.55687,0 -2.96647,-0.35766 -4.22881,-1.07298c-1.26233,-0.71532 -2.25116,-1.71467 -2.96648,-2.99804c-0.71532,-1.28337 -1.07298,-2.74557 -1.07298,-4.3866c0,-1.64103 0.35766,-3.10323 1.07298,-4.3866c0.71532,-1.28337 1.70414,-2.2722 2.96648,-2.96648c1.26233,-0.71532 2.67194,-1.07298 4.22881,-1.07298c1.34649,0 2.55622,0.28402 3.6292,0.85207c1.09402,0.54701 1.98817,1.35701 2.68245,2.42999v-9.97242zM305.23016,206.06286c1.15713,0 2.19856,-0.26299 3.12428,-0.78896c0.94675,-0.54701 1.68311,-1.31493 2.20908,-2.30375c0.54702,-0.98883 0.82052,-2.1144 0.82052,-3.37674c0,-1.26233 -0.27351,-2.38791 -0.82052,-3.37674c-0.52597,-0.98883 -1.26233,-1.74622 -2.20908,-2.2722c-0.92572,-0.54701 -1.96714,-0.82052 -3.12428,-0.82052c-1.17817,0 -2.24063,0.27351 -3.18738,0.82052c-0.92572,0.52597 -1.66207,1.28337 -2.20908,2.2722c-0.52597,0.98883 -0.78895,2.1144 -0.78895,3.37674c0,1.26233 0.26298,2.38791 0.78895,3.37674c0.547,0.98883 1.28336,1.75674 2.20908,2.30375c0.94675,0.52597 2.00921,0.78896 3.18738,0.78896z"/><path d="M334.29533,200.2877h-13.88566c0.12623,1.72519 0.78896,3.12427 1.98818,4.19725c1.19922,1.05194 2.71402,1.57791 4.5444,1.57791c1.0309,0 1.97765,-0.17883 2.84023,-0.53649c0.8626,-0.3787 1.60948,-0.92571 2.24065,-1.64103l1.26233,1.45168c-0.73637,0.88363 -1.66207,1.55687 -2.77713,2.01973c-1.09402,0.46285 -2.30375,0.69428 -3.6292,0.69428c-1.70415,0 -3.21895,-0.35766 -4.5444,-1.07298c-1.3044,-0.73636 -2.32479,-1.74622 -3.06115,-3.02959c-0.73635,-1.28337 -1.10453,-2.73505 -1.10453,-4.35504c0,-1.61999 0.34714,-3.07167 1.04143,-4.35504c0.71532,-1.28337 1.6831,-2.28272 2.90335,-2.99804c1.2413,-0.71532 2.62987,-1.07298 4.1657,-1.07298c1.53584,0 2.91388,0.35766 4.13413,1.07298c1.22025,0.71532 2.17752,1.71467 2.8718,2.99804c0.69428,1.26233 1.04143,2.71401 1.04143,4.35504zM326.27953,193.09241c-1.59895,0 -2.94544,0.51545 -4.03947,1.54636c-1.07297,1.00986 -1.6831,2.33531 -1.83038,3.97634h11.77124c-0.14727,-1.64103 -0.76791,-2.96648 -1.86193,-3.97634c-1.07298,-1.0309 -2.41947,-1.54636 -4.03946,-1.54636z"/><path d="M345.46689,208.08259c-1.64102,0 -3.21893,-0.26299 -4.73373,-0.78896c-1.49377,-0.52597 -2.6509,-1.22025 -3.4714,-2.08285l0.91518,-1.79882c0.79948,0.79948 1.86195,1.45168 3.1874,1.95661c1.32544,0.48389 2.69296,0.72584 4.10256,0.72584c1.97765,0 3.46089,-0.35766 4.44973,-1.07298c0.98882,-0.73636 1.48323,-1.68311 1.48323,-2.84024c0,-0.88363 -0.2735,-1.58843 -0.8205,-2.11441c-0.52597,-0.52597 -1.17818,-0.92571 -1.95662,-1.19921c-0.77843,-0.29454 -1.86194,-0.61013 -3.2505,-0.94675c-1.66207,-0.42078 -2.98751,-0.82051 -3.97633,-1.19921c-0.98883,-0.39974 -1.84091,-0.99935 -2.55623,-1.79882c-0.69428,-0.79948 -1.04143,-1.88298 -1.04143,-3.2505c0,-1.11506 0.29454,-2.12492 0.88363,-3.02959c0.5891,-0.92571 1.49377,-1.66207 2.71402,-2.20908c1.22025,-0.54701 2.73505,-0.82052 4.54438,-0.82052c1.26233,0 2.49311,0.17883 3.69233,0.53649c1.22025,0.33662 2.27219,0.81 3.15583,1.42012l-0.78895,1.86194c-0.92572,-0.61013 -1.91454,-1.06246 -2.96648,-1.35701c-1.05195,-0.31558 -2.08286,-0.47337 -3.09272,-0.47337c-1.93557,0 -3.39777,0.3787 -4.3866,1.1361c-0.96778,0.73636 -1.45168,1.69363 -1.45168,2.8718c0,0.88363 0.26299,1.59895 0.78897,2.14596c0.547,0.52597 1.22025,0.93623 2.01973,1.23077c0.82052,0.27351 1.91454,0.57857 3.28205,0.91519c1.61999,0.39974 2.9244,0.79948 3.91323,1.19921c1.00987,0.3787 1.86194,0.96779 2.55623,1.76726c0.69428,0.77844 1.04143,1.8409 1.04143,3.18739c0,1.11506 -0.30507,2.13544 -0.9152,3.06115c-0.58908,0.90467 -1.50428,1.63051 -2.74558,2.17752c-1.24129,0.52597 -2.7666,0.78896 -4.57595,0.78896z"/><path d="M366.76873,191.16735c2.08284,0 3.73439,0.61013 4.95465,1.83038c1.24129,1.19921 1.86193,2.95596 1.86193,5.27023v9.62528h-2.24063v-9.40437c0,-1.72519 -0.4313,-3.04011 -1.2939,-3.94478c-0.8626,-0.90467 -2.09337,-1.35701 -3.69233,-1.35701c-1.7883,0 -3.20842,0.53649 -4.26036,1.60947c-1.0309,1.05194 -1.54635,2.51414 -1.54635,4.3866v8.71008h-2.24065v-23.41624h2.24065v9.71995c0.61012,-0.96779 1.45167,-1.71467 2.52465,-2.24064c1.07298,-0.52597 2.30376,-0.78896 3.69233,-0.78896z"/><path d="M386.52411,208.05103c-1.59895,0 -3.04011,-0.35766 -4.32348,-1.07298c-1.28337,-0.73636 -2.29324,-1.74622 -3.0296,-3.02959c-0.73635,-1.28337 -1.10453,-2.73505 -1.10453,-4.35504c0,-1.61999 0.36818,-3.07167 1.10453,-4.35504c0.73637,-1.28337 1.74623,-2.28272 3.0296,-2.99804c1.28337,-0.71532 2.72453,-1.07298 4.32348,-1.07298c1.59895,0 3.04012,0.35766 4.3235,1.07298c1.28337,0.71532 2.28271,1.71467 2.99803,2.99804c0.73635,1.28337 1.10453,2.73505 1.10453,4.35504c0,1.61999 -0.36818,3.07167 -1.10453,4.35504c-0.71532,1.28337 -1.71466,2.29324 -2.99803,3.02959c-1.28338,0.71532 -2.72455,1.07298 -4.3235,1.07298zM386.52411,206.06286c1.17818,0 2.23012,-0.26299 3.15583,-0.78896c0.94675,-0.54701 1.68311,-1.31493 2.20908,-2.30375c0.52598,-0.98883 0.78897,-2.1144 0.78897,-3.37674c0,-1.26233 -0.26299,-2.38791 -0.78897,-3.37674c-0.52597,-0.98883 -1.26233,-1.74622 -2.20908,-2.2722c-0.9257,-0.54701 -1.97765,-0.82052 -3.15583,-0.82052c-1.17817,0 -2.24063,0.27351 -3.18738,0.82052c-0.9257,0.52597 -1.66206,1.28337 -2.20908,2.2722c-0.52597,0.98883 -0.78895,2.1144 -0.78895,3.37674c0,1.26233 0.26298,2.38791 0.78895,3.37674c0.54702,0.98883 1.28337,1.75674 2.20908,2.30375c0.94675,0.52597 2.00921,0.78896 3.18738,0.78896z"/><path d="M423.41567,191.29359l-6.2801,16.59965h-2.1144l-5.23868,-13.60162l-5.23868,13.60162h-2.1144l-6.24853,-16.59965h2.14595l5.20713,14.10655l5.33335,-14.10655h1.92505l5.30178,14.10655l5.27023,-14.10655z"/></g><g stroke-width="0.26458"><path d="M236.74579,137.38046v22.09079h-1.92505l-14.20122,-17.9251v17.9251h-2.33532v-22.09079h1.92505l14.23279,17.9251v-17.9251z"/><path d="M250.25273,159.62905c-1.59895,0 -3.04011,-0.35766 -4.32348,-1.07298c-1.28337,-0.73636 -2.29324,-1.74623 -3.0296,-3.02959c-0.73635,-1.28337 -1.10453,-2.73505 -1.10453,-4.35504c0,-1.61999 0.36818,-3.07167 1.10453,-4.35504c0.73637,-1.28337 1.74623,-2.28271 3.0296,-2.99804c1.28337,-0.71532 2.72453,-1.07298 4.32348,-1.07298c1.59895,0 3.04011,0.35766 4.32348,1.07298c1.28338,0.71532 2.28273,1.71467 2.99805,2.99804c0.73635,1.28337 1.10453,2.73505 1.10453,4.35504c0,1.61999 -0.36818,3.07167 -1.10453,4.35504c-0.71532,1.28337 -1.71467,2.29323 -2.99805,3.02959c-1.28337,0.71532 -2.72453,1.07298 -4.32348,1.07298zM250.25273,157.64088c1.17818,0 2.23012,-0.26299 3.15583,-0.78896c0.94675,-0.54701 1.68311,-1.31493 2.20908,-2.30375c0.52598,-0.98883 0.78897,-2.1144 0.78897,-3.37674c0,-1.26233 -0.26299,-2.38791 -0.78897,-3.37674c-0.52597,-0.98883 -1.26233,-1.74623 -2.20908,-2.2722c-0.9257,-0.54701 -1.97765,-0.82052 -3.15583,-0.82052c-1.17817,0 -2.24063,0.27351 -3.18738,0.82052c-0.92572,0.52597 -1.66207,1.28337 -2.20908,2.2722c-0.52598,0.98883 -0.78897,2.1144 -0.78897,3.37674c0,1.26233 0.26299,2.38791 0.78897,3.37674c0.547,0.98883 1.28336,1.75674 2.20908,2.30375c0.94675,0.52597 2.00921,0.78896 3.18738,0.78896z"/><path d="M271.99636,158.46139c-0.42078,0.3787 -0.94676,0.67324 -1.57792,0.88363c-0.61012,0.18935 -1.2518,0.28403 -1.92505,0.28403c-1.55687,0 -2.75608,-0.42078 -3.59763,-1.26233c-0.84156,-0.84155 -1.26235,-2.03025 -1.26235,-3.56609v-10.03553h-2.96648v-1.8935h2.96648v-3.6292h2.24065v3.6292h5.04933v1.8935h-5.04933v9.9093c0,0.98883 0.24194,1.74622 0.72583,2.2722c0.50493,0.50493 1.22026,0.7574 2.14597,0.7574c0.46285,0 0.90467,-0.07364 1.32545,-0.22091c0.44182,-0.14727 0.82052,-0.35766 1.1361,-0.63117z"/><path d="M289.92136,151.86571h-13.88564c0.12623,1.72519 0.78896,3.12427 1.98818,4.19725c1.19922,1.05194 2.71402,1.57791 4.5444,1.57791c1.0309,0 1.97765,-0.17883 2.84023,-0.53649c0.8626,-0.3787 1.60948,-0.92571 2.24065,-1.64103l1.26233,1.45168c-0.73637,0.88363 -1.66207,1.55688 -2.77713,2.01973c-1.09402,0.46286 -2.30375,0.69428 -3.6292,0.69428c-1.70415,0 -3.21895,-0.35766 -4.5444,-1.07298c-1.3044,-0.73636 -2.32479,-1.74623 -3.06115,-3.02959c-0.73635,-1.28337 -1.10453,-2.73505 -1.10453,-4.35504c0,-1.61999 0.34714,-3.07167 1.04143,-4.35504c0.71532,-1.28337 1.6831,-2.28271 2.90335,-2.99804c1.24129,-0.71532 2.62985,-1.07298 4.1657,-1.07298c1.53584,0 2.91388,0.35766 4.13413,1.07298c1.22025,0.71532 2.17752,1.71467 2.8718,2.99804c0.69428,1.26233 1.04143,2.71401 1.04143,4.35504zM281.90557,144.67043c-1.59895,0 -2.94544,0.51545 -4.03947,1.54636c-1.07297,1.00986 -1.6831,2.33531 -1.83038,3.97634h11.77124c-0.14727,-1.64103 -0.76791,-2.96648 -1.86193,-3.97634c-1.07298,-1.0309 -2.41947,-1.54636 -4.03946,-1.54636z"/><path d="M296.20137,139.40019h-7.76335v-2.01973h17.86199v2.01973h-7.76333v20.07106h-2.3353z"/><path d="M314.44198,142.74537c2.167,0 3.82908,0.54701 4.98622,1.64103c1.15713,1.07298 1.7357,2.67193 1.7357,4.79686v10.288h-2.14597v-2.58778c-0.50493,0.86259 -1.25181,1.53584 -2.24063,2.01973c-0.96778,0.48389 -2.12493,0.72584 -3.47142,0.72584c-1.85142,0 -3.32414,-0.44182 -4.41816,-1.32545c-1.09402,-0.88363 -1.64103,-2.05129 -1.64103,-3.50297c0,-1.4096 0.50493,-2.5457 1.5148,-3.40829c1.0309,-0.86259 2.66141,-1.29389 4.89153,-1.29389h5.27023v-1.00986c0,-1.43064 -0.39973,-2.51414 -1.1992,-3.2505c-0.79948,-0.7574 -1.96714,-1.1361 -3.50298,-1.1361c-1.05194,0 -2.0618,0.17883 -3.0296,0.53649c-0.96778,0.33662 -1.79882,0.81 -2.4931,1.42012l-1.00985,-1.67259c0.84155,-0.71532 1.85141,-1.26233 3.02958,-1.64103c1.17818,-0.39974 2.41947,-0.59961 3.72388,-0.59961zM313.65303,157.86178c1.26233,0 2.34583,-0.28402 3.2505,-0.85207c0.90467,-0.58909 1.57791,-1.43064 2.01973,-2.52466v-2.71401h-5.20711c-2.84025,0 -4.26038,0.98883 -4.26038,2.96648c0,0.96779 0.36818,1.7357 1.10455,2.30375c0.73635,0.54701 1.76725,0.82052 3.0927,0.82052z"/><path d="M333.40846,151.13987l-3.91323,3.59765v4.73374h-2.24065v-23.41624h2.24065v15.87381l9.90929,-9.05723h2.77713l-7.10061,6.78503l7.76333,9.81463h-2.74556z"/><path d="M360.01201,151.86571h-13.88564c0.12623,1.72519 0.78896,3.12427 1.98818,4.19725c1.19922,1.05194 2.71401,1.57791 4.54438,1.57791c1.0309,0 1.97765,-0.17883 2.84025,-0.53649c0.86259,-0.3787 1.60946,-0.92571 2.24063,-1.64103l1.26235,1.45168c-0.73637,0.88363 -1.66207,1.55688 -2.77713,2.01973c-1.09403,0.46286 -2.30377,0.69428 -3.6292,0.69428c-1.70415,0 -3.21895,-0.35766 -4.5444,-1.07298c-1.3044,-0.73636 -2.32479,-1.74623 -3.06115,-3.02959c-0.73635,-1.28337 -1.10453,-2.73505 -1.10453,-4.35504c0,-1.61999 0.34714,-3.07167 1.04141,-4.35504c0.71533,-1.28337 1.68312,-2.28271 2.90337,-2.99804c1.24129,-0.71532 2.62985,-1.07298 4.16568,-1.07298c1.53584,0 2.91388,0.35766 4.13415,1.07298c1.22025,0.71532 2.17752,1.71467 2.8718,2.99804c0.69427,1.26233 1.04141,2.71401 1.04141,4.35504zM351.99621,144.67043c-1.59895,0 -2.94544,0.51545 -4.03946,1.54636c-1.07298,1.00986 -1.68311,2.33531 -1.83038,3.97634h11.77124c-0.14727,-1.64103 -0.76791,-2.96648 -1.86193,-3.97634c-1.07298,-1.0309 -2.41947,-1.54636 -4.03947,-1.54636z"/><path d="M366.76544,146.12211c0.52597,-1.11506 1.3044,-1.95661 2.3353,-2.52466c1.05195,-0.56805 2.34584,-0.85207 3.88168,-0.85207v2.17752l-0.5365,-0.03155c-1.74622,0 -3.11375,0.53649 -4.10258,1.60947c-0.98882,1.07298 -1.48323,2.57726 -1.48323,4.51283v8.45762h-2.24065v-16.59965h2.14597z"/></g><g stroke-width="0.26458"><path d="M89.15309,132.37131l-7.44775,22.09079h-2.46154l-6.46945,-18.84029l-6.50101,18.84029h-2.42999l-7.44775,-22.09079h2.39843l6.37477,18.99808l6.59568,-18.99808h2.17752l6.50101,19.09276l6.46945,-19.09276z"/><path d="M106.13137,146.85656h-13.88564c0.12623,1.72519 0.78896,3.12427 1.98817,4.19725c1.19921,1.05194 2.71401,1.57791 4.54439,1.57791c1.0309,0 1.97765,-0.17883 2.84025,-0.53649c0.86259,-0.3787 1.60947,-0.92571 2.24064,-1.64103l1.26233,1.45168c-0.73636,0.88363 -1.66207,1.55687 -2.77713,2.01973c-1.09402,0.46285 -2.30375,0.69428 -3.6292,0.69428c-1.70415,0 -3.21894,-0.35766 -4.54439,-1.07298c-1.30441,-0.73636 -2.32479,-1.74622 -3.06115,-3.02959c-0.73636,-1.28337 -1.10454,-2.73505 -1.10454,-4.35504c0,-1.61999 0.34714,-3.07167 1.04142,-4.35504c0.71532,-1.28337 1.68311,-2.28272 2.90336,-2.99804c1.24129,-0.71532 2.62986,-1.07298 4.16569,-1.07298c1.53584,0 2.91388,0.35766 4.13414,1.07298c1.22025,0.71532 2.17752,1.71467 2.8718,2.99804c0.69428,1.26233 1.04142,2.71401 1.04142,4.35504zM98.11557,139.66127c-1.59895,0 -2.94544,0.51545 -4.03946,1.54636c-1.07298,1.00986 -1.68311,2.33531 -1.83038,3.97634h11.77124c-0.14727,-1.64103 -0.76792,-2.96648 -1.86194,-3.97634c-1.07298,-1.0309 -2.41947,-1.54636 -4.03946,-1.54636z"/><path d="M110.73882,131.04586h2.24064v23.41624h-2.24064z"/><path d="M126.10768,154.61989c-1.64103,0 -3.11375,-0.35766 -4.41816,-1.07298c-1.28337,-0.71532 -2.29323,-1.71467 -3.0296,-2.99804c-0.73636,-1.30441 -1.10454,-2.76661 -1.10454,-4.3866c0,-1.61999 0.36818,-3.07167 1.10454,-4.35504c0.73636,-1.28337 1.74623,-2.28272 3.0296,-2.99804c1.30441,-0.71532 2.77713,-1.07298 4.41816,-1.07298c1.43064,0 2.70349,0.28402 3.81855,0.85207c1.1361,0.54701 2.03025,1.35701 2.68245,2.42999l-1.67259,1.1361c-0.54701,-0.82052 -1.24129,-1.43064 -2.08285,-1.83038c-0.84155,-0.42078 -1.75674,-0.63117 -2.74557,-0.63117c-1.19921,0 -2.28272,0.2735 -3.2505,0.82051c-0.94675,0.52597 -1.69363,1.28337 -2.24064,2.2722c-0.52597,0.98883 -0.78896,2.1144 -0.78896,3.37674c0,1.28337 0.26299,2.41947 0.78896,3.40829c0.54701,0.96779 1.29389,1.72519 2.24064,2.2722c0.96779,0.52597 2.05129,0.78896 3.2505,0.78896c0.98883,0 1.90402,-0.19987 2.74557,-0.59961c0.84155,-0.39974 1.53584,-1.00987 2.08285,-1.83038l1.67259,1.1361c-0.65221,1.07298 -1.54636,1.8935 -2.68245,2.46155c-1.1361,0.54701 -2.40895,0.82051 -3.81855,0.82051z"/><path d="M143.49626,154.61989c-1.59895,0 -3.04011,-0.35766 -4.32348,-1.07298c-1.28337,-0.73636 -2.29323,-1.74622 -3.0296,-3.02959c-0.73636,-1.28337 -1.10454,-2.73505 -1.10454,-4.35504c0,-1.61999 0.36818,-3.07167 1.10454,-4.35504c0.73636,-1.28337 1.74623,-2.28272 3.0296,-2.99804c1.28337,-0.71532 2.72453,-1.07298 4.32348,-1.07298c1.59895,0 3.04011,0.35766 4.32348,1.07298c1.28337,0.71532 2.28272,1.71467 2.99804,2.99804c0.73636,1.28337 1.10454,2.73505 1.10454,4.35504c0,1.61999 -0.36818,3.07167 -1.10454,4.35504c-0.71532,1.28337 -1.71467,2.29324 -2.99804,3.02959c-1.28337,0.71532 -2.72453,1.07298 -4.32348,1.07298zM143.49626,152.63172c1.17818,0 2.23012,-0.26299 3.15583,-0.78896c0.94675,-0.54701 1.68311,-1.31493 2.20908,-2.30375c0.52597,-0.98883 0.78896,-2.1144 0.78896,-3.37674c0,-1.26233 -0.26299,-2.38791 -0.78896,-3.37674c-0.52597,-0.98883 -1.26233,-1.74622 -2.20908,-2.2722c-0.92571,-0.54701 -1.97765,-0.82051 -3.15583,-0.82051c-1.17818,0 -2.24064,0.2735 -3.18739,0.82051c-0.92571,0.52597 -1.66207,1.28337 -2.20908,2.2722c-0.52597,0.98883 -0.78896,2.1144 -0.78896,3.37674c0,1.26233 0.26299,2.38791 0.78896,3.37674c0.54701,0.98883 1.28337,1.75674 2.20908,2.30375c0.94675,0.52597 2.00921,0.78896 3.18739,0.78896z"/><path d="M177.20046,137.73621c2.08285,0 3.71336,0.59961 4.89153,1.79882c1.19921,1.19921 1.79882,2.96648 1.79882,5.30179v9.62528h-2.24064v-9.40437c0,-1.72519 -0.42078,-3.04011 -1.26233,-3.94479c-0.82051,-0.90467 -1.98817,-1.35701 -3.50297,-1.35701c-1.72519,0 -3.08219,0.53649 -4.07102,1.60947c-0.98883,1.05194 -1.48324,2.51414 -1.48324,4.3866v8.71008h-2.24064v-9.40437c0,-1.72519 -0.42078,-3.04011 -1.26233,-3.94479c-0.82052,-0.90467 -1.99869,-1.35701 -3.53453,-1.35701c-1.70415,0 -3.06115,0.53649 -4.07102,1.60947c-0.98883,1.05194 -1.48324,2.51414 -1.48324,4.3866v8.71008h-2.24064v-16.59965h2.14596v3.02959c0.58909,-1.00986 1.4096,-1.7883 2.46154,-2.33531c1.05194,-0.54701 2.26168,-0.82052 3.6292,-0.82052c1.38856,0 2.58778,0.29454 3.59764,0.88363c1.0309,0.58909 1.79882,1.4622 2.30375,2.61934c0.61013,-1.09402 1.48324,-1.94609 2.61934,-2.55622c1.15714,-0.63117 2.47206,-0.94675 3.94478,-0.94675z"/><path d="M204.4983,146.85656h-13.88564c0.12623,1.72519 0.78896,3.12427 1.98817,4.19725c1.19921,1.05194 2.71401,1.57791 4.54439,1.57791c1.0309,0 1.97765,-0.17883 2.84025,-0.53649c0.86259,-0.3787 1.60947,-0.92571 2.24064,-1.64103l1.26234,1.45168c-0.73637,0.88363 -1.66208,1.55687 -2.77714,2.01973c-1.09402,0.46285 -2.30376,0.69428 -3.6292,0.69428c-1.70415,0 -3.21894,-0.35766 -4.54439,-1.07298c-1.30441,-0.73636 -2.32479,-1.74622 -3.06115,-3.02959c-0.73636,-1.28337 -1.10454,-2.73505 -1.10454,-4.35504c0,-1.61999 0.34714,-3.07167 1.04142,-4.35504c0.71532,-1.28337 1.68311,-2.28272 2.90336,-2.99804c1.24129,-0.71532 2.62986,-1.07298 4.16569,-1.07298c1.53584,0 2.91388,0.35766 4.13413,1.07298c1.22026,0.71532 2.17753,1.71467 2.87181,2.99804c0.69427,1.26233 1.04141,2.71401 1.04141,4.35504zM196.4825,139.66127c-1.59895,0 -2.94544,0.51545 -4.03946,1.54636c-1.07298,1.00986 -1.68311,2.33531 -1.83038,3.97634h11.77124c-0.14727,-1.64103 -0.76792,-2.96648 -1.86194,-3.97634c-1.07298,-1.0309 -2.41947,-1.54636 -4.03946,-1.54636z"/></g><g stroke-width="0.26458"><path d="M100.97029,166.60065v22.09079h-2.24064v-17.67264l-8.67853,14.86395h-1.10454l-8.67853,-14.76927v17.57796h-2.24064v-22.09079h1.92505l9.59372,16.37875l9.49904,-16.37875z"/><path d="M122.65082,172.09179v16.59965h-2.14596v-3.02959c-0.58909,1.00986 -1.39908,1.79882 -2.42999,2.36687c-1.0309,0.54701 -2.20908,0.82051 -3.53453,0.82051c-2.167,0 -3.88167,-0.59961 -5.144,-1.79882c-1.24129,-1.22025 -1.86194,-2.99804 -1.86194,-5.33335v-9.62528h2.24064v9.40437c0,1.74622 0.4313,3.07167 1.29389,3.97634c0.86259,0.90467 2.09337,1.35701 3.69232,1.35701c1.74622,0 3.12427,-0.52597 4.13414,-1.57791c1.00986,-1.07298 1.5148,-2.55622 1.5148,-4.44972v-8.71008z"/><path d="M133.38059,188.84923c-1.34649,0 -2.64038,-0.18935 -3.88167,-0.56805c-1.22025,-0.39974 -2.17752,-0.89415 -2.8718,-1.48324l1.00987,-1.76726c0.69428,0.54701 1.56739,0.99935 2.61934,1.35701c1.05194,0.33662 2.14596,0.50493 3.28206,0.50493c1.5148,0 2.62986,-0.23143 3.34518,-0.69428c0.73636,-0.48389 1.10454,-1.15714 1.10454,-2.01973c0,-0.61013 -0.19987,-1.0835 -0.59961,-1.42012c-0.39974,-0.35766 -0.90467,-0.62065 -1.5148,-0.78896c-0.61013,-0.18935 -1.42012,-0.36818 -2.42999,-0.53649c-1.34649,-0.25247 -2.42999,-0.50493 -3.2505,-0.7574c-0.82052,-0.27351 -1.52532,-0.72584 -2.1144,-1.35701c-0.56805,-0.63117 -0.85207,-1.50428 -0.85207,-2.61934c0,-1.38856 0.57857,-2.52466 1.7357,-3.4083c1.15714,-0.88363 2.76661,-1.32545 4.82842,-1.32545c1.07298,0 2.14596,0.14727 3.21895,0.44182c1.07298,0.27351 1.95661,0.64169 2.65089,1.10454l-0.97831,1.79882c-1.36753,-0.94675 -2.99804,-1.42012 -4.89153,-1.42012c-1.43064,0 -2.51414,0.25247 -3.2505,0.7574c-0.71532,0.50493 -1.07298,1.16766 -1.07298,1.98817c0,0.63117 0.19987,1.1361 0.59961,1.5148c0.42078,0.3787 0.93623,0.66272 1.54635,0.85207c0.61013,0.16831 1.45168,0.34714 2.52466,0.53649c1.32545,0.25247 2.38791,0.50493 3.18739,0.7574c0.79948,0.25247 1.48324,0.68376 2.05129,1.29389c0.56805,0.61013 0.85207,1.45168 0.85207,2.52466c0,1.45168 -0.61013,2.60882 -1.83038,3.47141c-1.19921,0.84155 -2.8718,1.26233 -5.01777,1.26233z"/><path d="M144.36281,172.09179h2.24064v16.59965h-2.24064zM145.49891,168.46259c-0.46285,0 -0.85207,-0.15779 -1.16766,-0.47338c-0.31558,-0.31558 -0.47337,-0.69428 -0.47337,-1.1361c0,-0.42078 0.15779,-0.78896 0.47337,-1.10454c0.31558,-0.31558 0.7048,-0.47338 1.16766,-0.47338c0.46286,0 0.85207,0.15779 1.16766,0.47338c0.31558,0.29454 0.47338,0.6522 0.47338,1.07298c0,0.46286 -0.15779,0.85207 -0.47338,1.16766c-0.31558,0.31558 -0.7048,0.47338 -1.16766,0.47338z"/><path d="M159.73167,188.84923c-1.64103,0 -3.11375,-0.35766 -4.41816,-1.07298c-1.28337,-0.71532 -2.29323,-1.71467 -3.0296,-2.99804c-0.73636,-1.30441 -1.10454,-2.76661 -1.10454,-4.3866c0,-1.61999 0.36818,-3.07167 1.10454,-4.35504c0.73636,-1.28337 1.74623,-2.28272 3.0296,-2.99804c1.30441,-0.71532 2.77713,-1.07298 4.41816,-1.07298c1.43064,0 2.70349,0.28402 3.81855,0.85207c1.1361,0.54701 2.03025,1.35701 2.68245,2.42999l-1.67259,1.1361c-0.54701,-0.82052 -1.24129,-1.43064 -2.08285,-1.83038c-0.84155,-0.42078 -1.75674,-0.63117 -2.74557,-0.63117c-1.19921,0 -2.28272,0.27351 -3.2505,0.82052c-0.94675,0.52597 -1.69363,1.28337 -2.24064,2.2722c-0.52597,0.98883 -0.78896,2.1144 -0.78896,3.37674c0,1.28337 0.26299,2.41947 0.78896,3.40829c0.54701,0.96779 1.29389,1.72519 2.24064,2.2722c0.96779,0.52597 2.05129,0.78896 3.2505,0.78896c0.98883,0 1.90402,-0.19987 2.74557,-0.59961c0.84155,-0.39974 1.53584,-1.00987 2.08285,-1.83038l1.67259,1.1361c-0.6522,1.07298 -1.54636,1.8935 -2.68245,2.46155c-1.1361,0.54701 -2.40895,0.82051 -3.81855,0.82051z"/><path d="M185.00984,177.29891c1.45168,0.31558 2.56674,0.94675 3.34518,1.8935c0.79948,0.92571 1.19921,2.12492 1.19921,3.59764c0,1.8935 -0.7048,3.3557 -2.1144,4.3866c-1.38856,1.00987 -3.45037,1.5148 -6.18542,1.5148h-10.16176v-22.09079h9.5306c2.46155,0 4.36556,0.49441 5.71205,1.48324c1.36753,0.98883 2.05129,2.38791 2.05129,4.19725c0,1.22025 -0.30506,2.26168 -0.91519,3.12427c-0.58909,0.84155 -1.4096,1.47272 -2.46154,1.8935zM173.42795,168.5257v8.0158h7.0375c1.7883,0 3.16635,-0.33662 4.13413,-1.00986c0.96779,-0.69428 1.45168,-1.69363 1.45168,-2.99804c0,-1.30441 -0.48389,-2.29323 -1.45168,-2.96648c-0.96779,-0.69428 -2.34583,-1.04142 -4.13413,-1.04142zM181.22285,186.76639c1.97765,0 3.47141,-0.33662 4.48127,-1.00987c1.00987,-0.67324 1.5148,-1.72519 1.5148,-3.15583c0,-2.75609 -1.99869,-4.13413 -5.99607,-4.13413h-7.79489v8.29983z"/><path d="M201.19923,188.84923c-1.59895,0 -3.04011,-0.35766 -4.32349,-1.07298c-1.28337,-0.73636 -2.29323,-1.74622 -3.02959,-3.02959c-0.73636,-1.28337 -1.10454,-2.73505 -1.10454,-4.35504c0,-1.61999 0.36818,-3.07167 1.10454,-4.35504c0.73636,-1.28337 1.74622,-2.28272 3.02959,-2.99804c1.28337,-0.71532 2.72453,-1.07298 4.32349,-1.07298c1.59895,0 3.04012,0.35766 4.32348,1.07298c1.28337,0.71532 2.28271,1.71467 2.99803,2.99804c0.73637,1.28337 1.10455,2.73505 1.10455,4.35504c0,1.61999 -0.36818,3.07167 -1.10455,4.35504c-0.71532,1.28337 -1.71466,2.29324 -2.99803,3.02959c-1.28337,0.71532 -2.72453,1.07298 -4.32348,1.07298zM201.19923,186.86106c1.17817,0 2.23012,-0.26299 3.15583,-0.78896c0.94675,-0.54701 1.68311,-1.31493 2.20908,-2.30375c0.52597,-0.98883 0.78895,-2.1144 0.78895,-3.37674c0,-1.26233 -0.26298,-2.38791 -0.78895,-3.37674c-0.52597,-0.98883 -1.26233,-1.74622 -2.20908,-2.2722c-0.92572,-0.54701 -1.97766,-0.82052 -3.15583,-0.82052c-1.17818,0 -2.24064,0.27351 -3.18739,0.82052c-0.92571,0.52597 -1.66207,1.28337 -2.20908,2.2722c-0.52597,0.98883 -0.78896,2.1144 -0.78896,3.37674c0,1.26233 0.26299,2.38791 0.78896,3.37674c0.54701,0.98883 1.28337,1.75674 2.20908,2.30375c0.94675,0.52597 2.00921,0.78896 3.18739,0.78896z"/><path d="M224.1736,188.69144l-5.27023,-6.94282l-5.3018,6.94282h-2.52465l6.56411,-8.52073l-6.24853,-8.07892h2.52467l4.98621,6.50101l4.98621,-6.50101h2.46155l-6.24855,8.07892l6.62723,8.52073z"/></g><g stroke-width="0.26459"><path d="M270.54191,232.04734h-12.30772l-2.65088,5.90154h-2.42998l10.09863,-22.09135h2.30374l10.09863,22.09135h-2.46154zM269.68982,230.15379l-5.30178,-11.86621l-5.30178,11.86621z"/><path d="M287.39396,221.22258c1.55687,0 2.96647,0.35767 4.2288,1.07301c1.26233,0.6943 2.25115,1.68315 2.96647,2.96655c0.71532,1.2834 1.07298,2.74564 1.07298,4.38671c0,1.66211 -0.35766,3.13487 -1.07298,4.41827c-0.71532,1.2834 -1.70415,2.28277 -2.96647,2.99811c-1.24129,0.69431 -2.6509,1.04146 -4.2288,1.04146c-1.34649,0 -2.56675,-0.27351 -3.66076,-0.82053c-1.07298,-0.56807 -1.95661,-1.3886 -2.65088,-2.4616v9.2468h-2.24064v-22.72253h2.14596v3.28214c0.67324,-1.09405 1.55687,-1.93562 2.65088,-2.52473c1.11506,-0.5891 2.36687,-0.88365 3.75543,-0.88365zM287.23611,236.11846c1.15713,0 2.20907,-0.26299 3.15582,-0.78898c0.94675,-0.54702 1.68311,-1.31496 2.20908,-2.30381c0.54701,-0.98885 0.82051,-2.11446 0.82051,-3.37682c0,-1.26236 -0.2735,-2.37745 -0.82051,-3.34526c-0.52597,-0.98885 -1.26234,-1.75679 -2.20908,-2.30381c-0.94675,-0.54702 -1.99869,-0.82054 -3.15582,-0.82054c-1.17817,0 -2.24062,0.27351 -3.18737,0.82054c-0.92572,0.54702 -1.66208,1.31496 -2.20908,2.30381c-0.52596,0.96781 -0.78894,2.0829 -0.78894,3.34526c0,1.26236 0.26298,2.38797 0.78894,3.37682c0.54701,0.98885 1.28337,1.75679 2.20908,2.30381c0.94675,0.52599 2.00921,0.78898 3.18737,0.78898z"/><path d="M308.79041,221.22258c1.55687,0 2.96647,0.35767 4.2288,1.07301c1.26233,0.6943 2.25115,1.68315 2.96647,2.96655c0.71532,1.2834 1.07298,2.74564 1.07298,4.38671c0,1.66211 -0.35766,3.13487 -1.07298,4.41827c-0.71532,1.2834 -1.70415,2.28277 -2.96647,2.99811c-1.24129,0.69431 -2.6509,1.04146 -4.2288,1.04146c-1.34648,0 -2.56673,-0.27351 -3.66074,-0.82053c-1.07298,-0.56807 -1.95662,-1.3886 -2.6509,-2.4616v9.2468h-2.24064v-22.72253h2.14596v3.28214c0.67324,-1.09405 1.55687,-1.93562 2.6509,-2.52473c1.11505,-0.5891 2.36686,-0.88365 3.75542,-0.88365zM308.63256,236.11846c1.15714,0 2.20908,-0.26299 3.15582,-0.78898c0.94675,-0.54702 1.68311,-1.31496 2.20908,-2.30381c0.54701,-0.98885 0.82051,-2.11446 0.82051,-3.37682c0,-1.26236 -0.2735,-2.37745 -0.82051,-3.34526c-0.52597,-0.98885 -1.26234,-1.75679 -2.20908,-2.30381c-0.94674,-0.54702 -1.99868,-0.82054 -3.15582,-0.82054c-1.17817,0 -2.24062,0.27351 -3.18737,0.82054c-0.9257,0.54702 -1.66206,1.31496 -2.20907,2.30381c-0.52597,0.96781 -0.78896,2.0829 -0.78896,3.34526c0,1.26236 0.26299,2.38797 0.78896,3.37682c0.54701,0.98885 1.28336,1.75679 2.20907,2.30381c0.94675,0.52599 2.00921,0.78898 3.18737,0.78898z"/><path d="M330.37621,215.85753h2.33529v22.09135h-2.33529z"/><path d="M347.89094,221.22258c2.08285,0 3.73439,0.61014 4.95464,1.83043c1.24129,1.19924 1.86194,2.95603 1.86194,5.27037v9.62552h-2.24064v-9.4046c0,-1.72523 -0.43129,-3.04019 -1.29388,-3.94489c-0.86259,-0.90469 -2.09336,-1.35704 -3.69231,-1.35704c-1.7883,0 -3.20842,0.5365 -4.26036,1.60951c-1.0309,1.05197 -1.54635,2.51421 -1.54635,4.38671v8.7103h-2.24064v-16.60007h2.14594v3.06123c0.61014,-1.00989 1.45169,-1.78835 2.52466,-2.33537c1.09403,-0.56806 2.35636,-0.85209 3.78699,-0.85209z"/><path d="M365.24792,238.10668c-1.34649,0 -2.64038,-0.18935 -3.88166,-0.56806c-1.22026,-0.39975 -2.17753,-0.89418 -2.8718,-1.48329l1.00986,-1.7673c0.69429,0.54702 1.5674,0.99937 2.61933,1.35704c1.05195,0.33662 2.14597,0.50493 3.28207,0.50493c1.51479,0 2.62985,-0.23143 3.34517,-0.69429c0.73636,-0.48392 1.10453,-1.15718 1.10453,-2.01979c0,-0.61014 -0.19987,-1.08353 -0.59961,-1.42016c-0.39973,-0.35767 -0.90466,-0.62066 -1.5148,-0.78898c-0.61012,-0.18935 -1.42012,-0.36819 -2.42998,-0.5365c-1.34648,-0.25247 -2.42998,-0.50495 -3.2505,-0.75742c-0.82051,-0.27351 -1.5253,-0.72586 -2.11439,-1.35704c-0.56804,-0.63118 -0.85206,-1.50432 -0.85206,-2.6194c0,-1.3886 0.57857,-2.52473 1.7357,-3.40838c1.15713,-0.88365 2.7666,-1.32548 4.8284,-1.32548c1.07298,0 2.14596,0.14728 3.21894,0.44183c1.07298,0.27351 1.95661,0.6417 2.65088,1.10457l-0.97829,1.79887c-1.36753,-0.94677 -2.99804,-1.42016 -4.89154,-1.42016c-1.43063,0 -2.51413,0.25247 -3.2505,0.75742c-0.71532,0.50495 -1.07298,1.16769 -1.07298,1.98822c0,0.63118 0.19987,1.13613 0.59961,1.51484c0.42078,0.37871 0.93623,0.66274 1.54635,0.85209c0.61012,0.16832 1.45168,0.34715 2.52466,0.53651c1.32544,0.25247 2.38791,0.50495 3.18739,0.75742c0.79947,0.25247 1.48323,0.68378 2.05127,1.29392c0.56805,0.61014 0.85208,1.45172 0.85208,2.52473c0,1.45172 -0.61013,2.60889 -1.83039,3.4715c-1.19921,0.84158 -2.87179,1.26236 -5.01775,1.26236z"/><path d="M384.97175,236.939c-0.42078,0.37871 -0.94674,0.67326 -1.5779,0.88366c-0.61014,0.18935 -1.25182,0.28403 -1.92506,0.28403c-1.55687,0 -2.75609,-0.42079 -3.59764,-1.26236c-0.84155,-0.84158 -1.26233,-2.0303 -1.26233,-3.56618v-10.03579h-2.96647v-1.89354h2.96647v-3.6293h2.24064v3.6293h5.04932v1.89354h-5.04932v9.90955c0,0.98885 0.24195,1.74626 0.72584,2.27225c0.50494,0.50495 1.22026,0.75743 2.14596,0.75743c0.46286,0 0.90467,-0.07364 1.32545,-0.22092c0.44181,-0.14727 0.82051,-0.35766 1.13608,-0.63118z"/><path d="M394.84941,221.22258c2.167,0 3.82907,0.54702 4.98621,1.64107c1.15713,1.07301 1.7357,2.672 1.7357,4.79698v10.28826h-2.14596v-2.58785c-0.50493,0.86262 -1.25181,1.53589 -2.24064,2.01979c-0.96778,0.48391 -2.12492,0.72586 -3.4714,0.72586c-1.85142,0 -3.32414,-0.44183 -4.41815,-1.32549c-1.09402,-0.88365 -1.64102,-2.05133 -1.64102,-3.50305c0,-1.40964 0.50493,-2.54577 1.51478,-3.40838c1.03091,-0.86262 2.66143,-1.29392 4.89154,-1.29392h5.27021v-1.00989c0,-1.43068 -0.39974,-2.51421 -1.19921,-3.25058c-0.79947,-0.75742 -1.96713,-1.13613 -3.50297,-1.13613c-1.05195,0 -2.06181,0.17883 -3.0296,0.5365c-0.96778,0.33663 -1.79881,0.81002 -2.49309,1.42016l-1.00986,-1.67263c0.84155,-0.71534 1.85141,-1.26236 3.02958,-1.64107c1.17818,-0.39975 2.41947,-0.59962 3.72386,-0.59962zM394.06047,236.33937c1.26233,0 2.34583,-0.28403 3.2505,-0.85209c0.90467,-0.58911 1.57791,-1.43068 2.01972,-2.52473v-2.71408h-5.20711c-2.84024,0 -4.26036,0.98885 -4.26036,2.96655c0,0.96781 0.36818,1.73575 1.10453,2.30381c0.73637,0.54702 1.76727,0.82053 3.09272,0.82053z"/><path d="M407.66201,214.53205h2.24064v23.41683h-2.24064z"/><path d="M416.15113,214.53205h2.24064v23.41683h-2.24064z"/><path d="M439.09393,230.34315h-13.88562c0.12623,1.72523 0.78895,3.12435 1.98817,4.19735c1.19921,1.05198 2.71401,1.57796 4.5444,1.57796c1.0309,0 1.97764,-0.17884 2.84023,-0.53651c0.8626,-0.37871 1.60948,-0.92573 2.24064,-1.64107l1.26233,1.45172c-0.73636,0.88366 -1.66206,1.55692 -2.77713,2.01977c-1.09402,0.46287 -2.30375,0.69431 -3.62919,0.69431c-1.70414,0 -3.21893,-0.35767 -4.54438,-1.07301c-1.30441,-0.73638 -2.32479,-1.74627 -3.06115,-3.02968c-0.73637,-1.2834 -1.10455,-2.73511 -1.10455,-4.35515c0,-1.62003 0.34714,-3.07175 1.04143,-4.35515c0.71532,-1.2834 1.68311,-2.28277 2.90335,-2.99811c1.24129,-0.71534 2.62985,-1.07301 4.16568,-1.07301c1.53584,0 2.91388,0.35767 4.13413,1.07301c1.22026,0.71534 2.17753,1.71471 2.8718,2.99811c0.69429,1.26236 1.04143,2.71408 1.04143,4.35515zM431.07814,223.14768c-1.59894,0 -2.94542,0.51547 -4.03944,1.5464c-1.07298,1.00989 -1.68311,2.33537 -1.83039,3.97644h11.77123c-0.14728,-1.64107 -0.76793,-2.96655 -1.86194,-3.97644c-1.07298,-1.03093 -2.41947,-1.5464 -4.03946,-1.5464z"/><path d="M445.84734,224.5994c0.52597,-1.11509 1.30441,-1.95666 2.33531,-2.52473c1.05195,-0.56806 2.34583,-0.85209 3.88166,-0.85209v2.17758l-0.53649,-0.03155c-1.74622,0 -3.11374,0.5365 -4.10256,1.60951c-0.98883,1.07301 -1.48325,2.57733 -1.48325,4.51295v8.45783h-2.24062v-16.60007h2.14594z"/></g><g stroke-width="0.26458"><path d="M76.6044,80.34874c-1.64103,0 -3.21895,-0.26299 -4.73374,-0.78896c-1.49376,-0.52597 -2.6509,-1.22025 -3.47141,-2.08285l0.91519,-1.79882c0.79948,0.79948 1.86194,1.45168 3.18739,1.95661c1.32545,0.48389 2.69297,0.72584 4.10258,0.72584c1.97765,0 3.46089,-0.35766 4.44972,-1.07298c0.98883,-0.73636 1.48324,-1.68311 1.48324,-2.84024c0,-0.88363 -0.27351,-1.58843 -0.82052,-2.11441c-0.52597,-0.52597 -1.17817,-0.92571 -1.95661,-1.19921c-0.77844,-0.29454 -1.86194,-0.61013 -3.2505,-0.94675c-1.66207,-0.42078 -2.98752,-0.82051 -3.97634,-1.19921c-0.98883,-0.39974 -1.8409,-0.99935 -2.55622,-1.79882c-0.69428,-0.79948 -1.04142,-1.88298 -1.04142,-3.2505c0,-1.11506 0.29454,-2.12492 0.88363,-3.02959c0.58909,-0.92571 1.49376,-1.66207 2.71401,-2.20908c1.22025,-0.54701 2.73505,-0.82052 4.54439,-0.82052c1.26233,0 2.4931,0.17883 3.69232,0.53649c1.22025,0.33662 2.2722,0.81 3.15583,1.42012l-0.78896,1.86194c-0.92571,-0.61013 -1.91454,-1.06246 -2.96648,-1.35701c-1.05194,-0.31558 -2.08285,-0.47337 -3.09271,-0.47337c-1.93557,0 -3.39778,0.3787 -4.3866,1.1361c-0.96779,0.73636 -1.45168,1.69363 -1.45168,2.8718c0,0.88363 0.26299,1.59895 0.78896,2.14596c0.54701,0.52597 1.22025,0.93623 2.01973,1.23077c0.82052,0.27351 1.91454,0.57857 3.28206,0.91519c1.61999,0.39974 2.9244,0.79948 3.91323,1.19921c1.00986,0.3787 1.86194,0.96779 2.55622,1.76726c0.69428,0.77844 1.04142,1.8409 1.04142,3.18739c0,1.11506 -0.30506,2.13544 -0.91519,3.06115c-0.58909,0.90467 -1.50428,1.63051 -2.74557,2.17752c-1.24129,0.52597 -2.76661,0.78896 -4.57595,0.78896z"/><path d="M103.9023,72.55385h-13.88564c0.12623,1.72519 0.78896,3.12427 1.98817,4.19725c1.19921,1.05194 2.71401,1.57791 4.54439,1.57791c1.0309,0 1.97765,-0.17883 2.84025,-0.53649c0.86259,-0.3787 1.60947,-0.92571 2.24064,-1.64103l1.26233,1.45168c-0.73636,0.88363 -1.66207,1.55687 -2.77713,2.01973c-1.09402,0.46285 -2.30375,0.69428 -3.6292,0.69428c-1.70415,0 -3.21895,-0.35766 -4.54439,-1.07298c-1.30441,-0.73636 -2.32479,-1.74622 -3.06115,-3.02959c-0.73636,-1.28337 -1.10454,-2.73505 -1.10454,-4.35504c0,-1.61999 0.34714,-3.07167 1.04142,-4.35504c0.71532,-1.28337 1.68311,-2.28272 2.90336,-2.99804c1.24129,-0.71532 2.62986,-1.07298 4.16569,-1.07298c1.53584,0 2.91388,0.35766 4.13413,1.07298c1.22025,0.71532 2.17752,1.71467 2.8718,2.99804c0.69428,1.26233 1.04142,2.71401 1.04142,4.35504zM95.8865,65.35856c-1.59895,0 -2.94544,0.51545 -4.03946,1.54636c-1.07298,1.00986 -1.68311,2.33531 -1.83038,3.97634h11.77124c-0.14727,-1.64103 -0.76792,-2.96648 -1.86194,-3.97634c-1.07298,-1.0309 -2.41947,-1.54636 -4.03946,-1.54636z"/><path d="M117.2514,79.14953c-0.42078,0.3787 -0.94675,0.67324 -1.57791,0.88363c-0.61013,0.18935 -1.25181,0.28402 -1.92505,0.28402c-1.55688,0 -2.75609,-0.42078 -3.59765,-1.26233c-0.84155,-0.84155 -1.26233,-2.03025 -1.26233,-3.56609v-10.03553h-2.96648v-1.8935h2.96648v-3.6292h2.24064v3.6292h5.04932v1.8935h-5.04932v9.9093c0,0.98883 0.24195,1.74622 0.72584,2.2722c0.50493,0.50493 1.22025,0.7574 2.14596,0.7574c0.46286,0 0.90467,-0.07364 1.32545,-0.22091c0.44182,-0.14727 0.82051,-0.35766 1.1361,-0.63117z"/><path d="M129.62212,79.14953c-0.42078,0.3787 -0.94675,0.67324 -1.57791,0.88363c-0.61013,0.18935 -1.25181,0.28402 -1.92506,0.28402c-1.55687,0 -2.75609,-0.42078 -3.59764,-1.26233c-0.84155,-0.84155 -1.26233,-2.03025 -1.26233,-3.56609v-10.03553h-2.96648v-1.8935h2.96648v-3.6292h2.24064v3.6292h5.04932v1.8935h-5.04932v9.9093c0,0.98883 0.24195,1.74622 0.72584,2.2722c0.50493,0.50493 1.22025,0.7574 2.14596,0.7574c0.46285,0 0.90467,-0.07364 1.32545,-0.22091c0.44182,-0.14727 0.82052,-0.35766 1.1361,-0.63117z"/><path d="M133.69308,63.55974h2.24064v16.59965h-2.24064zM134.82918,59.93054c-0.46286,0 -0.85207,-0.15779 -1.16766,-0.47337c-0.31558,-0.31558 -0.47338,-0.69428 -0.47338,-1.1361c0,-0.42078 0.15779,-0.78896 0.47338,-1.10454c0.31558,-0.31558 0.7048,-0.47337 1.16766,-0.47337c0.46285,0 0.85207,0.15779 1.16766,0.47337c0.31558,0.29454 0.47337,0.6522 0.47337,1.07298c0,0.46285 -0.15779,0.85207 -0.47337,1.16766c-0.31558,0.31558 -0.7048,0.47337 -1.16766,0.47337z"/><path d="M150.63985,63.43351c2.08285,0 3.7344,0.61013 4.95465,1.83038c1.24129,1.19921 1.86194,2.95596 1.86194,5.27023v9.62528h-2.24064v-9.40437c0,-1.72519 -0.4313,-3.04011 -1.29389,-3.94478c-0.86259,-0.90467 -2.09337,-1.35701 -3.69232,-1.35701c-1.7883,0 -3.20843,0.53649 -4.26037,1.60947c-1.0309,1.05194 -1.54635,2.51414 -1.54635,4.3866v8.71008h-2.24064v-16.59965h2.14596v3.06115c0.61013,-1.00986 1.45168,-1.7883 2.52466,-2.33531c1.09402,-0.56805 2.35635,-0.85207 3.78699,-0.85207z"/><path d="M178.97909,63.55974v14.57992c0,2.81921 -0.69428,4.90205 -2.08285,6.24854c-1.36752,1.36753 -3.43985,2.05129 -6.21698,2.05129c-1.53584,0 -2.99804,-0.23143 -4.3866,-0.69428c-1.36752,-0.44182 -2.48258,-1.06246 -3.34518,-1.86194l1.1361,-1.70415c0.79948,0.71532 1.76726,1.27285 2.90336,1.67259c1.15714,0.39974 2.36687,0.59961 3.6292,0.59961c2.10389,0 3.65024,-0.49441 4.63907,-1.48324c0.98883,-0.96779 1.48324,-2.48259 1.48324,-4.54439v-2.1144c-0.69428,1.05194 -1.60947,1.85142 -2.74557,2.39843c-1.11506,0.54701 -2.35635,0.82052 -3.72388,0.82052c-1.55687,0 -2.977,-0.33662 -4.26037,-1.00987c-1.26233,-0.69428 -2.26168,-1.65155 -2.99804,-2.8718c-0.71532,-1.24129 -1.07298,-2.64038 -1.07298,-4.19725c0,-1.55687 0.35766,-2.94544 1.07298,-4.16569c0.73636,-1.22025 1.73571,-2.167 2.99804,-2.84024c1.26233,-0.67324 2.68245,-1.00986 4.26037,-1.00986c1.4096,0 2.68245,0.28402 3.81855,0.85207c1.1361,0.56805 2.05129,1.38856 2.74557,2.46154v-3.18739zM170.48992,77.54006c1.19921,0 2.28272,-0.25247 3.2505,-0.7574c0.96779,-0.52597 1.71467,-1.25181 2.24064,-2.17752c0.54701,-0.92571 0.82052,-1.97765 0.82052,-3.15583c0,-1.17818 -0.27351,-2.2196 -0.82052,-3.12427c-0.52597,-0.92571 -1.27285,-1.64103 -2.24064,-2.14596c-0.94675,-0.52597 -2.03025,-0.78896 -3.2505,-0.78896c-1.19921,0 -2.28272,0.25247 -3.2505,0.7574c-0.94675,0.50493 -1.69363,1.22025 -2.24064,2.14596c-0.52597,0.92571 -0.78896,1.97765 -0.78896,3.15583c0,1.17818 0.26299,2.23012 0.78896,3.15583c0.54701,0.92571 1.29389,1.65155 2.24064,2.17752c0.96779,0.50493 2.05129,0.7574 3.2505,0.7574z"/><path d="M189.70887,80.31718c-1.34649,0 -2.64038,-0.18935 -3.88167,-0.56805c-1.22025,-0.39974 -2.17752,-0.89415 -2.8718,-1.48324l1.00987,-1.76726c0.69428,0.54701 1.56739,0.99935 2.61934,1.35701c1.05194,0.33662 2.14596,0.50493 3.28206,0.50493c1.5148,0 2.62986,-0.23143 3.34518,-0.69428c0.73636,-0.48389 1.10454,-1.15714 1.10454,-2.01973c0,-0.61013 -0.19987,-1.0835 -0.59961,-1.42012c-0.39974,-0.35766 -0.90467,-0.62065 -1.5148,-0.78896c-0.61013,-0.18935 -1.42012,-0.36818 -2.42999,-0.53649c-1.34649,-0.25247 -2.42999,-0.50493 -3.2505,-0.7574c-0.82052,-0.27351 -1.52532,-0.72584 -2.1144,-1.35701c-0.56805,-0.63117 -0.85207,-1.50428 -0.85207,-2.61934c0,-1.38856 0.57857,-2.52466 1.7357,-3.40829c1.15714,-0.88363 2.76661,-1.32545 4.82842,-1.32545c1.07298,0 2.14596,0.14727 3.21895,0.44182c1.07298,0.27351 1.95661,0.64168 2.65089,1.10454l-0.97831,1.79882c-1.36753,-0.94675 -2.99804,-1.42012 -4.89153,-1.42012c-1.43064,0 -2.51414,0.25247 -3.2505,0.7574c-0.71532,0.50493 -1.07298,1.16766 -1.07298,1.98817c0,0.63117 0.19987,1.1361 0.59961,1.5148c0.42078,0.3787 0.93623,0.66272 1.54635,0.85207c0.61013,0.16831 1.45168,0.34714 2.52466,0.53649c1.32545,0.25247 2.38791,0.50493 3.18739,0.7574c0.79948,0.25247 1.48324,0.68376 2.05129,1.29389c0.56805,0.61013 0.85207,1.45168 0.85207,2.52466c0,1.45168 -0.61013,2.60882 -1.83038,3.47141c-1.19921,0.84155 -2.8718,1.26233 -5.01777,1.26233z"/></g><g stroke-width="0.26458"><path d="M226.19953,65.58236v22.09079h-2.24063v-17.67264l-8.67853,14.86395h-1.10455l-8.67851,-14.76927v17.57796h-2.24065v-22.09079h1.92505l9.59373,16.37875l9.49904,-16.37875z"/><path d="M246.8702,71.0735l-8.29983,18.58783c-0.67324,1.55687 -1.45167,2.66141 -2.3353,3.31362c-0.88363,0.6522 -1.94609,0.97831 -3.18738,0.97831c-0.79948,0 -1.54636,-0.12623 -2.24065,-0.3787c-0.69428,-0.25247 -1.29389,-0.63116 -1.79883,-1.1361l1.04143,-1.67259c0.84155,0.84155 1.85142,1.26233 3.0296,1.26233c0.7574,0 1.39908,-0.21039 1.92505,-0.63117c0.54702,-0.42078 1.05195,-1.1361 1.5148,-2.14596l0.72583,-1.60947l-7.41619,-16.5681h2.3353l6.24855,14.10655l6.24853,-14.10655z"/><path d="M258.76765,65.58236h8.99411c2.3353,0 4.39711,0.47337 6.18541,1.42012c1.7883,0.92571 3.17687,2.23012 4.1657,3.91323c0.98883,1.66207 1.48325,3.56609 1.48325,5.71205c0,2.14596 -0.49442,4.0605 -1.48325,5.74361c-0.98883,1.66207 -2.3774,2.96648 -4.1657,3.91323c-1.7883,0.92571 -3.85011,1.38856 -6.18541,1.38856h-8.99411zM267.63551,85.65342c1.93558,0 3.62922,-0.3787 5.0809,-1.1361c1.45167,-0.77844 2.57725,-1.8409 3.37673,-3.18739c0.79947,-1.36753 1.1992,-2.93492 1.1992,-4.70218c0,-1.76726 -0.39973,-3.32414 -1.1992,-4.67062c-0.79948,-1.36753 -1.92506,-2.42999 -3.37673,-3.18739c-1.45168,-0.77844 -3.14532,-1.16766 -5.0809,-1.16766h-6.53256v18.05134z"/><path d="M290.16807,70.94727c2.167,0 3.82907,0.54701 4.98621,1.64103c1.15715,1.07298 1.73572,2.67193 1.73572,4.79686v10.288h-2.14597v-2.58778c-0.50493,0.86259 -1.25181,1.53584 -2.24063,2.01973c-0.9678,0.48389 -2.12494,0.72584 -3.47142,0.72584c-1.85142,0 -3.32414,-0.44182 -4.41816,-1.32545c-1.09402,-0.88363 -1.64103,-2.05129 -1.64103,-3.50297c0,-1.4096 0.50493,-2.5457 1.5148,-3.4083c1.0309,-0.86259 2.66141,-1.29389 4.89153,-1.29389h5.27023v-1.00987c0,-1.43064 -0.39973,-2.51414 -1.1992,-3.2505c-0.79948,-0.7574 -1.96714,-1.1361 -3.50298,-1.1361c-1.05195,0 -2.06182,0.17883 -3.0296,0.53649c-0.96778,0.33662 -1.79882,0.81 -2.4931,1.42012l-1.00985,-1.67259c0.84155,-0.71532 1.85141,-1.26233 3.02958,-1.64103c1.17818,-0.39974 2.41947,-0.59961 3.72388,-0.59961zM289.37912,86.06368c1.26233,0 2.34583,-0.28402 3.2505,-0.85207c0.90467,-0.58909 1.57791,-1.43064 2.01973,-2.52466v-2.71401h-5.20711c-2.84025,0 -4.26038,0.98883 -4.26038,2.96648c0,0.96779 0.36818,1.73571 1.10455,2.30375c0.73635,0.54701 1.76725,0.82052 3.0927,0.82052z"/><path d="M316.61386,71.0735l-8.29983,18.58783c-0.67325,1.55687 -1.45169,2.66141 -2.33532,3.31362c-0.88363,0.6522 -1.94609,0.97831 -3.18738,0.97831c-0.79948,0 -1.54636,-0.12623 -2.24063,-0.3787c-0.69428,-0.25247 -1.29389,-0.63116 -1.79883,-1.1361l1.04143,-1.67259c0.84155,0.84155 1.85141,1.26233 3.02958,1.26233c0.7574,0 1.39908,-0.21039 1.92505,-0.63117c0.54702,-0.42078 1.05195,-1.1361 1.5148,-2.14596l0.72585,-1.60947l-7.4162,-16.5681h2.33532l6.24853,14.10655l6.24853,-14.10655z"/></g><g stroke-width="0.26458"><path d="M305.52007,135.44962c-2.18805,0 -4.1657,-0.48389 -5.93296,-1.45168c-1.74623,-0.96779 -3.12428,-2.30375 -4.13415,-4.0079c-0.98882,-1.72519 -1.48323,-3.65024 -1.48323,-5.77516c0,-2.12492 0.49441,-4.03946 1.48323,-5.74361c1.00987,-1.72519 2.39843,-3.07167 4.1657,-4.03946c1.76727,-0.96779 3.74492,-1.45168 5.93296,-1.45168c1.64103,0 3.15583,0.27351 4.54438,0.82052c1.38857,0.54701 2.56674,1.34648 3.53453,2.39843l-1.48323,1.48324c-1.72519,-1.74622 -3.9027,-2.61934 -6.53256,-2.61934c-1.74623,0 -3.33467,0.39974 -4.7653,1.19921c-1.43065,0.79948 -2.55623,1.8935 -3.37675,3.28206c-0.79947,1.38856 -1.1992,2.94544 -1.1992,4.67063c0,1.72519 0.39973,3.28206 1.1992,4.67062c0.82052,1.38856 1.9461,2.48258 3.37675,3.28206c1.43064,0.79948 3.01907,1.19922 4.7653,1.19922c2.65089,0 4.82841,-0.88363 6.53256,-2.6509l1.48323,1.48324c-0.96778,1.05194 -2.15648,1.86194 -3.56608,2.42999c-1.38857,0.54701 -2.90336,0.82051 -4.54438,0.82051z"/><path d="M326.60099,118.53439c2.08284,0 3.73439,0.61013 4.95465,1.83038c1.24129,1.19921 1.86193,2.95596 1.86193,5.27023v9.62528h-2.24063v-9.40437c0,-1.72519 -0.4313,-3.04011 -1.2939,-3.94478c-0.86259,-0.90467 -2.09336,-1.35701 -3.69233,-1.35701c-1.7883,0 -3.20842,0.53649 -4.26036,1.60947c-1.0309,1.05194 -1.54635,2.51414 -1.54635,4.3866v8.71008h-2.24065v-23.41624h2.24065v9.71995c0.61012,-0.96779 1.45167,-1.71467 2.52465,-2.24064c1.07298,-0.52597 2.30376,-0.78896 3.69233,-0.78896z"/><path d="M345.31498,118.53439c2.167,0 3.82907,0.54701 4.98621,1.64103c1.15715,1.07298 1.73572,2.67194 1.73572,4.79686v10.288h-2.14597v-2.58778c-0.50493,0.86259 -1.25181,1.53584 -2.24063,2.01973c-0.96778,0.48389 -2.12493,0.72584 -3.47142,0.72584c-1.85142,0 -3.32414,-0.44182 -4.41816,-1.32545c-1.09402,-0.88363 -1.64103,-2.05129 -1.64103,-3.50297c0,-1.4096 0.50493,-2.5457 1.5148,-3.40829c1.0309,-0.86259 2.66141,-1.29389 4.89153,-1.29389h5.27023v-1.00987c0,-1.43064 -0.39973,-2.51414 -1.1992,-3.2505c-0.79948,-0.7574 -1.96714,-1.1361 -3.50298,-1.1361c-1.05194,0 -2.0618,0.17883 -3.0296,0.53649c-0.96778,0.33662 -1.79882,0.81 -2.4931,1.42012l-1.00985,-1.67259c0.84155,-0.71532 1.85141,-1.26233 3.02958,-1.64103c1.17818,-0.39974 2.41947,-0.59961 3.72388,-0.59961zM344.52603,133.6508c1.26233,0 2.34583,-0.28402 3.2505,-0.85207c0.90467,-0.58909 1.57791,-1.43064 2.01973,-2.52466v-2.71401h-5.20711c-2.84025,0 -4.26038,0.98883 -4.26038,2.96648c0,0.96779 0.36818,1.7357 1.10455,2.30375c0.73635,0.54701 1.76725,0.82051 3.0927,0.82051z"/><path d="M366.86924,134.25041c-0.42078,0.3787 -0.94676,0.67324 -1.57792,0.88363c-0.61012,0.18935 -1.2518,0.28403 -1.92505,0.28403c-1.55687,0 -2.75608,-0.42078 -3.59763,-1.26233c-0.84156,-0.84155 -1.26235,-2.03025 -1.26235,-3.56609v-10.03553h-2.96648v-1.8935h2.96648v-3.6292h2.24065v3.6292h5.04933v1.8935h-5.04933v9.9093c0,0.98883 0.24194,1.74622 0.72583,2.2722c0.50493,0.50493 1.22026,0.7574 2.14597,0.7574c0.46285,0 0.90467,-0.07364 1.32545,-0.22091c0.44182,-0.14727 0.82052,-0.35766 1.1361,-0.63117z"/></g><g stroke-width="0.26458"><path d="M238.98646,166.11579v8.67853h11.42411v2.01973h-11.42411v9.37281h-2.3353v-22.09079h15.14797v2.01973z"/><path d="M255.83855,169.5872h2.24063v16.59965h-2.24063zM256.97465,165.958c-0.46285,0 -0.85207,-0.15779 -1.16765,-0.47338c-0.31558,-0.31558 -0.47338,-0.69428 -0.47338,-1.1361c0,-0.42078 0.15779,-0.78896 0.47338,-1.10454c0.31558,-0.31558 0.7048,-0.47338 1.16765,-0.47338c0.46285,0 0.85207,0.15779 1.16765,0.47338c0.31558,0.29454 0.47338,0.6522 0.47338,1.07298c0,0.46286 -0.15779,0.85207 -0.47338,1.16766c-0.31558,0.31558 -0.7048,0.47338 -1.16765,0.47338z"/><path d="M264.3277,162.77061h2.24065v23.41624h-2.24065z"/><path d="M287.27053,178.58131h-13.88564c0.12623,1.72519 0.78896,3.12427 1.98818,4.19725c1.19922,1.05194 2.71402,1.57791 4.5444,1.57791c1.0309,0 1.97765,-0.17883 2.84023,-0.53649c0.8626,-0.3787 1.60948,-0.92571 2.24065,-1.64103l1.26233,1.45168c-0.73637,0.88363 -1.66207,1.55687 -2.77713,2.01973c-1.09402,0.46285 -2.30375,0.69428 -3.6292,0.69428c-1.70415,0 -3.21895,-0.35766 -4.5444,-1.07298c-1.3044,-0.73636 -2.32479,-1.74622 -3.06115,-3.02959c-0.73635,-1.28337 -1.10453,-2.73505 -1.10453,-4.35504c0,-1.61999 0.34714,-3.07167 1.04143,-4.35504c0.71532,-1.28337 1.6831,-2.28272 2.90335,-2.99804c1.2413,-0.71532 2.62987,-1.07298 4.1657,-1.07298c1.53584,0 2.91388,0.35766 4.13413,1.07298c1.22025,0.71532 2.17752,1.71467 2.8718,2.99804c0.69428,1.26233 1.04143,2.71401 1.04143,4.35504zM279.25474,171.38602c-1.59895,0 -2.94544,0.51545 -4.03947,1.54636c-1.07297,1.00986 -1.6831,2.33531 -1.83038,3.97634h11.77124c-0.14727,-1.64103 -0.76791,-2.96648 -1.86193,-3.97634c-1.07298,-1.0309 -2.41947,-1.54636 -4.03946,-1.54636z"/><path d="M296.32771,186.34464c-1.34649,0 -2.64037,-0.18935 -3.88166,-0.56805c-1.22025,-0.39974 -2.17752,-0.89415 -2.8718,-1.48324l1.00985,-1.76726c0.69428,0.54701 1.5674,0.99935 2.61935,1.35701c1.05194,0.33662 2.14595,0.50493 3.28205,0.50493c1.5148,0 2.62986,-0.23143 3.34518,-0.69428c0.73635,-0.48389 1.10453,-1.15714 1.10453,-2.01973c0,-0.61013 -0.19987,-1.0835 -0.5996,-1.42012c-0.39973,-0.35766 -0.90467,-0.62065 -1.5148,-0.78896c-0.61012,-0.18935 -1.42011,-0.36818 -2.42998,-0.53649c-1.34649,-0.25247 -2.42999,-0.50493 -3.2505,-0.7574c-0.82052,-0.27351 -1.52532,-0.72584 -2.1144,-1.35701c-0.56805,-0.63117 -0.85208,-1.50428 -0.85208,-2.61934c0,-1.38856 0.57857,-2.52466 1.7357,-3.4083c1.15713,-0.88363 2.76661,-1.32545 4.82843,-1.32545c1.07297,0 2.14595,0.14727 3.21893,0.44182c1.07298,0.27351 1.95662,0.64169 2.6509,1.10454l-0.9783,1.79882c-1.36753,-0.94675 -2.99804,-1.42012 -4.89153,-1.42012c-1.43065,0 -2.51415,0.25247 -3.2505,0.7574c-0.71533,0.50493 -1.073,1.16766 -1.073,1.98817c0,0.63117 0.19987,1.1361 0.59962,1.5148c0.42077,0.3787 0.93622,0.66272 1.54635,0.85207c0.61012,0.16831 1.45167,0.34714 2.52465,0.53649c1.32545,0.25247 2.38791,0.50493 3.18738,0.7574c0.79948,0.25247 1.48325,0.68376 2.0513,1.29389c0.56805,0.61013 0.85208,1.45168 0.85208,2.52466c0,1.45168 -0.61013,2.60882 -1.83038,3.47141c-1.19922,0.84155 -2.87181,1.26233 -5.01778,1.26233z"/></g><g stroke-width="0.26458"><path d="M244.16486,255.09597l-9.78306,22.09079h-2.30375l-9.78306,-22.09079h2.52465l8.45761,19.18744l8.52075,-19.18744z"/><path d="M246.78416,260.58712h2.24063v16.59964h-2.24063zM247.92026,256.95791c-0.46285,0 -0.85207,-0.15779 -1.16765,-0.47338c-0.31558,-0.31558 -0.47338,-0.69428 -0.47338,-1.1361c0,-0.42078 0.15779,-0.78896 0.47338,-1.10455c0.31558,-0.31558 0.7048,-0.47338 1.16765,-0.47338c0.46285,0 0.85207,0.15779 1.16765,0.47338c0.31558,0.29455 0.47338,0.65221 0.47338,1.073c0,0.46285 -0.15779,0.85207 -0.47338,1.16765c-0.31558,0.31558 -0.7048,0.47338 -1.16765,0.47338z"/><path d="M270.42128,253.77052v23.41624h-2.14597v-3.28205c-0.67324,1.11505 -1.56739,1.96713 -2.68245,2.55623c-1.09402,0.58908 -2.33531,0.88363 -3.72388,0.88363c-1.55687,0 -2.96647,-0.35766 -4.22881,-1.07298c-1.26233,-0.71532 -2.25116,-1.71467 -2.96648,-2.99805c-0.71532,-1.28337 -1.07298,-2.74556 -1.07298,-4.38658c0,-1.64103 0.35766,-3.10323 1.07298,-4.3866c0.71532,-1.28337 1.70414,-2.27219 2.96648,-2.96648c1.26233,-0.71533 2.67194,-1.073 4.22881,-1.073c1.34649,0 2.55622,0.28403 3.6292,0.85208c1.09402,0.54702 1.98817,1.35701 2.68245,2.43v-9.97243zM262.05833,275.35638c1.15713,0 2.19856,-0.26298 3.12428,-0.78895c0.94675,-0.54702 1.68311,-1.31493 2.20908,-2.30375c0.54702,-0.98883 0.82052,-2.11441 0.82052,-3.37673c0,-1.26233 -0.27351,-2.38792 -0.82052,-3.37675c-0.52597,-0.98882 -1.26233,-1.74622 -2.20908,-2.2722c-0.92572,-0.547 -1.96714,-0.8205 -3.12428,-0.8205c-1.17817,0 -2.24063,0.2735 -3.18738,0.8205c-0.92572,0.52598 -1.66207,1.28338 -2.20908,2.2722c-0.52597,0.98883 -0.78895,2.11441 -0.78895,3.37675c0,1.26232 0.26298,2.3879 0.78895,3.37673c0.547,0.98882 1.28336,1.75674 2.20908,2.30375c0.94675,0.52597 2.00921,0.78895 3.18738,0.78895z"/><path d="M291.12349,269.58123h-13.88564c0.12623,1.72519 0.78896,3.12427 1.98818,4.19725c1.19922,1.05194 2.71401,1.5779 4.54438,1.5779c1.03091,0 1.97766,-0.17883 2.84025,-0.53648c0.8626,-0.3787 1.60948,-0.92572 2.24065,-1.64105l1.26233,1.4517c-0.73637,0.88362 -1.66207,1.55686 -2.77713,2.01973c-1.09402,0.46285 -2.30375,0.69428 -3.6292,0.69428c-1.70415,0 -3.21895,-0.35766 -4.5444,-1.07298c-1.3044,-0.73637 -2.32479,-1.74623 -3.06115,-3.0296c-0.73635,-1.28337 -1.10453,-2.73505 -1.10453,-4.35503c0,-1.62 0.34714,-3.07168 1.04143,-4.35505c0.71532,-1.28337 1.6831,-2.28271 2.90335,-2.99803c1.24129,-0.71533 2.62985,-1.073 4.16568,-1.073c1.53585,0 2.9139,0.35767 4.13415,1.073c1.22025,0.71532 2.17752,1.71466 2.8718,2.99803c0.69428,1.26233 1.04143,2.71402 1.04143,4.35505zM283.10768,262.38594c-1.59895,0 -2.94544,0.51545 -4.03946,1.54635c-1.07298,1.00987 -1.68311,2.33531 -1.83038,3.97633h11.77124c-0.14727,-1.64102 -0.76791,-2.96647 -1.86193,-3.97633c-1.07298,-1.0309 -2.41947,-1.54635 -4.03947,-1.54635z"/><path d="M302.51597,277.34456c-1.59895,0 -3.04011,-0.35766 -4.32348,-1.07298c-1.28337,-0.73637 -2.29324,-1.74623 -3.0296,-3.0296c-0.73635,-1.28337 -1.10453,-2.73505 -1.10453,-4.35503c0,-1.62 0.36818,-3.07168 1.10453,-4.35505c0.73637,-1.28337 1.74623,-2.28271 3.0296,-2.99803c1.28337,-0.71533 2.72453,-1.073 4.32348,-1.073c1.59895,0 3.04012,0.35767 4.3235,1.073c1.28337,0.71532 2.28271,1.71466 2.99803,2.99803c0.73635,1.28337 1.10453,2.73505 1.10453,4.35505c0,1.61999 -0.36818,3.07166 -1.10453,4.35503c-0.71532,1.28337 -1.71466,2.29324 -2.99803,3.0296c-1.28338,0.71532 -2.72455,1.07298 -4.3235,1.07298zM302.51597,275.35638c1.17818,0 2.23012,-0.26298 3.15583,-0.78895c0.94675,-0.54702 1.68311,-1.31493 2.20908,-2.30375c0.52598,-0.98883 0.78897,-2.11441 0.78897,-3.37673c0,-1.26233 -0.26299,-2.38792 -0.78897,-3.37675c-0.52597,-0.98882 -1.26233,-1.74622 -2.20908,-2.2722c-0.9257,-0.547 -1.97765,-0.8205 -3.15583,-0.8205c-1.17817,0 -2.24063,0.2735 -3.18738,0.8205c-0.92572,0.52598 -1.66207,1.28338 -2.20908,2.2722c-0.52597,0.98883 -0.78895,2.11441 -0.78895,3.37675c0,1.26232 0.26298,2.3879 0.78895,3.37673c0.547,0.98882 1.28336,1.75674 2.20908,2.30375c0.94675,0.52597 2.00921,0.78895 3.18738,0.78895z"/><path d="M319.96767,277.34456c-1.34649,0 -2.64038,-0.18935 -3.88168,-0.56805c-1.22025,-0.39973 -2.17752,-0.89415 -2.8718,-1.48325l1.00987,-1.76725c0.69428,0.54702 1.56739,0.99935 2.61933,1.357c1.05195,0.33662 2.14597,0.50493 3.28207,0.50493c1.51479,0 2.62985,-0.23143 3.34518,-0.69428c0.73635,-0.48389 1.10453,-1.15713 1.10453,-2.01973c0,-0.61012 -0.19987,-1.08349 -0.5996,-1.42013c-0.39973,-0.35765 -0.90467,-0.62064 -1.5148,-0.78895c-0.61013,-0.18935 -1.42013,-0.36818 -2.42998,-0.5365c-1.34649,-0.25247 -2.42999,-0.50493 -3.2505,-0.7574c-0.82052,-0.2735 -1.52532,-0.72584 -2.1144,-1.357c-0.56805,-0.63117 -0.85208,-1.50428 -0.85208,-2.61933c0,-1.38857 0.57857,-2.52467 1.7357,-3.4083c1.15713,-0.88363 2.7666,-1.32545 4.82841,-1.32545c1.07298,0 2.14597,0.14727 3.21895,0.44182c1.07298,0.2735 1.95662,0.64168 2.6509,1.10455l-0.97832,1.79881c-1.36752,-0.94674 -2.99803,-1.42011 -4.89153,-1.42011c-1.43064,0 -2.51414,0.25246 -3.2505,0.75738c-0.71532,0.50493 -1.07298,1.16766 -1.07298,1.98818c0,0.63117 0.19987,1.1361 0.5996,1.5148c0.42078,0.3787 0.93624,0.66273 1.54637,0.85208c0.61012,0.16832 1.45167,0.34715 2.52465,0.5365c1.32545,0.25247 2.38791,0.50493 3.18738,0.7574c0.79948,0.25245 1.48325,0.68375 2.0513,1.29388c0.56805,0.61013 0.85208,1.45168 0.85208,2.52465c0,1.45168 -0.61013,2.60882 -1.8304,3.47142c-1.1992,0.84155 -2.87179,1.26233 -5.01776,1.26233z"/></g><g stroke-width="0.26458"><path d="M145.89792,303.25685c-1.64103,0 -3.21895,-0.26298 -4.73374,-0.78895c-1.49376,-0.52598 -2.6509,-1.22026 -3.47141,-2.08285l0.91519,-1.79883c0.79948,0.79948 1.86194,1.45169 3.18739,1.95662c1.32545,0.48389 2.69297,0.72583 4.10258,0.72583c1.97765,0 3.46089,-0.35766 4.44972,-1.07298c0.98883,-0.73637 1.48324,-1.68312 1.48324,-2.84025c0,-0.88363 -0.27351,-1.58843 -0.82052,-2.1144c-0.52597,-0.52597 -1.17817,-0.9257 -1.95661,-1.1992c-0.77844,-0.29455 -1.86194,-0.61013 -3.2505,-0.94675c-1.66207,-0.42078 -2.98752,-0.82052 -3.97634,-1.19922c-0.98883,-0.39973 -1.8409,-0.99934 -2.55622,-1.79883c-0.69428,-0.79947 -1.04142,-1.88297 -1.04142,-3.2505c0,-1.11505 0.29454,-2.12491 0.88363,-3.02958c0.58909,-0.92572 1.49376,-1.66207 2.71401,-2.20908c1.22025,-0.54702 2.73505,-0.82052 4.54439,-0.82052c1.26233,0 2.4931,0.17883 3.69232,0.5365c1.22025,0.33662 2.2722,0.80999 3.15583,1.42011l-0.78896,1.86195c-0.92571,-0.61013 -1.91454,-1.06247 -2.96648,-1.357c-1.05194,-0.31558 -2.08285,-0.47338 -3.09271,-0.47338c-1.93557,0 -3.39777,0.3787 -4.3866,1.1361c-0.96779,0.73635 -1.45168,1.69362 -1.45168,2.8718c0,0.88363 0.26299,1.59895 0.78896,2.14595c0.54701,0.52597 1.22025,0.93623 2.01973,1.23078c0.82052,0.2735 1.91454,0.57857 3.28206,0.9152c1.61999,0.39973 2.9244,0.79947 3.91323,1.1992c1.00986,0.3787 1.86194,0.96779 2.55622,1.76727c0.69428,0.77843 1.04142,1.84089 1.04142,3.18738c0,1.11505 -0.30506,2.13544 -0.91519,3.06115c-0.58909,0.90467 -1.50428,1.63051 -2.74557,2.17753c-1.24129,0.52597 -2.76661,0.78895 -4.57595,0.78895z"/><path d="M179.44437,286.34161c2.08285,0 3.71336,0.59961 4.89153,1.79883c1.19921,1.19922 1.79882,2.96648 1.79882,5.30178v9.62528h-2.24064v-9.40436c0,-1.72519 -0.42078,-3.04012 -1.26233,-3.9448c-0.82052,-0.90467 -1.98817,-1.357 -3.50297,-1.357c-1.72519,0 -3.08219,0.53649 -4.07102,1.60948c-0.98883,1.05195 -1.48324,2.51415 -1.48324,4.3866v8.71008h-2.24064v-9.40436c0,-1.72519 -0.42078,-3.04012 -1.26233,-3.9448c-0.82052,-0.90467 -1.99869,-1.357 -3.53453,-1.357c-1.70415,0 -3.06115,0.53649 -4.07102,1.60948c-0.98883,1.05195 -1.48324,2.51415 -1.48324,4.3866v8.71008h-2.24064v-16.59966h2.14596v3.0296c0.58909,-1.00987 1.4096,-1.7883 2.46155,-2.3353c1.05194,-0.54702 2.26168,-0.82052 3.6292,-0.82052c1.38856,0 2.58778,0.29454 3.59764,0.88363c1.0309,0.5891 1.79882,1.46221 2.30375,2.61935c0.61013,-1.09402 1.48324,-1.94609 2.61934,-2.55623c1.15714,-0.63117 2.47207,-0.94675 3.94479,-0.94675z"/><path d="M198.03216,286.34161c2.167,0 3.82907,0.54701 4.98622,1.64103c1.15713,1.07298 1.7357,2.67194 1.7357,4.79686v10.28801h-2.14597v-2.58778c-0.50493,0.86259 -1.25181,1.53583 -2.24063,2.01973c-0.96779,0.4839 -2.12492,0.72585 -3.47141,0.72585c-1.85142,0 -3.32414,-0.44182 -4.41816,-1.32545c-1.09402,-0.88363 -1.64103,-2.05129 -1.64103,-3.50298c0,-1.4096 0.50493,-2.5457 1.5148,-3.4083c1.0309,-0.86259 2.66142,-1.29388 4.89153,-1.29388h5.27023v-1.00987c0,-1.43064 -0.39974,-2.51414 -1.19921,-3.2505c-0.79948,-0.75739 -1.96713,-1.13608 -3.50297,-1.13608c-1.05194,0 -2.06181,0.17883 -3.02959,0.53648c-0.96779,0.33662 -1.79882,0.80999 -2.4931,1.42013l-1.00987,-1.6726c0.84155,-0.71532 1.85142,-1.26233 3.0296,-1.64103c1.17818,-0.39973 2.41947,-0.5996 3.72388,-0.5996zM197.2432,301.45802c1.26233,0 2.34583,-0.28403 3.2505,-0.85208c0.90467,-0.58908 1.57791,-1.43064 2.01972,-2.52465v-2.71402h-5.20711c-2.84025,0 -4.26037,0.98883 -4.26037,2.96648c0,0.9678 0.36818,1.73572 1.10454,2.30377c0.73636,0.547 1.76726,0.8205 3.09271,0.8205z"/><path d="M212.99073,289.71834c0.52597,-1.11505 1.30441,-1.9566 2.33532,-2.52465c1.05194,-0.56805 2.34582,-0.85208 3.88166,-0.85208v2.17753l-0.53648,-0.0315c-1.74623,0 -3.11376,0.53649 -4.10258,1.60948c-0.98883,1.07298 -1.48325,2.57727 -1.48325,4.51285v8.45761h-2.24063v-16.59974h2.14595z"/><path d="M232.71459,302.05763c-0.42077,0.3787 -0.94674,0.67325 -1.5779,0.88365c-0.61013,0.18935 -1.25182,0.28403 -1.92505,0.28403c-1.55688,0 -2.7561,-0.42078 -3.59765,-1.26235c-0.84155,-0.84155 -1.26233,-2.03024 -1.26233,-3.56608v-10.03553h-2.96648v-1.8935h2.96648v-3.6292h2.24063v3.6292h5.04933v1.8935h-5.04933v9.90931c0,0.98882 0.24195,1.74622 0.72585,2.2722c0.50493,0.50492 1.22025,0.75738 2.14595,0.75738c0.46286,0 0.90468,-0.07363 1.32545,-0.2209c0.44182,-0.14727 0.82052,-0.35765 1.1361,-0.63115z"/><path d="M263.98877,280.97671v22.09079h-2.30375v-10.19333h-13.82252v10.19333h-2.33532v-22.09079h2.33532v9.84618h13.82252v-9.84618z"/><path d="M277.49571,303.2253c-1.59895,0 -3.04011,-0.35767 -4.32348,-1.073c-1.28337,-0.73635 -2.29324,-1.74621 -3.0296,-3.02958c-0.73635,-1.28337 -1.10453,-2.73505 -1.10453,-4.35505c0,-1.61999 0.36818,-3.07166 1.10453,-4.35503c0.73637,-1.28338 1.74623,-2.28273 3.0296,-2.99805c1.28337,-0.71532 2.72453,-1.07298 4.32348,-1.07298c1.59895,0 3.04011,0.35766 4.32348,1.07298c1.28337,0.71532 2.28272,1.71467 2.99805,2.99805c0.73635,1.28337 1.10453,2.73505 1.10453,4.35503c0,1.62 -0.36818,3.07168 -1.10453,4.35505c-0.71533,1.28337 -1.71468,2.29323 -2.99805,3.02958c-1.28337,0.71533 -2.72453,1.073 -4.32348,1.073zM277.49571,301.23712c1.17818,0 2.23012,-0.26298 3.15583,-0.78895c0.94675,-0.54702 1.68311,-1.31494 2.20908,-2.30377c0.52597,-0.98882 0.78895,-2.1144 0.78895,-3.37673c0,-1.26233 -0.26298,-2.38791 -0.78895,-3.37673c-0.52597,-0.98883 -1.26233,-1.74623 -2.20908,-2.2722c-0.9257,-0.547 -1.97765,-0.8205 -3.15583,-0.8205c-1.17817,0 -2.24063,0.2735 -3.18738,0.8205c-0.92572,0.52597 -1.66207,1.28337 -2.20908,2.2722c-0.52598,0.98882 -0.78897,2.1144 -0.78897,3.37673c0,1.26233 0.26299,2.38791 0.78897,3.37673c0.547,0.98883 1.28336,1.75676 2.20908,2.30377c0.94675,0.52597 2.00921,0.78895 3.18738,0.78895z"/><path d="M311.1999,286.34161c2.08285,0 3.71336,0.59961 4.89153,1.79883c1.19922,1.19922 1.79883,2.96648 1.79883,5.30178v9.62528h-2.24063v-9.40436c0,-1.72519 -0.42078,-3.04012 -1.26233,-3.9448c-0.82052,-0.90467 -1.98818,-1.357 -3.50298,-1.357c-1.72519,0 -3.08219,0.53649 -4.07103,1.60948c-0.98882,1.05195 -1.48323,2.51415 -1.48323,4.3866v8.71008h-2.24063v-9.40436c0,-1.72519 -0.42078,-3.04012 -1.26235,-3.9448c-0.82052,-0.90467 -1.99869,-1.357 -3.53453,-1.357c-1.70414,0 -3.06114,0.53649 -4.07101,1.60948c-0.98883,1.05195 -1.48325,2.51415 -1.48325,4.3866v8.71008h-2.24063v-16.59966h2.14595v3.0296c0.5891,-1.00987 1.40961,-1.7883 2.46155,-2.3353c1.05195,-0.54702 2.26168,-0.82052 3.6292,-0.82052c1.38857,0 2.58778,0.29454 3.59765,0.88363c1.0309,0.5891 1.79882,1.46221 2.30375,2.61935c0.61012,-1.09402 1.48323,-1.94609 2.61933,-2.55623c1.15713,-0.63117 2.47206,-0.94675 3.94478,-0.94675z"/><path d="M338.49775,295.46195h-13.88564c0.12623,1.72519 0.78896,3.12427 1.98818,4.19725c1.1992,1.05195 2.714,1.57792 4.54438,1.57792c1.0309,0 1.97765,-0.17883 2.84025,-0.5365c0.86259,-0.3787 1.60946,-0.92571 2.24063,-1.64103l1.26235,1.45168c-0.73637,0.88363 -1.66208,1.55688 -2.77715,2.01973c-1.09402,0.46286 -2.30375,0.6943 -3.62918,0.6943c-1.70415,0 -3.21895,-0.35767 -4.5444,-1.073c-1.3044,-0.73635 -2.32479,-1.74621 -3.06115,-3.02958c-0.73637,-1.28337 -1.10455,-2.73505 -1.10455,-4.35505c0,-1.61999 0.34714,-3.07166 1.04143,-4.35503c0.71533,-1.28338 1.68312,-2.28273 2.90337,-2.99805c1.24129,-0.71532 2.62985,-1.07298 4.16568,-1.07298c1.53584,0 2.91388,0.35766 4.13413,1.07298c1.22026,0.71532 2.17754,1.71467 2.87182,2.99805c0.69427,1.26232 1.04141,2.714 1.04141,4.35503zM330.48194,288.26666c-1.59895,0 -2.94544,0.51545 -4.03946,1.54635c-1.07298,1.00987 -1.68311,2.33532 -1.83038,3.97635h11.77124c-0.14727,-1.64103 -0.76791,-2.96648 -1.86193,-3.97635c-1.07298,-1.0309 -2.41947,-1.54635 -4.03947,-1.54635z"/></g><g stroke-width="0.26458"><path d="M52.98155,255.09599h8.99411c2.33531,0 4.39712,0.47338 6.18542,1.42013c1.7883,0.9257 3.17687,2.23011 4.16569,3.91323c0.98883,1.66207 1.48324,3.56609 1.48324,5.71205c0,2.14595 -0.49441,4.06049 -1.48324,5.74361c-0.98883,1.66207 -2.37739,2.96648 -4.16569,3.91323c-1.7883,0.9257 -3.85011,1.38855 -6.18542,1.38855h-8.99411zM61.84943,275.16705c1.93557,0 3.6292,-0.3787 5.08088,-1.1361c1.45168,-0.77843 2.57726,-1.84089 3.37674,-3.18738c0.79948,-1.36753 1.19922,-2.93493 1.19922,-4.70218c0,-1.76727 -0.39974,-3.32414 -1.19922,-4.67063c-0.79948,-1.36753 -1.92505,-2.43 -3.37674,-3.1874c-1.45168,-0.77843 -3.14531,-1.16765 -5.08088,-1.16765h-6.53256v18.05134z"/><path d="M93.02896,269.58124h-13.88564c0.12623,1.72519 0.78896,3.12426 1.98817,4.19723c1.19921,1.05195 2.71401,1.57792 4.54439,1.57792c1.0309,0 1.97765,-0.17883 2.84025,-0.5365c0.86259,-0.3787 1.60947,-0.92571 2.24064,-1.64103l1.26233,1.45168c-0.73636,0.88363 -1.66207,1.55688 -2.77713,2.01973c-1.09402,0.46286 -2.30376,0.6943 -3.6292,0.6943c-1.70415,0 -3.21894,-0.35767 -4.54439,-1.073c-1.30441,-0.73635 -2.32479,-1.74621 -3.06115,-3.02958c-0.73636,-1.28337 -1.10454,-2.73505 -1.10454,-4.35505c0,-1.61999 0.34714,-3.07166 1.04142,-4.35503c0.71532,-1.28337 1.68311,-2.28272 2.90336,-2.99805c1.24129,-0.71532 2.62986,-1.07298 4.16569,-1.07298c1.53584,0 2.91388,0.35766 4.13413,1.07298c1.22025,0.71533 2.17752,1.71468 2.8718,2.99805c0.69428,1.26233 1.04142,2.71401 1.04142,4.35503zM85.01315,262.38594c-1.59895,0 -2.94544,0.51545 -4.03946,1.54635c-1.07298,1.00987 -1.68311,2.33532 -1.83038,3.97635h11.77124c-0.14727,-1.64103 -0.76792,-2.96648 -1.86194,-3.97635c-1.07298,-1.0309 -2.41947,-1.54635 -4.03946,-1.54635z"/><path d="M103.12755,255.50624c-0.96779,0 -1.70415,0.26299 -2.20908,0.78897c-0.48389,0.52597 -0.72584,1.3044 -0.72584,2.3353v1.9566h5.11244v1.8935h-5.04932v14.70616h-2.24064v-14.70616h-2.96648v-1.8935h2.96648v-2.05128c0,-1.5148 0.4313,-2.71402 1.29389,-3.59765c0.88363,-0.88362 2.12492,-1.32543 3.72388,-1.32543c0.63117,0 1.24129,0.09468 1.83038,0.28403c0.58909,0.1683 1.0835,0.42076 1.48324,0.75738l-0.7574,1.6726c-0.6522,-0.54702 -1.47272,-0.82052 -2.46154,-0.82052z"/><path d="M123.29325,260.58712v16.59966h-2.14596v-3.0296c-0.58909,1.00987 -1.39908,1.79883 -2.42999,2.36688c-1.0309,0.54702 -2.20908,0.82052 -3.53453,0.82052c-2.167,0 -3.88167,-0.59961 -5.144,-1.79883c-1.24129,-1.22025 -1.86194,-2.99804 -1.86194,-5.33335v-9.62528h2.24064v9.40438c0,1.74622 0.4313,3.07166 1.29389,3.97633c0.86259,0.90468 2.09337,1.35702 3.69232,1.35702c1.74622,0 3.12427,-0.52597 4.13413,-1.57792c1.00986,-1.07298 1.5148,-2.55622 1.5148,-4.44971v-8.7101z"/><path d="M135.38002,260.46089c2.167,0 3.82907,0.54701 4.98621,1.64103c1.15714,1.07298 1.7357,2.67194 1.7357,4.79686v10.28801h-2.14596v-2.58778c-0.50493,0.8626 -1.25181,1.53584 -2.24064,2.01973c-0.96779,0.4839 -2.12492,0.72585 -3.47141,0.72585c-1.85142,0 -3.32414,-0.44182 -4.41816,-1.32545c-1.09402,-0.88363 -1.64103,-2.05129 -1.64103,-3.50298c0,-1.4096 0.50493,-2.5457 1.5148,-3.40828c1.0309,-0.8626 2.66142,-1.2939 4.89153,-1.2939h5.27023v-1.00987c0,-1.43064 -0.39974,-2.51414 -1.19921,-3.2505c-0.79948,-0.75739 -1.96713,-1.13608 -3.50297,-1.13608c-1.05194,0 -2.06181,0.17883 -3.02959,0.53648c-0.96779,0.33663 -1.79882,0.81001 -2.4931,1.42013l-1.00987,-1.67258c0.84155,-0.71533 1.85142,-1.26235 3.0296,-1.64105c1.17818,-0.39973 2.41947,-0.5996 3.72388,-0.5996zM134.59106,275.5773c1.26233,0 2.34583,-0.28403 3.2505,-0.85208c0.90467,-0.58908 1.57791,-1.43064 2.01973,-2.52465v-2.714h-5.20711c-2.84025,0 -4.26037,0.98883 -4.26037,2.96648c0,0.96778 0.36818,1.7357 1.10454,2.30375c0.73636,0.547 1.76726,0.8205 3.09271,0.8205z"/><path d="M148.19262,253.77053h2.24064v23.41624h-2.24064z"/><path d="M165.4865,276.17691c-0.42078,0.3787 -0.94675,0.67325 -1.57791,0.88365c-0.61013,0.18935 -1.25181,0.28403 -1.92505,0.28403c-1.55687,0 -2.75609,-0.42078 -3.59764,-1.26233c-0.84155,-0.84156 -1.26233,-2.03026 -1.26233,-3.5661v-10.03553h-2.96648v-1.8935h2.96648v-3.62918h2.24064v3.62918h5.04932v1.8935h-5.04932v9.90931c0,0.98882 0.24195,1.74622 0.72584,2.2722c0.50493,0.50493 1.22025,0.7574 2.14596,0.7574c0.46286,0 0.90467,-0.07364 1.32545,-0.22092c0.44182,-0.14727 0.82051,-0.35765 1.1361,-0.63115z"/></g></g></g></g></svg>