<svg version="1.1" xmlns="http://www.w3.org/2000/svg" xmlns:xlink="http://www.w3.org/1999/xlink" width="33.70139" height="47.0221" viewBox="0,0,33.70139,47.0221"><g transform="translate(-223.14931,-156.48894)"><g data-paper-data="{&quot;isPaintingLayer&quot;:true}" fill="#000000" fill-rule="nonzero" stroke="none" stroke-width="0.26459" stroke-linecap="butt" stroke-linejoin="miter" stroke-miterlimit="10" stroke-dasharray="" stroke-dashoffset="0" style="mix-blend-mode: normal"><path d="M241.8649,176.47001c4.88425,0.26642 8.59185,1.59846 11.12278,3.9962c2.57534,2.35332 3.86302,5.43931 3.86302,9.25789c0,2.66413 -0.64386,5.03968 -1.93152,7.12659c-1.28766,2.0425 -3.19696,3.66319 -5.72789,4.86205c-2.53093,1.19887 -5.61691,1.7983 -9.25789,1.7983c-3.37459,0 -6.57154,-0.53282 -9.59091,-1.59849c-2.97496,-1.11005 -5.37268,-2.57534 -7.19317,-4.39584l2.33112,-3.79639c1.55408,1.59849 3.61878,2.90835 6.19412,3.92961c2.57534,0.97685 5.32829,1.46527 8.25884,1.46527c3.81861,0 6.77137,-0.82142 8.85828,-2.46432c2.0869,-1.68728 3.13037,-3.99622 3.13037,-6.92677c0,-2.88615 -1.04347,-5.15066 -3.13037,-6.79356c-2.0869,-1.64289 -5.23948,-2.46435 -9.45771,-2.46435h-3.33017v-3.52999l12.92109,-16.18465h-23.84406v-4.26262h29.97159v3.39677z"/></g></g></svg>