<svg version="1.1" xmlns="http://www.w3.org/2000/svg" xmlns:xlink="http://www.w3.org/1999/xlink" width="28" height="28" viewBox="0,0,28,28"><g transform="translate(-226,-166)"><g data-paper-data="{&quot;isPaintingLayer&quot;:true}" fill-rule="nonzero" stroke="none" stroke-width="1" stroke-linecap="butt" stroke-linejoin="miter" stroke-miterlimit="10" stroke-dasharray="" stroke-dashoffset="0" style="mix-blend-mode: normal"><path d="M247.77778,194h-15.55555c-3.43078,0 -6.22222,-2.79145 -6.22222,-6.22222v-15.55555c0,-3.43078 2.79145,-6.22222 6.22222,-6.22222h15.55555c3.43078,0 6.22222,2.79145 6.22222,6.22222v15.55555c0,3.43078 -2.79145,6.22222 -6.22222,6.22222z" fill="#f3f3f3"/><path d="M247,179.22222h-14.77778c-1.28878,0 -2.33334,-1.04455 -2.33334,-2.33334v-2.58689c0,-1.18534 0.88822,-2.18245 2.06578,-2.31778l14.68834,-1.69478c1.848,-0.21389 3.46811,0.45266 3.46811,2.31234v4.28711c0,1.28878 -1.82234,2.33334 -3.11111,2.33334z" fill="#61e3a7"/><path d="M231.44445,180.77778h4.66666c0.85945,0 1.55555,0.69611 1.55555,1.55555v4.59434c0,0.92945 -0.80966,1.65122 -1.73289,1.54545l-4.66666,-0.53666c-0.78555,-0.09022 -1.37822,-0.75522 -1.37822,-1.54545v-4.05766c0,-0.85945 0.69611,-1.55555 1.55555,-1.55555z" fill="#eb6773"/><path d="M240.38889,180.77778h2.33334c0.644,0 1.16666,0.52266 1.16666,1.16666v1.30278c0,0.66966 -0.56234,1.20166 -1.23045,1.16511l-2.33334,-0.12834c-0.61911,-0.03422 -1.10289,-0.54522 -1.10289,-1.16511v-1.17445c0,-0.644 0.52266,-1.16666 1.16666,-1.16666z" fill="#f2d33a"/><path d="M240.45111,185.46311l2.33334,0.12445c0.61911,0.03266 1.10445,0.54445 1.10445,1.16511v1.33234c0,0.69766 -0.609,1.23978 -1.302,1.15889l-2.33334,-0.27222c-0.588,-0.06845 -1.03134,-0.567 -1.03134,-1.15889v-1.18455c0,-0.66889 0.56078,-1.20089 1.22889,-1.16511z" fill="#222222"/><path d="M250.11111,181.94445v1.63955c0,0.66889 -0.56078,1.20089 -1.22889,1.16511l-2.33334,-0.12445c-0.61911,-0.03266 -1.10445,-0.54445 -1.10445,-1.16511v-1.51511c0,-0.644 0.52266,-1.16666 1.16666,-1.16666h2.33334c0.644,0 1.16666,0.52266 1.16666,1.16666z" fill="#08b7e8"/><path d="M246.67489,185.79989l2.33334,0.12834c0.61911,0.03422 1.10289,0.54522 1.10289,1.16511v1.70955c0,0.69689 -0.60745,1.239 -1.29966,1.15889l-2.33334,-0.26834c-0.58955,-0.06766 -1.03366,-0.56622 -1.03366,-1.15889v-1.56955c0,-0.66966 0.56234,-1.20166 1.23045,-1.16511z" fill="#a976f0"/></g></g></svg>