<svg version="1.1" xmlns="http://www.w3.org/2000/svg" xmlns:xlink="http://www.w3.org/1999/xlink" width="60.32682" height="12.38349" viewBox="0,0,60.32682,12.38349"><g transform="translate(-209.83659,-173.80826)"><g data-paper-data="{&quot;isPaintingLayer&quot;:true}" fill="#ffffff" fill-rule="nonzero" stroke="none" stroke-width="0.26459" stroke-linecap="butt" stroke-linejoin="miter" stroke-miterlimit="10" stroke-dasharray="" stroke-dashoffset="0" style="mix-blend-mode: normal"><g><path d="M215.85789,186.19175c-1.66631,0 -3.10531,-0.60599 -4.31714,-1.81781c-1.13608,-1.21183 -1.70416,-2.6888 -1.70416,-4.43079c0,-1.742 0.56808,-3.181 1.70416,-4.31715c1.21183,-1.21183 2.65089,-1.81774 4.31714,-1.81774c1.66631,0 3.10532,0.60591 4.31715,1.81774c1.21183,1.13608 1.81774,2.57515 1.81774,4.31715c0,1.74206 -0.60591,3.21897 -1.81774,4.43079c-1.21183,1.21183 -2.6509,1.81781 -4.31715,1.81781z"/><path d="M239.94314,186.19175c-1.66631,0 -3.10532,-0.60599 -4.31715,-1.81781c-1.13608,-1.21183 -1.70415,-2.6888 -1.70415,-4.43079c0,-1.742 0.56807,-3.181 1.70415,-4.31715c1.21183,-1.21183 2.6509,-1.81774 4.31715,-1.81774c1.66631,0 3.10531,0.60591 4.31714,1.81774c1.21183,1.13608 1.81781,2.57515 1.81781,4.31715c0,1.74206 -0.60599,3.21897 -1.81781,4.43079c-1.21183,1.21183 -2.65089,1.81781 -4.31714,1.81781z"/><path d="M264.02846,186.19175c-1.66632,0 -3.10539,-0.60599 -4.31721,-1.81781c-1.13608,-1.21183 -1.70416,-2.6888 -1.70416,-4.43079c0,-1.742 0.56808,-3.181 1.70416,-4.31715c1.21182,-1.21183 2.65089,-1.81774 4.31721,-1.81774c1.66631,0 3.10532,0.60591 4.31714,1.81774c1.21182,1.13608 1.81781,2.57515 1.81781,4.31715c0,1.74206 -0.60599,3.21897 -1.81781,4.43079c-1.21182,1.21183 -2.65089,1.81781 -4.31714,1.81781z"/></g></g></g></svg>