<svg version="1.1" xmlns="http://www.w3.org/2000/svg" xmlns:xlink="http://www.w3.org/1999/xlink" width="38.46572" height="48.99388" viewBox="0,0,38.46572,48.99388"><g transform="translate(-220.76714,-155.50306)"><g data-paper-data="{&quot;isPaintingLayer&quot;:true}" fill="#000000" fill-rule="nonzero" stroke="none" stroke-width="0.26458" stroke-linecap="butt" stroke-linejoin="miter" stroke-miterlimit="10" stroke-dasharray="" stroke-dashoffset="0" style="mix-blend-mode: normal"><path d="M239.96558,204.49694c-3.71579,0 -7.04168,-0.9863 -9.97765,-2.95889c-2.89009,-1.97259 -5.16088,-4.79389 -6.81236,-8.46385c-1.6056,-3.71584 -2.40843,-8.0739 -2.40843,-13.07422c0,-5.00033 0.80282,-9.33543 2.40843,-13.00538c1.65148,-3.71584 3.92227,-6.56005 6.81236,-8.53264c2.93597,-1.97259 6.26186,-2.95889 9.97765,-2.95889c3.71584,0 7.0188,0.9863 9.90889,2.95889c2.93597,1.97259 5.22968,4.81681 6.88116,8.53264c1.65148,3.66996 2.47722,8.0051 2.47722,13.00538c0,5.00033 -0.82574,9.35839 -2.47722,13.07422c-1.65148,3.66996 -3.94519,6.49121 -6.88116,8.46385c-2.89009,1.97259 -6.19306,2.95889 -9.90889,2.95889zM239.96558,199.9554c2.79838,0 5.25264,-0.77986 7.36287,-2.33959c2.15607,-1.55972 3.83051,-3.83051 5.02324,-6.81236c1.19273,-2.98185 1.78908,-6.58297 1.78908,-10.80343c0,-4.22046 -0.59635,-7.82158 -1.78908,-10.80343c-1.19273,-2.98185 -2.86717,-5.25264 -5.02324,-6.81236c-2.11023,-1.55972 -4.5645,-2.33959 -7.36287,-2.33959c-2.79834,0 -5.27556,0.77986 -7.43163,2.33959c-2.11023,1.55972 -3.76171,3.83051 -4.95445,6.81236c-1.19273,2.98185 -1.78912,6.58297 -1.78912,10.80343c0,4.22046 0.59639,7.82158 1.78912,10.80343c1.19273,2.98185 2.84421,5.2526 4.95445,6.81236c2.15607,1.55972 4.63329,2.33959 7.43163,2.33959z"/></g></g></svg>