<svg version="1.1" xmlns="http://www.w3.org/2000/svg" xmlns:xlink="http://www.w3.org/1999/xlink" width="28.00001" height="28.00001" viewBox="0,0,28.00001,28.00001"><defs><linearGradient x1="230.90729" y1="189.34528" x2="249.0927" y2="189.34528" gradientUnits="userSpaceOnUse" id="color-1"><stop offset="0" stop-color="#c8d3de"/><stop offset="1" stop-color="#c8d3de"/></linearGradient><linearGradient x1="234.99648" y1="173.85637" x2="243.73054" y2="190.75314" gradientUnits="userSpaceOnUse" id="color-2"><stop offset="0" stop-color="#fcfcfc"/><stop offset="0.495" stop-color="#f4f4f4"/><stop offset="0.946" stop-color="#e8e8e8"/><stop offset="1" stop-color="#e8e8e8"/></linearGradient><linearGradient x1="240" y1="169.48479" x2="240" y2="180.60416" gradientUnits="userSpaceOnUse" id="color-3"><stop offset="0" stop-color="#d43a02"/><stop offset="1" stop-color="#b9360c"/></linearGradient><linearGradient x1="242.04586" y1="181.28815" x2="245.86681" y2="185.1091" gradientUnits="userSpaceOnUse" id="color-4"><stop offset="0" stop-color="#33bef0"/><stop offset="1" stop-color="#0a85d9"/></linearGradient></defs><g transform="translate(-225.99999,-165.99999)"><g data-paper-data="{&quot;isPaintingLayer&quot;:true}" fill-rule="nonzero" stroke="none" stroke-width="1" stroke-linecap="butt" stroke-linejoin="miter" stroke-miterlimit="10" stroke-dasharray="" stroke-dashoffset="0" style="mix-blend-mode: normal"><path d="M247.77778,194.00001h-15.55555c-3.43078,0 -6.22223,-2.79145 -6.22223,-6.22223v-15.55555c0,-3.43078 2.79145,-6.22223 6.22223,-6.22223h15.55555c3.43078,0 6.22223,2.79145 6.22223,6.22223v15.55555c0,3.43078 -2.79145,6.22223 -6.22223,6.22223z" fill="#f3f3f3"/><g><path d="M249.0927,189.34528c0,0.55819 -0.45211,1.0103 -1.0103,1.0103h-16.16481c-0.55819,0 -1.0103,-0.45211 -1.0103,-1.0103v-1.0103h18.18541z" fill="url(#color-1)"/><path d="M249.0927,188.33499h-18.18541v-9.59785l9.0927,-8.58755l9.0927,8.58755z" fill="url(#color-2)"/><path d="M234.44334,181.26288h5.0515c0.27885,0 0.50515,0.22631 0.50515,0.50515v8.58755h-6.06181v-8.58755c0,-0.27885 0.22631,-0.50515 0.50515,-0.50515z" fill="#de490d"/><path d="M240.66982,170.90881l2.70709,2.43028l5.71578,5.39804v2.72276l-9.0927,-8.06321l-9.0927,8.06321v-2.72276l5.71578,-5.39804l2.70709,-2.43028c0.19095,-0.16923 0.43039,-0.25409 0.66983,-0.25409c0.23944,0 0.47889,0.08486 0.66983,0.25409z" fill="#000000" opacity="0.05"/><path d="M240.66982,170.40215l2.70709,2.41664l5.71578,5.36722v2.70709l-9.0927,-8.01724l-9.0927,8.01724v-2.70709l5.71578,-5.36722l2.70709,-2.41664c0.19095,-0.16822 0.43039,-0.25257 0.66983,-0.25257c0.23944,0 0.47889,0.08436 0.66983,0.25257z" fill="#000000" opacity="0.07"/><path d="M250.38538,179.21096l-0.82642,0.88149c-0.1864,0.19903 -0.49757,0.21367 -0.70216,0.03385l-8.85679,-7.73992l-8.85679,7.7394c-0.20509,0.18034 -0.51576,0.16519 -0.70216,-0.03385l-0.82642,-0.88149c-0.19448,-0.20711 -0.17984,-0.53343 0.03232,-0.72237l9.68323,-8.58957c0.19095,-0.16923 0.43039,-0.25409 0.66983,-0.25409c0.23944,0 0.47889,0.08486 0.66983,0.25409l9.68323,8.58957c0.21216,0.18893 0.22682,0.51525 0.03232,0.72287z" fill="url(#color-3)"/><path d="M242.52576,181.26288h3.0309c0.27885,0 0.50515,0.22631 0.50515,0.50515v3.0309c0,0.27885 -0.22631,0.50515 -0.50515,0.50515h-3.0309c-0.27885,0 -0.50515,-0.22631 -0.50515,-0.50515v-3.0309c0,-0.27885 0.22631,-0.50515 0.50515,-0.50515z" fill="url(#color-4)"/></g></g></g></svg>