<svg version="1.1" xmlns="http://www.w3.org/2000/svg" xmlns:xlink="http://www.w3.org/1999/xlink" width="60.25" height="20.25" viewBox="0,0,60.25,20.25"><g transform="translate(-209.915,-169.875)"><g data-paper-data="{&quot;isPaintingLayer&quot;:true}" fill="#fafafa" fill-rule="nonzero" stroke="#0078d4" stroke-width="0.5" stroke-linecap="butt" stroke-linejoin="miter" stroke-miterlimit="10" stroke-dasharray="" stroke-dashoffset="0" style="mix-blend-mode: normal"><path d="M210.165,188.04615c0,-4.11473 0,-13.91691 0,-16.16c0,-0.89429 0.72266,-1.76115 1.77808,-1.76115c0.72509,0 1.60723,0 2.52,0c7.05481,0 44.36652,0 53.48,0c1.28654,0 1.97192,0.62327 1.97192,1.64115c0,4.02073 0,14.19864 0,16.44c0,0.85332 -0.61983,1.66885 -1.73192,1.66885c-9.11311,0 -51.28241,0 -56.32,0c-0.96671,0 -1.69808,-0.70063 -1.69808,-1.82885z"/></g></g></svg>