<svg version="1.1" xmlns="http://www.w3.org/2000/svg" xmlns:xlink="http://www.w3.org/1999/xlink" width="210" height="170" viewBox="0,0,210,170"><defs><linearGradient x1="336" y1="189.54" x2="336" y2="230.885" gradientUnits="userSpaceOnUse" id="color-1"><stop offset="0" stop-color="#eba600"/><stop offset="1" stop-color="#c28200"/></linearGradient><linearGradient x1="336" y1="210.27" x2="336" y2="360.915" gradientUnits="userSpaceOnUse" id="color-2"><stop offset="0" stop-color="#ffd869"/><stop offset="1" stop-color="#fec52b"/></linearGradient></defs><g transform="translate(-231,-191)"><g data-paper-data="{&quot;isPaintingLayer&quot;:true}" fill-rule="nonzero" stroke="none" stroke-width="1" stroke-linecap="butt" stroke-linejoin="miter" stroke-miterlimit="10" stroke-dasharray="" stroke-dashoffset="0" style="mix-blend-mode: normal"><g><path d="M345.14,211h85.86c5.525,0 10,4.475 10,10v130c0,5.525 -4.475,10 -10,10h-190c-5.525,0 -10,-4.475 -10,-10v-150c0,-5.525 4.475,-10 10,-10h73.785c3.98,0 7.795,1.58 10.605,4.39l12.68,12.68c1.875,1.875 4.42,2.93 7.07,2.93z" fill="url(#color-1)"/><path d="M323.93,228.07l16.34,-16.34c0.465,-0.465 1.1,-0.73 1.765,-0.73h88.965c5.525,0 10,4.475 10,10v130c0,5.525 -4.475,10 -10,10h-190c-5.525,0 -10,-4.475 -10,-10v-117.5c0,-1.38 1.12,-2.5 2.5,-2.5h83.36c2.65,0 5.195,-1.055 7.07,-2.93z" fill="url(#color-2)"/></g></g></g></svg>