<svg version="1.1" xmlns="http://www.w3.org/2000/svg" xmlns:xlink="http://www.w3.org/1999/xlink" width="28" height="28" viewBox="0,0,28,28"><defs><radialGradient cx="242.203" cy="177.83636" r="10.86442" gradientUnits="userSpaceOnUse" id="color-1"><stop offset="0.693" stop-color="#006185"/><stop offset="0.921" stop-color="#35c1f1"/></radialGradient><linearGradient x1="248.36176" y1="171.6377" x2="235.9323" y2="184.06716" gradientUnits="userSpaceOnUse" id="color-2"><stop offset="0" stop-color="#a3ffff"/><stop offset="0.223" stop-color="#9dfbff"/><stop offset="0.53" stop-color="#8bf1ff"/><stop offset="0.885" stop-color="#6ee0ff"/><stop offset="1" stop-color="#63daff"/></linearGradient></defs><g transform="translate(-226,-166)"><g data-paper-data="{&quot;isPaintingLayer&quot;:true}" fill-rule="nonzero" stroke="none" stroke-linecap="butt" stroke-linejoin="miter" stroke-miterlimit="10" stroke-dasharray="" stroke-dashoffset="0" style="mix-blend-mode: normal"><path d="M247.77778,194h-15.55555c-3.43078,0 -6.22223,-2.79145 -6.22223,-6.22223v-15.55555c0,-3.43078 2.79145,-6.22223 6.22223,-6.22223h15.55555c3.43078,0 6.22223,2.79145 6.22223,6.22223v15.55555c0,3.43078 -2.79145,6.22223 -6.22223,6.22223z" fill="#f3f3f3" stroke-width="1"/><g stroke-width="1"><path d="M233.35863,184.68176l1.95963,1.95963l-4.36151,4.36151c-0.10807,0.10807 -0.28375,0.10807 -0.39182,0l-1.56726,-1.56726c-0.10807,-0.10807 -0.10807,-0.28375 0,-0.39182z" fill="#199be2"/><path d="M235.7871,182.25273l1.95963,1.95963l-2.42903,2.42848l-1.95908,-1.95908z" fill="url(#color-1)"/><path d="M242.21629,186.65026c-4.89716,0 -8.8671,-3.96994 -8.8671,-8.8671c0,-4.89716 3.96994,-8.8671 8.8671,-8.8671c4.89716,0 8.8671,3.96994 8.8671,8.8671c0,4.89716 -3.96994,8.8671 -8.8671,8.8671z" fill="url(#color-2)"/></g><path d="M227.62501,192.125v-24.25h24.75v24.25z" fill="none" stroke-width="0"/></g></g></svg>